<svg xmlns="http://www.w3.org/2000/svg">
<defs>
<font id="LTCushion-Bold" horiz-adv-x="444" >
  <font-face 
    font-family="LT Cushion"
    font-weight="700"
    font-stretch="normal"
    units-per-em="1000"
    panose-1="0 0 0 0 0 0 0 0 0 0"
    ascent="750"
    descent="-250"
    x-height="479"
    cap-height="690"
    bbox="-13 -322.957 1078 953"
    underline-thickness="50"
    underline-position="-100"
    unicode-range="U+0020-FB02"
  />
<missing-glyph horiz-adv-x="781" 
d="M34 654q0 10 3.5 18t10 14.5t14.5 10t18 3.5h624q9 0 17.5 -3.5t15 -10t10 -14.5t3.5 -18v-112q0 -9 -3.5 -17.5t-10 -15t-15 -10t-17.5 -3.5h-149q-5 0 -8.5 -3t-3.5 -9v-438q0 -9 -3.5 -17.5t-10 -15t-15 -10t-17.5 -3.5h-15q-6 0 -11.5 5t-5.5 12t5.5 12t11.5 5h15
q12 0 12 12v438q0 20 13.5 33t32.5 13h149q12 0 12 12v112q0 12 -12 12h-624q-12 0 -12 -12v-112q0 -5 3 -8.5t9 -3.5h149q20 0 33 -13t13 -33v-40q0 -7 -5 -12t-12 -5t-12 5t-5 12v40q0 12 -12 12h-149q-10 0 -18 3.5t-14.5 10t-10 15t-3.5 17.5v112zM360 523l4 3l53 -1
l2 -1l1 -3q0 -10 -9 -10h-35l-1 -2v-22l-3 -3v0h-1v0v0h-1h-1h-6l-3 4v35zM363 459l-3 3v0v1v0v0v0v8l2 2q1 1 16 1q2 1 11 4t25 12q2 1 3 1q2 0 2 -5v-6q0 -1 -1 -1q0 -1 -0.5 -1t-0.5 -1l-20 -10q7 -4 12 -6.5t8 -4.5q1 -1 1.5 -2.5t1.5 -2.5v-2q0 -1 -1 -5q0 -1 -2 -2h-1
v0v0v0h-1v0q-2 0 -3 1t-3 1l-1 1q-1 1 -3 1l-3 2q-9 4 -14 7q-8 4 -10 4h-15zM359 414q0 29 31 30q14 0 22.5 -8t8.5 -22q0 -28 -31 -30q-14 0 -22.5 8t-8.5 22zM375 414q0 -14 15 -15q7 0 11.5 4.5t4.5 10.5q0 7 -4.5 11t-11.5 4q-14 0 -15 -15zM241 370q0 6 5 11.5t12 5.5
t12 -5t5 -12v-324q0 -5 3 -8.5t9 -3.5h121q7 0 12 -5t5 -12t-5 -12t-12 -5h-121q-10 0 -18 3.5t-14.5 10t-10 15t-3.5 17.5v324zM360 338q0 2 1 3v1q1 2 2 3q3 1 9 5t16 11l1 3l-26 1l-3 4v9l2 1h4h2h1h1h1h2h1h2h3h1h19q13 0 18 -1q2 0 3 -3v0v0v-1v0v0v0v-1q0 -2 -1 -4v-2
q0 -2 -2 -2v-1q-11 -10 -18 -14t-8 -5l2 -1h24l3 -3v0v0v-1v0v0v0v-8l-3 -3l-54 1l-3 3v5zM359 307v5q0 1 0.5 1.5t0.5 1.5l1 4q1 5 5 5h2l5 -1q2 0 2 -3v-2l-1 -10l1 -8l3 -2q3 0 5 8q2 7 6.5 12.5t12.5 5.5q10 0 14.5 -6.5t4.5 -15.5q0 -11 -4 -15q0 -1 -4 -1l-1 1v0h-1v0

<glyph glyph-name="uFB01" unicode="fi" horiz-adv-x="608" 
d="M208 553q0 -44 17.5 -59t51.5 -15h23q6 0 11 -3t8 -8.5t3 -16.5q0 -17 -11 -24q-5 -3 -11 -3h-75v-331q0 -16 6.5 -27t14.5 -19t14.5 -15t6.5 -16q0 -10 -6 -14q-3 -2 -6 -2h-198q-3 0 -6 2q-6 4 -6 14q0 9 6.5 16t15 15t15 19t6.5 27v331h-34q-7 0 -12 3t-8.5 8.5
t-3.5 15.5q0 11 3.5 16.5t8.5 8.5t12 3h34v36q0 52 18 88.5t48 60t68.5 34.5t78.5 11q47 0 86.5 -8.5t68.5 -24t45 -36.5t16 -46q0 -18 -6 -30t-15.5 -19.5t-20.5 -11t-20 -3.5q-29 0 -47.5 15.5t-27.5 41.5q-7 27 -33 45t-58 18q-19 0 -34.5 -7.5t-25.5 -19.5t-15.5 -27
t-5.5 -30v-13zM539 93q0 -16 6.5 -27t14.5 -19t14.5 -15t6.5 -16q0 -10 -6 -14q-3 -2 -6 -2h-198q-3 0 -6 2q-6 4 -6 14q0 9 6.5 16t15 15t15 19t6.5 27v261q0 19 -7 28t-15 14.5t-15 10.5t-7 15q0 7 3.5 11t8.5 6q5 3 11 5l134 39q7 2 12 1q5 -2 8.5 -7t3.5 -17v-367z" />
    <glyph glyph-name="uFB02" unicode="fl" horiz-adv-x="608" 
d="M539 93q0 -16 6.5 -27t14.5 -19t14.5 -15t6.5 -16q0 -10 -6 -14q-3 -2 -6 -2h-198q-3 0 -6 2q-6 4 -6 14q0 9 6.5 16t15 15t15 19t6.5 27v448q0 19 -5.5 38.5t-17.5 35t-31.5 25.5t-46.5 10q-23 0 -40.5 -7.5t-29 -19.5t-17.5 -27t-6 -30v-13q0 -44 17.5 -59t51.5 -15h23
q6 0 11 -3t8 -8.5t3 -16.5q0 -17 -11 -24q-5 -3 -11 -3h-75v-331q0 -16 6.5 -27t14.5 -19t14.5 -15t6.5 -16q0 -10 -6 -14q-3 -2 -6 -2h-198q-3 0 -6 2q-6 4 -6 14q0 9 6.5 16t15 15t15 19t6.5 27v331h-34q-7 0 -12 3t-8.5 8.5t-3.5 15.5q0 11 3.5 16.5t8.5 8.5t12 3h34v36
q0 52 18.5 88.5t48.5 60t69 34.5t79 11q43 0 78.5 -7.5t61.5 -20.5l72 27q7 2 12 1q5 -2 8.5 -7t3.5 -17v-592z" />
    <glyph glyph-name=".notdef" horiz-adv-x="781" 
d="M34 654q0 10 3.5 18t10 14.5t14.5 10t18 3.5h624q9 0 17.5 -3.5t15 -10t10 -14.5t3.5 -18v-112q0 -9 -3.5 -17.5t-10 -15t-15 -10t-17.5 -3.5h-149q-5 0 -8.5 -3t-3.5 -9v-438q0 -9 -3.5 -17.5t-10 -15t-15 -10t-17.5 -3.5h-15q-6 0 -11.5 5t-5.5 12t5.5 12t11.5 5h15
q12 0 12 12v438q0 20 13.5 33t32.5 13h149q12 0 12 12v112q0 12 -12 12h-624q-12 0 -12 -12v-112q0 -5 3 -8.5t9 -3.5h149q20 0 33 -13t13 -33v-40q0 -7 -5 -12t-12 -5t-12 5t-5 12v40q0 12 -12 12h-149q-10 0 -18 3.5t-14.5 10t-10 15t-3.5 17.5v112zM360 523l4 3l53 -1
l2 -1l1 -3q0 -10 -9 -10h-35l-1 -2v-22l-3 -3v0h-1v0v0h-1h-1h-6l-3 4v35zM363 459l-3 3v0v1v0v0v0v8l2 2q1 1 16 1q2 1 11 4t25 12q2 1 3 1q2 0 2 -5v-6q0 -1 -1 -1q0 -1 -0.5 -1t-0.5 -1l-20 -10q7 -4 12 -6.5t8 -4.5q1 -1 1.5 -2.5t1.5 -2.5v-2q0 -1 -1 -5q0 -1 -2 -2h-1
v0v0v0h-1v0q-2 0 -3 1t-3 1l-1 1q-1 1 -3 1l-3 2q-9 4 -14 7q-8 4 -10 4h-15zM359 414q0 29 31 30q14 0 22.5 -8t8.5 -22q0 -28 -31 -30q-14 0 -22.5 8t-8.5 22zM375 414q0 -14 15 -15q7 0 11.5 4.5t4.5 10.5q0 7 -4.5 11t-11.5 4q-14 0 -15 -15zM241 370q0 6 5 11.5t12 5.5
t12 -5t5 -12v-324q0 -5 3 -8.5t9 -3.5h121q7 0 12 -5t5 -12t-5 -12t-12 -5h-121q-10 0 -18 3.5t-14.5 10t-10 15t-3.5 17.5v324zM360 338q0 2 1 3v1q1 2 2 3q3 1 9 5t16 11l1 3l-26 1l-3 4v9l2 1h4h2h1h1h1h2h1h2h3h1h19q13 0 18 -1q2 0 3 -3v0v0v-1v0v0v0v-1q0 -2 -1 -4v-2
q0 -2 -2 -2v-1q-11 -10 -18 -14t-8 -5l2 -1h24l3 -3v0v0v-1v0v0v0v-8l-3 -3l-54 1l-3 3v5zM359 307v5q0 1 0.5 1.5t0.5 1.5l1 4q1 5 5 5h2l5 -1q2 0 2 -3v-2l-1 -10l1 -8l3 -2q3 0 5 8q2 7 6.5 12.5t12.5 5.5q10 0 14.5 -6.5t4.5 -15.5q0 -11 -4 -15q0 -1 -4 -1l-1 1v0h-1v0
v0v0v0h-1l-2 1q-1 0 -2 1t-1 3l1 10l-1 6l-3 1q-2 0 -4 -8t-6 -13t-13 -5t-14.5 7t-5.5 17zM362 247q-1 1 -1 1.5t-1 0.5v0v1v0v0v0v9l2 2h42l2 3v12l2 2q1 1 3 1l8 -2l1 -2v-37q0 -5 -2 -7t-7 -2h-1q-4 0 -4 3q-1 5 -1 13l-2 1l-38 1v0v0h-1v0v0h-1v0v0v0v0v0h-1v0z
M360 204l2 2h16q2 0 11 4t26 12q1 1 2 1q3 0 3 -4v-4v0v0v-1v0v0v-1v0v-1l-3 -3l-20 -11l19 -10q4 -2 4 -7v-9l-2 -1l-37 19l-18 1l-3 4v9zM363 153l-3 2v0v1v0v0v0v9l2 2h55l2 -1q1 -2 1 -20q0 -9 -5.5 -15.5t-15.5 -6.5t-15.5 6.5t-5.5 16.5v4l-3 2h-12zM393 146
q0 -6 6 -8q7 0 7 8q0 5 -1 6t-6 1q-6 0 -6 -3v-4zM360 113v0v1v0v1v0v1l2 2v0q2 0 9 0.5t19 0.5h2h1v0h2h1h1h1h1h1h6v0h2q7 0 9 -1q2 0 3 -1v0v0v-1v0v-1v0v0v-32l-3 -3h-10l-1 2v20l-2 2h-5l-2 -2v-20l-2 -2l-5 1q-7 1 -7 5v1v0v0v1v0v1v0v5v0v1v1v1v1v5l-3 1h-4l-1 -2
v-19l-3 -3h-1v0v0v0h-8l-3 3v30z" />
    <glyph glyph-name=".null" horiz-adv-x="0" 
 />
    <glyph glyph-name="nonmarkingreturn" horiz-adv-x="333" 
 />
    <glyph glyph-name="space" unicode=" " horiz-adv-x="200" 
 />
    <glyph glyph-name="exclam" unicode="!" horiz-adv-x="204" 
d="M176 632q0 -14 -3 -47.5t-8 -76.5t-11 -90t-11.5 -89.5t-9.5 -74.5t-5 -44q-1 -9 -6 -15t-17 -6q-13 0 -18.5 6t-6.5 15q-1 12 -5 44t-9.5 74t-11 89.5t-10.5 90.5t-8 76.5t-3 47.5q0 12 4 25.5t12.5 24t22 17.5t33.5 7t33.5 -7t22 -17.5t12 -24t3.5 -25.5zM31 58
q0 32 20.5 53t51.5 21t52 -21t21 -53q0 -31 -21 -51.5t-52 -20.5t-51.5 20.5t-20.5 51.5z" />
    <glyph glyph-name="quotedbl" unicode="&#x22;" horiz-adv-x="319" 
d="M29 629q-4 37 13 54.5t41 17.5q23 0 40 -17.5t13 -54.5q-10 -103 -23 -147.5t-30 -44.5t-30.5 44.5t-23.5 147.5zM182 629q-3 37 14 54.5t40 17.5t40.5 -17.5t13.5 -54.5q-11 -103 -24 -147.5t-30 -44.5t-30.5 44.5t-23.5 147.5z" />
    <glyph glyph-name="numbersign" unicode="#" horiz-adv-x="559" 
d="M248 483l-26 -103h93l25 103h-92zM428 554h103q3 -1 5 -4q2 -4 2 -11t-3 -21q-3 -13 -6.5 -20t-6.5 -11q-4 -3 -7 -4h-104l-25 -103h103q3 -1 5 -4q2 -4 2 -11t-4 -21q-3 -13 -6.5 -20t-6.5 -11q-4 -3 -7 -4h-103l-31 -124q-1 -3 -6 -6q-4 -2 -11.5 -4t-21.5 -2
q-13 0 -19.5 2t-9.5 4q-3 3 -3 6l31 124h-93l-31 -124q-1 -3 -5 -6q-4 -2 -11.5 -4t-21.5 -2q-13 0 -20 2t-10 4q-3 3 -3 6l31 124h-104q-3 1 -5 4q-2 4 -2 11t3 20q4 14 7.5 21t6.5 11q4 3 7 4h104l26 103h-104q-4 1 -5 4q-2 4 -2 11t3 20q3 14 6.5 21t6.5 11q4 3 7 4h104
l31 123q1 3 6 6q4 2 11.5 4t20.5 2q14 0 20.5 -2t9.5 -4q3 -3 3 -6l-31 -123h93l31 123q1 3 5 6q4 2 11.5 4t20.5 2q14 0 21 -2t10 -4q3 -3 3 -6z" />
    <glyph glyph-name="dollar" unicode="$" horiz-adv-x="544" 
d="M388 131q0 36 -23.5 62t-58.5 49v-193q33 7 57.5 27t24.5 55zM256 649q-35 -5 -59.5 -25t-24.5 -57q0 -35 24 -61t60 -49v192zM256 271q-38 21 -77.5 43t-71.5 50.5t-52.5 66t-20.5 88.5q0 42 16.5 76.5t46 59t70 38.5t89.5 16v41q0 9 8 13.5t17 4.5q10 0 17.5 -4.5
t7.5 -13.5v-42q38 -3 73 -12t61.5 -22t42 -29t15.5 -33l1 -97q-1 -7 -3 -12t-7 -8.5t-13 -3.5q-20 0 -30.5 19.5t-22.5 48.5q-16 38 -47.5 61.5t-69.5 29.5v-222q38 -21 76.5 -43.5t70.5 -51t52 -66t20 -88.5q0 -42 -16.5 -76t-45.5 -58.5t-69 -38.5t-88 -17v-68
q0 -10 -7.5 -15t-17.5 -5q-9 0 -17 5t-8 15v68q-42 3 -82 13t-71.5 25.5t-50.5 35t-19 41.5v99q0 6 3 11t8 8t15 3q20 0 28.5 -17.5t14.5 -36.5q22 -57 65.5 -88t88.5 -36v224z" />
    <glyph glyph-name="percent" unicode="%" horiz-adv-x="774" 
d="M551 679l-276 -679q-1 -1 -2 -3q-4 -2 -10 -2q-9 0 -22 5q-11 5 -16 9t-7 8q-2 3 -1 7l276 679l2 2q4 2 9 2q4 0 9 -1t13 -4q11 -4 16 -8t7 -8q3 -3 2 -7zM327 511q0 -33 -8 -68t-25.5 -63t-46 -46t-69.5 -18t-69.5 18t-46.5 46t-26 63t-8 68t8 68t26 63t46.5 46t69.5 18
t69.5 -18t46 -46t25.5 -63t8 -68zM115 511q0 -69 13.5 -111t49.5 -42q35 0 48 42t13 111t-13 111t-48 42q-36 0 -49.5 -42t-13.5 -111zM743 189q0 -34 -8 -68.5t-26 -63t-46.5 -46.5t-69.5 -18t-69.5 18t-46.5 46.5t-26 63t-8 68.5q0 33 8 67.5t26 62.5t46.5 46t69.5 18
t69.5 -18t46.5 -46t26 -62.5t8 -67.5zM530 189q0 -69 13.5 -111.5t49.5 -42.5q35 0 48.5 42.5t13.5 111.5q0 68 -13.5 110t-48.5 42q-36 0 -49.5 -42t-13.5 -110z" />
    <glyph glyph-name="ampersand" unicode="&#x26;" horiz-adv-x="721" 
d="M440 104q-74 75 -126 132.5t-87 102.5q-29 -23 -47 -55.5t-18 -77.5q0 -37 13 -64.5t34 -46t49 -28t58 -9.5q67 0 124 46zM301 439q16 9 31 20.5t26.5 27.5t18.5 36t7 46q0 23 -6.5 39t-16.5 25.5t-21.5 13.5t-22.5 4q-9 0 -20 -4t-20.5 -14.5t-16 -27.5t-6.5 -43
q0 -24 8.5 -51.5t38.5 -71.5zM188 390q-19 28 -31.5 51t-19.5 42.5t-9.5 36t-2.5 31.5q0 38 16 66.5t42.5 47.5t60.5 29t71 10t68 -9t54 -26.5t36 -42.5t13 -58q0 -36 -14.5 -63.5t-36 -49t-48 -37.5t-50.5 -27q29 -36 71 -83t102 -109q17 42 17 91q0 23 -7 34.5t-16 18
t-16 11.5t-7 15q0 8 6 12l6 2h140l6 -2q6 -4 6 -12q0 -7 -7 -13t-16 -13t-16 -16.5t-7 -23.5q0 -43 -10 -82t-29 -73q19 -20 38.5 -40t41.5 -41q14 -14 25.5 -20.5t20.5 -10.5t14 -7.5t5 -12.5q0 -10 -10 -14q-4 -2 -10 -2h-134q-3 0 -6 1q-5 2 -12 10q-13 12 -24.5 24
t-22.5 23q-42 -34 -93 -52.5t-109 -18.5q-66 0 -115 14.5t-82 40.5t-49.5 61.5t-16.5 77.5q0 35 13.5 65.5t36.5 57t53 48t64 38.5z" />
    <glyph glyph-name="quotesingle" unicode="'" horiz-adv-x="162" 
d="M29 629q-4 37 13 54.5t41 17.5q23 0 40 -17.5t13 -54.5q-10 -103 -23 -147.5t-30 -44.5t-30.5 44.5t-23.5 147.5z" />
    <glyph glyph-name="parenleft" unicode="(" horiz-adv-x="350" 
d="M321 -101q13 -9 15 -19.5t-3 -18t-13.5 -11.5t-16.5 0q-92 43 -153.5 113t-92.5 154.5t-31.5 175.5t30 175.5t92.5 155.5t155 114q6 2 9 2q8 0 14.5 -4.5t9.5 -12t0 -16.5t-15 -18q-48 -34 -80.5 -96.5t-49 -138.5t-16.5 -159t16 -159.5t48.5 -139t81.5 -97.5z" />
    <glyph glyph-name="parenright" unicode=")" horiz-adv-x="350" 
d="M34 -101q49 35 81.5 97.5t48.5 139t16 159.5t-16.5 159t-49 138.5t-80.5 96.5q-12 9 -15.5 18t-0.5 16.5t10 12t15 4.5q3 0 9 -2q93 -43 155 -114t92.5 -155.5t30 -175.5t-31.5 -175.5t-92.5 -154.5t-153.5 -113q-8 -4 -17 0t-13.5 11.5t-2.5 18t15 19.5z" />
    <glyph glyph-name="asterisk" unicode="*" horiz-adv-x="356" 
d="M228 660q0 -10 -5 -21.5t-11 -24t-11.5 -25t-7.5 -26.5q-1 -8 1.5 -10.5t10.5 -0.5q12 6 21.5 14t19 16.5t20 15t23.5 9.5q16 3 31.5 -7t20.5 -30q4 -20 -6 -35t-27 -19q-25 -4 -49 3.5t-50 7.5q-12 0 -3 -11q11 -9 24.5 -16.5t26.5 -15t24 -14.5t17 -15
q12 -16 9.5 -33.5t-17.5 -30.5q-13 -9 -27 -9q-22 0 -36 20q-11 15 -19.5 45t-19.5 55q-5 8 -10 8.5t-9 -8.5q-12 -25 -20 -55t-19 -45q-13 -20 -36 -20q-13 0 -27 9q-15 13 -17.5 30.5t10.5 33.5q6 8 16.5 15t23.5 14.5t26.5 15t24.5 16.5q11 11 -3 11q-22 0 -42.5 -6
t-41.5 -6q-10 0 -15 1q-17 4 -27 19t-6 35q6 20 21 30t31 7q13 -3 23.5 -9.5t20 -15t19 -16.5t21.5 -14q8 -2 10.5 0.5t1.5 10.5q-1 14 -6.5 26.5t-11.5 25t-11 24t-5 21.5q0 20 13.5 33t35.5 13q21 0 35 -13t14 -33z" />
    <glyph glyph-name="plus" unicode="+" 
d="M219 493q17 0 26 -2t13 -4q5 -3 6 -7v-140h140q4 -1 7 -5q2 -5 4 -13.5t2 -25.5q0 -16 -2 -24t-4 -13q-3 -4 -7 -5h-140v-141q-1 -4 -6 -6q-4 -3 -13 -5t-26 -2q-16 0 -24 2t-13 5q-4 2 -5 6v141h-139q-4 1 -6 5q-3 5 -5 13t-2 24q0 17 2 25.5t5 13.5q2 4 6 5h139v140
q1 4 5 7q5 2 13 4t24 2z" />
    <glyph glyph-name="comma" unicode="," horiz-adv-x="193" 
d="M11 -115q0 12 18 24q16 10 30 26.5t14 38.5q0 13 -6.5 21.5t-14.5 17.5t-14.5 21t-6.5 32q0 29 20.5 47.5t50.5 18.5q31 0 51.5 -20.5t20.5 -61.5q0 -42 -19.5 -76t-44 -58t-48.5 -37t-33 -13q-8 0 -13 6t-5 13z" />
    <glyph glyph-name="hyphen" unicode="-" horiz-adv-x="344" 
d="M51 246q-4 1 -6 5q-3 5 -5 13t-2 24q0 17 2 26t5 13q2 5 6 6h242q4 -1 7 -6q2 -4 4 -13t2 -26q0 -16 -2 -24t-4 -13q-3 -4 -7 -5h-242z" />
    <glyph glyph-name="period" unicode="." horiz-adv-x="200" 
d="M30 58q0 32 20.5 53t51.5 21q32 0 53 -21t21 -53q0 -31 -21 -51.5t-53 -20.5q-31 0 -51.5 20.5t-20.5 51.5z" />
    <glyph glyph-name="slash" unicode="/" horiz-adv-x="409" 
d="M372 719q11 -4 16 -8t7 -7q3 -4 2 -7l-324 -810q-1 -1 -2 -3q-4 -2 -10 -2q-9 0 -22 5q-11 5 -16 9t-7 7q-2 4 -1 8l324 809q1 1 2 3q4 2 9 2q7 0 22 -6z" />
    <glyph glyph-name="zero" unicode="0" horiz-adv-x="658" 
d="M192 348q0 -65 8 -120.5t24.5 -96t43 -63.5t62.5 -23t62 23t42.5 63.5t24 96t7.5 120.5q0 64 -7.5 119t-24 95t-42.5 63t-62 23t-62.5 -23t-43 -63t-24.5 -95t-8 -119zM627 348q0 -62 -16 -126t-51.5 -116.5t-92 -85.5t-137.5 -33t-137.5 33t-92 85.5t-51.5 116.5
t-16 126q0 61 16 124.5t51.5 115.5t92 85t137.5 33t137.5 -33t92 -85t51.5 -115.5t16 -124.5z" />
    <glyph glyph-name="one" unicode="1" horiz-adv-x="302" 
d="M232 96q0 -18 7.5 -29t17 -19t17 -15.5t7.5 -16.5q0 -10 -6 -14q-3 -2 -6 -2h-218q-3 0 -6 2q-6 4 -6 14q0 9 7.5 16.5t17 15.5t17 19t7.5 29v448q0 20 -10 27.5t-22 11.5t-22 8t-10 15q0 13 11 20q4 4 10 7l158 68q2 1 4 1q2 1 8 1t11.5 -3.5t5.5 -16.5v-587z" />
    <glyph glyph-name="two" unicode="2" horiz-adv-x="569" 
d="M536 521q0 -53 -26 -97.5t-65.5 -82.5t-85.5 -70t-85.5 -59.5t-65.5 -51.5t-26 -46q0 -7 5 -10t10 -3h162q41 0 63.5 12t37 27t24.5 27t25 12q10 0 14 -5t6 -10q2 -7 2 -16l-12 -119q-2 -9 -6 -15q-3 -6 -10 -11t-18 -5q-13 0 -21.5 1t-31.5 1h-350q-16 0 -26.5 11
t-10.5 38q0 60 24.5 107.5t61.5 87.5t80.5 75.5t80.5 72t61.5 75.5t24.5 86q0 25 -9 43.5t-24 30.5t-35 18t-42 6q-45 0 -77.5 -24t-46.5 -68q-9 -29 -17 -48.5t-28 -19.5q-8 0 -13 3.5t-8 8.5q-4 5 -5 12l-10 90q-2 21 17 40t51 33.5t74 22.5t85 8q52 0 97 -13t78 -37.5
t52 -59t19 -78.5z" />
    <glyph glyph-name="three" unicode="3" horiz-adv-x="568" 
d="M540 189q0 -46 -20 -83t-55 -62t-84 -38.5t-107 -13.5q-48 0 -92 10t-77 26t-51.5 36.5t-15.5 41.5l10 90q1 7 5 12q3 5 8 8.5t13 3.5q20 0 28 -19.5t17 -48.5q7 -22 22 -41t34.5 -32.5t42 -21t44.5 -7.5t44 7.5t40 23.5t29 41.5t11 60.5t-12.5 62.5t-34.5 47t-50.5 29.5
t-61.5 10h-6q-14 0 -21 8.5t-7 21.5q0 12 7 21t21 9h5q30 0 55 10.5t43.5 29t29 45.5t10.5 60q0 28 -9 49.5t-24 35.5t-34 21.5t-40 7.5q-45 0 -75.5 -24t-43.5 -68q-9 -29 -17.5 -47.5t-28.5 -18.5q-8 0 -13 3.5t-7 8.5q-4 5 -5 12l-10 92q-3 20 15.5 38t50 31.5t72 22
t83.5 8.5q51 0 95.5 -13t77.5 -37t51.5 -57t18.5 -73q0 -25 -8.5 -50.5t-25 -48.5t-41.5 -41.5t-57 -29.5q35 -7 62.5 -23.5t47.5 -39.5t30.5 -50.5t10.5 -56.5z" />
    <glyph glyph-name="four" unicode="4" horiz-adv-x="606" 
d="M99 255h253v328zM495 96q0 -18 8 -29t17 -19t17 -15.5t8 -16.5q0 -10 -6 -14q-3 -2 -6 -2h-218q-3 0 -6 2q-6 4 -6 14q0 9 7.5 16.5t17 15.5t17 19t7.5 29v99h-300q-9 -1 -16 5q-6 5 -10.5 17.5t-4.5 36.5l327 427q15 19 38 19h80q8 0 15 -4q5 -2 9.5 -8t4.5 -17v-416h76
q15 0 19 -10q3 -5 3 -11v-17q0 -6 -3 -11q-2 -4 -6.5 -7.5t-12.5 -3.5h-76v-99z" />
    <glyph glyph-name="five" unicode="5" horiz-adv-x="571" 
d="M270 -13q-38 0 -77.5 6.5t-72 20t-53 33t-20.5 45.5v86q0 6 3 12q2 4 6.5 7.5t12.5 3.5q20 0 28 -17t17 -40q7 -19 20.5 -37t31.5 -32t39.5 -22t44.5 -8q45 0 75 25t45.5 63t16.5 82t-12.5 82t-41.5 63t-71 25q-37 0 -61 -9t-44 -18q-20 -10 -26.5 -13t-15.5 -3h-25
q-5 0 -8 3q-8 4 -8 18l16 307q0 8 3.5 12t7.5 6q5 2 11 2h375q13 0 18 -11q2 -5 2 -11v-83q0 -6 -2 -11q-2 -4 -6 -7.5t-12 -3.5h-333l-7 -155q25 14 61.5 27.5t81.5 13.5q85 0 141 -34t84 -85.5t27 -111.5t-31.5 -111.5t-90.5 -85.5t-150 -34z" />
    <glyph glyph-name="six" unicode="6" horiz-adv-x="597" 
d="M294 373q-23 0 -54.5 -9.5t-58.5 -28.5q0 -64 8 -117.5t24 -92t41.5 -59.5t61.5 -21q24 0 44 12.5t34.5 34t22.5 50.5t8 63t-8 64t-24.5 53t-41 37t-57.5 14zM545 530q0 -6 -2 -11q-2 -4 -5.5 -7.5t-11.5 -3.5q-18 0 -29 19t-27 48q-20 40 -55 57t-73 17q-35 0 -63 -19.5
t-48 -53.5t-32 -80t-16 -99q35 20 75.5 31t78.5 11q58 0 102.5 -17.5t75 -47.5t46.5 -71t16 -88q0 -52 -19.5 -94.5t-54.5 -72t-82.5 -45.5t-103.5 -16q-81 0 -137 29.5t-91.5 78t-51 111t-15.5 129.5q0 66 17 132.5t54.5 119.5t98 86.5t148.5 33.5q38 0 74.5 -6t65.5 -17
t47 -26.5t18 -34.5v-93z" />
    <glyph glyph-name="seven" unicode="7" horiz-adv-x="518" 
d="M60 692q8 0 13.5 -0.5t12.5 -1t15.5 -1t22.5 -0.5l354 1q7 0 13 -3q5 -3 8.5 -8t3.5 -16v-32q0 -12 -14.5 -31.5t-31.5 -44.5q-43 -60 -79 -123t-62 -128.5t-41.5 -133.5t-17.5 -139q0 -11 -4.5 -17.5t-9.5 -9.5q-7 -4 -15 -4h-90q-8 0 -15 4q-5 2 -10 7.5t-5 16.5
q-3 61 17.5 126t59 132.5t91.5 137t116 139.5h-223q-36 0 -54.5 -9t-29.5 -20t-19.5 -20t-23.5 -9q-12 0 -16 10q-2 4 -2 10l9 143q2 7 5 12t8.5 8.5t13.5 3.5z" />
    <glyph glyph-name="eight" unicode="8" horiz-adv-x="575" 
d="M258 304q-43 -20 -74 -54.5t-31 -85.5q0 -26 10 -48t27.5 -37.5t40 -24.5t47.5 -9q23 0 45 8t38.5 22t26.5 34.5t10 45.5q0 30 -12 52t-31.5 39.5t-45 31.5t-51.5 26zM198 565q0 -24 10 -43t26.5 -34t38.5 -28t45 -26q37 20 58 52t21 66q0 25 -9 43.5t-23 30.5t-32 17.5
t-35 5.5t-35 -5t-32.5 -15t-23.5 -26t-9 -38zM524 535q0 -106 -113 -169q27 -15 52.5 -33.5t45.5 -42t32.5 -52t12.5 -63.5q0 -50 -25.5 -86t-64.5 -59t-85.5 -33.5t-88.5 -10.5q-50 0 -97.5 12t-85 36t-60 58.5t-22.5 79.5q0 32 11 59t30 49.5t44.5 41t55.5 32.5
q-25 17 -47 34.5t-37.5 39t-24.5 47t-9 58.5q0 39 17 71.5t48 55.5t75.5 36t99.5 13q56 0 100 -14t74 -37.5t46 -55t16 -67.5z" />
    <glyph glyph-name="nine" unicode="9" horiz-adv-x="597" 
d="M305 321q23 0 54 9.5t59 28.5q0 64 -8 117.5t-24.5 92t-41.5 59.5t-61 21q-24 0 -44.5 -12.5t-35 -34t-22.5 -50.5t-8 -63t8 -64t24.5 -53t41.5 -37t58 -14zM22 479q0 53 19.5 95t54 71.5t82.5 45.5t104 16q81 0 137 -29.5t91 -78t51 -111t16 -129.5q0 -66 -17 -132.5
t-54.5 -119.5t-98.5 -86.5t-149 -33.5q-37 0 -73.5 6t-66 17t-47.5 26.5t-18 34.5v93q0 6 3 11q4 11 17 11q18 0 29 -19t27 -48q20 -40 55 -57t73 -17q35 0 62.5 19.5t48 53.5t32.5 80t16 99q-35 -20 -75.5 -31t-78.5 -11q-58 0 -103 17.5t-75.5 47.5t-46 71t-15.5 88z" />
    <glyph glyph-name="colon" unicode=":" horiz-adv-x="200" 
d="M30 58q0 32 20.5 53t51.5 21q32 0 53 -21t21 -53q0 -31 -21 -51.5t-53 -20.5q-31 0 -51.5 20.5t-20.5 51.5zM30 398q0 32 20.5 53t51.5 21q32 0 53 -21t21 -53q0 -31 -21 -51.5t-53 -20.5q-31 0 -51.5 20.5t-20.5 51.5z" />
    <glyph glyph-name="semicolon" unicode=";" horiz-adv-x="200" 
d="M30 398q0 32 20.5 53t51.5 21q32 0 53 -21t21 -53q0 -31 -21 -51.5t-53 -20.5q-31 0 -51.5 20.5t-20.5 51.5zM11 -115q0 12 18 24q16 10 30 26.5t14 38.5q0 13 -6.5 21.5t-14.5 17.5t-14.5 21t-6.5 32q0 29 20.5 47.5t50.5 18.5q31 0 51.5 -20.5t20.5 -61.5
q0 -42 -19.5 -76t-44 -58t-48.5 -37t-33 -13q-8 0 -13 6t-5 13z" />
    <glyph glyph-name="less" unicode="&#x3c;" 
d="M358 468q5 1 9 1q10 -2 17 -15q7 -15 1 -24q-2 -5 -6 -8l-205 -149l203 -148q4 -4 7 -9q2 -4 3 -10.5t-3 -14.5q-3 -7 -7.5 -10t-8.5 -4q-4 0 -9 1l-297 171q-5 3 -7.5 9.5t-2.5 14.5q0 18 10 25z" />
    <glyph glyph-name="equal" unicode="=" 
d="M393 261q3 -1 6 -4q2 -4 4 -11t2 -21q0 -13 -2 -20t-4 -11q-3 -3 -6 -4h-342q-3 1 -6 4q-2 4 -4 11t-2 20q0 14 2 21t4 11q3 3 6 4h342zM393 405q3 -1 6 -4q2 -4 4 -11t2 -21q0 -13 -2 -20t-4 -11q-3 -3 -6 -4h-342q-3 1 -6 4q-2 4 -4 11t-2 20q0 14 2 21t4 11q3 3 6 4
h342z" />
    <glyph glyph-name="greater" unicode="&#x3e;" 
d="M384 298q10 -7 10 -25q0 -8 -2.5 -14.5t-7.5 -9.5l-297 -171q-5 -1 -9 -1q-11 2 -16 14q-6 16 0 25q2 5 6 9l203 148l-204 149q-4 3 -6 8q-6 9 1 24q7 13 16 15q5 0 10 -1z" />
    <glyph glyph-name="question" unicode="?" horiz-adv-x="479" 
d="M230 653q-44 0 -62.5 -24.5t-15.5 -56.5q4 -42 -14.5 -65t-50.5 -23q-30 0 -46.5 21.5t-16.5 49.5q0 31 13.5 59t41 49t69 33.5t96.5 12.5q49 0 88.5 -11.5t67.5 -32t43 -49t15 -62.5q0 -40 -14 -70.5t-35 -54.5t-45.5 -43.5t-45.5 -37.5q-19 -16 -35.5 -29.5t-28 -27.5
t-17.5 -32t-5 -43q2 -14 -5.5 -20t-17.5 -6q-9 0 -16.5 5t-9.5 16q-5 46 -3.5 75.5t8 50t18.5 35t27 29.5q36 36 59 71.5t23 86.5q0 24 -7 41.5t-19 29.5t-27.5 17.5t-31.5 5.5zM138 58q0 32 20.5 53t51.5 21t52 -21t21 -53q0 -31 -21 -51.5t-52 -20.5t-51.5 20.5
t-20.5 51.5z" />
    <glyph glyph-name="at" unicode="@" horiz-adv-x="915" 
d="M530 290q-1 58 -26.5 91t-65.5 33q-45 0 -74 -48t-29 -130q0 -83 26.5 -131t77.5 -48q41 0 65.5 34.5t25.5 85.5v113zM697 -4q-40 0 -67.5 16.5t-42.5 44.5q-38 -36 -83 -53t-90 -17q-60 0 -102.5 22t-69 57.5t-39 80t-12.5 89.5q0 44 14 88.5t43 79.5t72.5 57t101.5 22
q48 0 83 -14.5t67 -43.5q17 15 28 26t18.5 17.5t13.5 9.5t12 3t12 -3q4 -2 7.5 -6.5t3.5 -12.5v-319q0 -37 12 -61.5t40 -24.5q25 0 42.5 17t28 44t15 59.5t4.5 63.5q0 85 -25 158.5t-70.5 127.5t-110 84.5t-143.5 30.5t-143.5 -30.5t-110.5 -84.5t-71.5 -127.5
t-25.5 -158.5q0 -87 25.5 -161t71.5 -128t110.5 -85t143.5 -31q55 0 103 10t87 31q3 2 9 2q7 0 11.5 -5.5t5 -13t-4 -15.5t-15.5 -14q-42 -20 -90.5 -31t-105.5 -11q-114 0 -194.5 41.5t-131.5 107t-75 145.5t-24 158q0 76 24 155.5t75 144.5t131.5 106.5t194.5 41.5
t194.5 -41.5t132 -106.5t75 -144.5t23.5 -155.5q0 -46 -12 -89.5t-35.5 -77.5t-58.5 -54.5t-82 -20.5z" />
    <glyph glyph-name="A" unicode="A" horiz-adv-x="686" 
d="M303 529l-75 -217h148zM400 242h-195l-41 -120q-9 -28 -2.5 -42.5t18 -23.5t22.5 -16.5t11 -21.5q0 -7 -2.5 -10.5t-5.5 -5.5q-4 -2 -9 -2h-164q-6 0 -10 2t-7 5.5t-3 10.5q0 10 8.5 17.5t20 16t23 19.5t17.5 29q56 165 92 271.5t58 170.5t32 93.5t13 38.5q4 10 10 14
q4 2 7 2h101q3 0 7 -2l5 -5t5 -9l5.5 -16.5l11 -33t21 -60.5t34.5 -100t51 -151t72 -213q6 -18 17.5 -29t23 -19.5t20 -16t8.5 -17.5q0 -7 -3 -10.5t-7 -5.5t-10 -2h-237q-4 0 -8 2q-3 2 -5.5 5.5t-2.5 10.5q0 11 10 17.5t20.5 14t16.5 20.5t-2 37z" />
    <glyph glyph-name="B" unicode="B" horiz-adv-x="646" 
d="M242 89q0 -19 10 -27.5t21 -8.5h71q30 0 53 10.5t38 28.5t22.5 42t7.5 51q1 25 -6 50.5t-23 46t-41.5 33.5t-61.5 13h-72q-16 0 -19 -16v-223zM273 637q-11 0 -21 -8t-10 -25v-207q3 -15 17 -17h47q32 0 56 10.5t41 28.5t26 42t9 51q0 26 -8 48.5t-23.5 39.5t-38.5 27
t-54 10h-41zM622 178q0 -35 -14 -67.5t-42 -57t-69.5 -39t-96.5 -14.5h-349q-3 0 -6 2q-2 2 -4 5.5t-2 10.5q0 10 7 17.5t16 16t16 19.5t7 29v490q0 18 -7 29t-16 19.5t-16 16t-7 17.5q0 12 6 16q3 2 6 2h319q56 0 97.5 -14t70 -38t43 -56t14.5 -67q0 -50 -30 -94.5
t-93 -67.5q38 -10 66.5 -28.5t47.5 -42t28 -50.5t8 -54z" />
    <glyph glyph-name="C" unicode="C" horiz-adv-x="687" 
d="M411 46q19 0 41 4.5t44 15t42 28.5t35 45q17 29 27.5 48t28.5 19q13 0 18 -11q2 -5 2 -11v-99q0 -19 -21.5 -36.5t-55.5 -31t-76 -21.5t-84 -8q-91 0 -161.5 29.5t-119 79.5t-74 115.5t-25.5 136.5t25.5 136t74 115t119 79.5t161.5 29.5q42 0 84 -8t76 -21.5t55.5 -31
t21.5 -36.5v-98q0 -6 -2 -11t-6 -8.5t-12 -3.5q-9 0 -16 5t-13 14t-12.5 21.5t-14.5 27.5q-15 27 -35 45t-42 28.5t-44.5 14.5t-42.5 4q-48 0 -87.5 -21t-68.5 -60t-45 -95t-16 -126t16 -126t45 -95.5t69.5 -60.5t88.5 -21z" />
    <glyph glyph-name="D" unicode="D" horiz-adv-x="712" 
d="M234 110q0 -20 13.5 -38.5t40.5 -18.5h25q47 0 87 20t69 57.5t45 92.5t16 125q0 69 -16 123t-45 90.5t-69 56t-87 19.5h-44q-17 0 -26 -12t-9 -30v-485zM43 0q-3 0 -6 2q-6 4 -6 14q0 9 7 16t16 15t16 19t7 27v497q0 18 -7 29t-16 19.5t-16 16t-7 17.5q0 12 6 16q3 2 6 2
h272q101 0 172.5 -30.5t116.5 -79.5t66 -110t21 -122q0 -62 -21 -124t-66 -112t-116.5 -81t-172.5 -31h-272z" />
    <glyph glyph-name="E" unicode="E" horiz-adv-x="585" 
d="M234 331v-196q0 -32 20.5 -53.5t62.5 -21.5h74q47 0 70 14.5t36 32t22 32t27 14.5q8 0 11 -3.5t5 -8.5t1 -12l-15 -113q-1 -5 -4 -9q-2 -3 -6.5 -6t-11.5 -3q-6 0 -11 0.5t-10 0.5t-12.5 0.5t-18.5 0.5h-431q-3 0 -6 2q-6 4 -6 14q0 9 7 16t16 15t16 19t7 27v497
q0 18 -7 29t-16 19.5t-16 16t-7 17.5q0 12 6 16q3 2 6 2h428q11 0 18.5 0.5t12.5 0.5t10 0.5t11 0.5q12 0 17 -9q2 -4 3 -9l5 -115q0 -5 -3 -9q-2 -4 -7 -7t-15 -3q-18 0 -27.5 14t-20.5 31t-29 31t-53 14h-114q-21 0 -33 -12.5t-12 -31.5v-190h163q16 0 27 9.5t19.5 20.5
t15.5 20.5t16 9.5q10 0 13 -7q2 -3 2 -7v-157q0 -4 -2 -7l-4.5 -4.5t-8.5 -2.5q-9 0 -16 9.5t-15.5 20.5t-19.5 20.5t-27 9.5h-163z" />
    <glyph glyph-name="F" unicode="F" horiz-adv-x="573" 
d="M234 331v-238q0 -16 7 -27t16 -19t16 -15t7 -16q0 -10 -6 -14q-3 -2 -6 -2h-225q-3 0 -6 2q-6 4 -6 14q0 9 7 16t16 15t16 19t7 27v497q0 18 -7 29t-16 19.5t-16 16t-7 17.5q0 12 6 16q3 2 6 2h428q11 0 18.5 0.5t12.5 0.5t10 0.5t11 0.5q12 0 17 -9q2 -4 3 -9l5 -115
q0 -5 -3 -9q-2 -4 -7 -7t-15 -3q-18 0 -27.5 14t-20.5 31t-29 31t-53 14h-114q-21 0 -33 -12.5t-12 -31.5v-190h163q16 0 27 9.5t19.5 20.5t15.5 20.5t16 9.5q10 0 13 -7q2 -3 2 -7v-157q0 -4 -2 -7l-4.5 -4.5t-8.5 -2.5q-9 0 -16 9.5t-15.5 20.5t-19.5 20.5t-27 9.5h-163z
" />
    <glyph glyph-name="G" unicode="G" horiz-adv-x="711" 
d="M645 84q0 -19 -24 -36.5t-61 -31t-81.5 -21.5t-86.5 -8q-91 0 -158.5 29.5t-112.5 79.5t-67 115.5t-22 136.5t25.5 136.5t74 115.5t119 79.5t161.5 29.5q42 0 84 -8t76 -21.5t55.5 -31t21.5 -36.5v-98q0 -6 -2 -11t-6 -8.5t-12 -3.5q-9 0 -16 5t-13 14t-12.5 21.5
t-14.5 27.5q-15 27 -35 45t-42.5 28.5t-46 14.5t-44.5 4q-46 0 -85.5 -21t-68 -60.5t-44.5 -95.5t-16 -126t15 -126.5t42 -96t64 -60.5t80 -21q53 0 74.5 24t21.5 68v84q0 27 -13.5 39t-29.5 19t-29.5 14t-13.5 24q0 11 11 15q4 2 10 2h256q3 0 6 -2q6 -4 6 -15
q0 -10 -7 -17.5t-16 -16.5t-16 -20t-7 -29v-149z" />
    <glyph glyph-name="H" unicode="H" horiz-adv-x="737" 
d="M660 93q0 -16 7 -27t16 -19t16 -15t7 -16q0 -10 -6 -14q-3 -2 -6 -2h-224q-3 0 -6 2q-6 4 -6 14q0 9 7 16t16 15t16 19t7 27v216h-270v-216q0 -16 7 -27t16 -19t16 -15t7 -16q0 -10 -6 -14q-3 -2 -6 -2h-225q-3 0 -6 2q-6 4 -6 14q0 9 7 16t16 15t16 19t7 27v497
q0 18 -7 29t-16 19.5t-16 16t-7 17.5q0 12 6 16q3 2 6 2h225q3 0 6 -2q6 -4 6 -16q0 -10 -7 -17.5t-16 -16t-16 -19.5t-7 -29v-210h270v210q0 18 -7 29t-16 19.5t-16 16t-7 17.5q0 12 6 16q3 2 6 2h224q3 0 6 -2q6 -4 6 -16q0 -10 -7 -17.5t-16 -16t-16 -19.5t-7 -29v-497z
" />
    <glyph glyph-name="I" unicode="I" horiz-adv-x="311" 
d="M234 93q0 -16 7 -27t16 -19t16 -15t7 -16q0 -10 -6 -14q-3 -2 -6 -2h-225q-3 0 -6 2q-6 4 -6 14q0 9 7 16t16 15t16 19t7 27v497q0 18 -7 29t-16 19.5t-16 16t-7 17.5q0 12 6 16q3 2 6 2h225q3 0 6 -2q6 -4 6 -16q0 -10 -7 -17.5t-16 -16t-16 -19.5t-7 -29v-497z" />
    <glyph glyph-name="J" unicode="J" horiz-adv-x="494" 
d="M174 38q20 0 35 6.5t26 17t18.5 24t12.5 27.5q11 32 11 74v403q0 18 -7 29t-16 19.5t-16 16t-7 17.5q0 12 6 16q3 2 6 2h225q3 0 6 -2q6 -4 6 -16q0 -10 -7 -17.5t-16 -16t-16 -19.5t-7 -29v-377q0 -106 -61.5 -167t-171.5 -61q-39 0 -72 9.5t-57.5 27.5t-38.5 44.5
t-14 60.5q0 28 10 52.5t27 42.5t39.5 28.5t47.5 10.5q32 0 48 -17.5t16 -38t-15 -38t-46 -17.5q-28 0 -41 -13.5t-14 -30.5q-1 -25 20 -46.5t63 -21.5z" />
    <glyph glyph-name="K" unicode="K" horiz-adv-x="680" 
d="M247 305l-13 -14v-198q0 -16 7 -27t16 -19t16 -15t7 -16q0 -10 -6 -14q-3 -2 -6 -2h-225q-3 0 -6 2q-6 4 -6 14q0 9 7 16t16 15t16 19t7 27v497q0 18 -7 29t-16 19.5t-16 16t-7 17.5q0 12 6 16q3 2 6 2h225q3 0 6 -2q6 -4 6 -16q0 -10 -7 -17.5t-16 -16t-16 -19.5t-7 -29
v-197l180 176q27 27 29.5 41.5t-5 24.5t-18 17.5t-10.5 19.5q0 8 3 11.5t7 5.5t10 2h187q4 0 8 -2l4.5 -4.5t2.5 -8.5q0 -10 -7 -15.5t-19.5 -11t-29 -15t-34.5 -27.5l-199 -201l240 -314q15 -21 29.5 -32t26 -18t18.5 -11.5t7 -12.5q0 -7 -3.5 -10.5t-8.5 -5.5t-12 -2h-139
q-8 0 -15 3q-6 2 -13.5 7.5t-13.5 15.5z" />
    <glyph glyph-name="L" unicode="L" horiz-adv-x="585" 
d="M43 0q-3 0 -6 2q-6 4 -6 14q0 9 7 16t16 15t16 19t7 27v497q0 18 -7 29t-16 19.5t-16 16t-7 17.5q0 12 6 16q3 2 6 2h225q3 0 6 -2q6 -4 6 -16q0 -10 -7 -17.5t-16 -16t-16 -19.5t-7 -29v-455q0 -32 18 -53t61 -21h63q33 0 54 9.5t34.5 23t22.5 30t17.5 30t18 23
t25.5 9.5q10 0 14 -5t6 -11q2 -7 1 -16l-21 -138q-1 -5 -4 -9q-2 -3 -6.5 -6t-11.5 -3q-6 0 -11 0.5t-10 0.5t-12.5 0.5t-18.5 0.5h-431z" />
    <glyph glyph-name="M" unicode="M" horiz-adv-x="848" 
d="M774 93q0 -16 7 -27t16 -19t16 -15t7 -16q0 -10 -6 -14q-3 -2 -6 -2h-224q-3 0 -6 2q-6 4 -6 14q0 9 7 16t16 15t16 19t7 27v369q-45 -120 -76.5 -201t-51 -133t-30 -77.5t-13.5 -34.5q-2 -6 -5 -9l-5 -5q-4 -2 -7 -2h-68q-4 0 -7 2q-8 4 -12 14q-2 6 -6 15t-12 28
t-21 50t-33 79.5t-48 117t-67 163.5v-376q0 -16 8 -27t18 -19t18 -15t8 -16q0 -10 -6 -14q-3 -2 -6 -2h-153q-3 0 -6 2q-6 4 -6 14q0 9 7 16t16 15t16 19t7 27v497q0 18 -7 29t-16 19.5t-16 16t-7 17.5q0 12 6 16q3 2 6 2h164q3 0 7 -2q8 -4 13 -16l205 -496l192 496
q4 11 14 15q4 2 9 3h151q6 0 11 -2q11 -4 11 -16q0 -10 -7 -17.5t-16 -16t-16 -19.5t-7 -29v-497z" />
    <glyph glyph-name="N" unicode="N" horiz-adv-x="694" 
d="M164 520v-427q0 -16 8 -27t18 -19t18 -15t8 -16q0 -10 -6 -14q-3 -2 -6 -2h-153q-3 0 -6 2q-6 4 -6 14q0 9 7 16t16 15t16 19t7 27v497q0 18 -7 29t-16 19.5t-16 16t-7 17.5q0 7 3.5 10.5t7.5 5.5q5 2 11 2h155q4 0 8 -2q3 -2 7 -5t9 -11l303 -411v337q0 17 -8.5 27
t-18 18t-18 15t-8.5 16q0 11 10 15q4 2 9 2h139q6 0 10 -2q10 -4 10 -15q0 -9 -7 -16t-16 -15t-16 -18t-7 -27v-580q0 -11 -11 -15q-5 -2 -11 -2h-41q-4 0 -9 2q-4 2 -8.5 5t-9.5 10z" />
    <glyph glyph-name="O" unicode="O" horiz-adv-x="763" 
d="M203 348q0 -66 11 -122t33 -96.5t56 -63.5t80 -23t79.5 23t55 63.5t32 96.5t10.5 122q0 65 -10.5 120t-32 95.5t-55 63.5t-79.5 23t-80 -23t-56 -63.5t-33 -95.5t-11 -120zM730 348q0 -62 -19.5 -126t-61 -116.5t-107.5 -85.5t-159 -33t-159 33t-108 85.5t-61.5 116.5
t-19.5 126q0 61 19.5 124.5t61.5 115.5t108 85t159 33t159 -33t107.5 -85t61 -115.5t19.5 -124.5z" />
    <glyph glyph-name="P" unicode="P" horiz-adv-x="604" 
d="M233 364q3 -16 19 -16h33q39 0 66.5 12t44.5 32.5t24.5 47t7.5 54.5q0 29 -8 55t-24 45.5t-39.5 31t-53.5 11.5h-39q-11 0 -21 -8.5t-10 -27.5v-237zM260 295q-25 0 -27 -24v-178q0 -16 7 -27t16 -19t16 -15t7 -16q0 -10 -6 -14q-3 -2 -6 -2h-225q-3 0 -6 2q-6 4 -6 14
q0 9 7 16t16 15t16 19t7 27v497q0 18 -7 29t-16 19.5t-16 16t-7 17.5q0 12 6 16q3 2 6 2h317q54 0 96 -16t70.5 -42.5t43.5 -62t16 -74.5t-13 -75t-46 -63.5t-83.5 -44.5t-125.5 -17h-57z" />
    <glyph glyph-name="Q" unicode="Q" horiz-adv-x="759" 
d="M730 348q0 -54 -15 -109.5t-47 -104t-81 -85.5t-118 -52q3 -7 10 -17t18.5 -19.5t28 -18t39.5 -11.5q21 -3 38.5 -3t29 -1t17 -6t3.5 -18q-4 -26 -31 -43t-65 -17q-45 0 -76 18t-50.5 42t-29.5 48t-13 36h-9q-93 0 -158.5 33t-106.5 85.5t-60 116.5t-19 126
q0 61 19.5 124.5t61.5 115.5t108 85t159 33t159 -33t107.5 -85t61 -115.5t19.5 -124.5zM200 348q0 -66 11.5 -122t34 -96.5t57 -63.5t80.5 -23t80 23t56.5 63.5t33.5 96.5t11 122q0 65 -11 120t-33.5 95.5t-56.5 63.5t-80 23t-80.5 -23t-57 -63.5t-34 -95.5t-11.5 -120z" />
    <glyph glyph-name="R" unicode="R" horiz-adv-x="661" 
d="M233 364q3 -16 19 -16h33q39 0 66.5 12t44.5 32.5t24.5 47t7.5 54.5q0 29 -8 55t-24 45.5t-39.5 31t-53.5 11.5h-39q-11 0 -21 -8.5t-10 -27.5v-237zM464 11q-2 4 -4.5 8.5t-8 14t-14.5 27t-25.5 48t-41 76t-60.5 111.5l-50 -1q-25 0 -27 -24v-178q0 -16 7 -27t16 -19
t16 -15t7 -16q0 -10 -6 -14q-3 -2 -6 -2h-225q-3 0 -6 2q-6 4 -6 14q0 9 7 16t16 15t16 19t7 27v497q0 18 -7 29t-16 19.5t-16 16t-7 17.5q0 12 6 16q3 2 6 2h317q54 0 96 -16t70.5 -42.5t43.5 -62t16 -74.5q2 -56 -28 -104t-101 -74l105 -193q18 -34 34.5 -50t29 -24
t20 -13.5t7.5 -19.5q0 -11 -11 -15q-5 -2 -11 -2h-148q-3 0 -7 1q-2 2 -5.5 4t-5.5 6z" />
    <glyph glyph-name="S" unicode="S" horiz-adv-x="549" 
d="M388 131q0 39 -26 66.5t-65.5 51t-85.5 47t-85.5 53.5t-65.5 71t-26 99q0 44 18 79.5t50 60t76 37.5t96 13q43 0 83 -8t71.5 -21.5t50.5 -31t19 -36.5l1 -97q-1 -7 -3 -12t-7 -8.5t-13 -3.5q-20 0 -30.5 19.5t-22.5 48.5q-18 44 -56.5 68t-83.5 24q-21 0 -41 -5
t-35.5 -15.5t-25 -26t-9.5 -37.5q0 -37 26 -64.5t65.5 -51t85 -47.5t85 -55t65.5 -71.5t26 -98.5q0 -45 -18 -80t-50.5 -60t-76.5 -38t-96 -13q-45 0 -90 9.5t-81 25t-58 36.5t-22 45v99q0 6 3 11t8 8t15 3q20 0 28.5 -17.5t14.5 -36.5q12 -31 30.5 -54t41.5 -39t47.5 -24
t48.5 -8q22 0 43 5t37.5 15.5t27 26.5t10.5 38z" />
    <glyph glyph-name="T" unicode="T" horiz-adv-x="642" 
d="M399 93q0 -16 7 -27t16 -19t16 -15t7 -16q0 -10 -6 -14q-3 -2 -6 -2h-225q-3 0 -6 2q-6 4 -6 14q0 9 7 16t16 15t16 19t7 27v513q0 10 -6.5 17t-17.5 7h-53q-35 0 -53 -14t-28.5 -31t-19.5 -31t-27 -14q-13 0 -17 10q-2 4 -2 9l3 115q1 5 3 9q5 9 17 9q6 0 11 -0.5
t10 -0.5t12.5 -0.5t18.5 -0.5h455q11 0 18.5 0.5t12.5 0.5t10 0.5t11 0.5q12 0 17 -9q2 -4 3 -9l3 -115q0 -5 -2 -9t-5.5 -7t-11.5 -3q-18 0 -27.5 14t-20 31t-28 31t-53.5 14h-55q-21 0 -21 -22v-515z" />
    <glyph glyph-name="U" unicode="U" horiz-adv-x="677" 
d="M609 225q0 -53 -21 -96.5t-57 -74.5t-84.5 -48t-104.5 -17q-55 0 -103.5 17t-84.5 48t-56.5 74.5t-20.5 96.5v365q0 18 -7 29t-16 19.5t-16 16t-7 17.5q0 12 6 16q3 2 6 2h225q3 0 6 -2q6 -4 6 -16q0 -10 -7 -17.5t-16 -16t-16 -19.5t-7 -29v-365q0 -37 11.5 -66
t31.5 -49.5t47 -31t57 -10.5q31 0 58 11t47.5 31.5t32 49.5t11.5 65v373q0 17 -8.5 27t-18 18t-18 15t-8.5 16q0 11 10 15q4 2 9 2h139q6 0 10 -2q10 -4 10 -15q0 -9 -7 -16t-16 -15t-16 -18t-7 -27v-373z" />
    <glyph glyph-name="V" unicode="V" horiz-adv-x="690" 
d="M385 161l139 407q9 28 2.5 42.5t-18 24t-22.5 17t-11 21.5q0 11 9 15q3 2 8 2h164q6 0 10 -2q10 -4 10 -15q0 -10 -8.5 -17.5t-20 -16.5t-23 -20t-17.5 -29l-195 -574q-2 -6 -5 -9l-5 -5q-4 -2 -7 -2h-101q-3 0 -7 2q-6 4 -10 14l-195 574q-6 18 -17.5 29t-23 20
t-20 16.5t-8.5 17.5q0 11 10 15q4 2 10 2h237q4 0 8 -2q8 -4 8 -15q0 -12 -10 -18t-20.5 -14t-16.5 -20.5t2 -36.5z" />
    <glyph glyph-name="W" unicode="W" horiz-adv-x="1049" 
d="M744 161l139 407q9 28 3 42.5t-17.5 24t-22.5 17t-11 21.5q0 11 8 15q4 2 8 2h164q6 0 10 -2q10 -4 10 -15q0 -10 -8.5 -17.5t-20 -16.5t-23 -20t-17.5 -29l-195 -574q-3 -10 -10 -14q-3 -2 -6 -2h-101q-4 0 -7 2q-7 4 -11 14l-112 330l-112 -330q-2 -6 -5 -9l-5 -5
q-4 -2 -7 -2h-101q-3 0 -7 2q-6 4 -10 14l-195 574q-6 18 -17.5 29t-23 20t-20 16.5t-8.5 17.5q0 11 10 15q4 2 10 2h237q4 0 8 -2q8 -4 8 -15q0 -12 -10 -18t-20.5 -14t-16.5 -20.5t2 -36.5l144 -423l101 298l-45 131q-8 24 -19.5 36t-22.5 19t-19 12.5t-8 15.5q0 11 10 15
q4 2 10 2h237q5 0 9 -2q8 -4 8 -15q0 -12 -10 -18t-20.5 -14t-16.5 -20.5t2 -36.5z" />
    <glyph glyph-name="X" unicode="X" horiz-adv-x="682" 
d="M370 435l82 139q16 27 14.5 41.5t-10 23.5t-18 15.5t-9.5 17.5q0 8 3 11.5t7 5.5t10 2h172q4 0 8 -2l4.5 -4.5t2.5 -8.5q0 -9 -9 -15t-21.5 -13.5t-25.5 -17t-22 -24.5l-141 -245l162 -261q11 -18 26 -29t28.5 -19.5t23 -16t9.5 -17.5q0 -7 -3 -10.5t-6 -5.5
q-5 -2 -10 -2h-235q-6 0 -10 2q-5 2 -8 5.5t-3 10.5q0 10 7 17.5t13.5 16t8 19.5t-9.5 29l-109 177l-94 -160q-16 -27 -14.5 -41.5t10 -23.5t18 -15.5t9.5 -17.5q0 -7 -3 -11t-6 -6q-5 -2 -10 -2h-172q-4 0 -7 2q-8 4 -8 13q0 8 9 14.5t21 13.5t25 16.5t22 24.5l153 268
l-146 238q-11 18 -26 29t-28.5 19.5t-22.5 16t-9 17.5q0 7 3 10.5t6 5.5q4 2 9 2h235q6 0 10 -2q5 -2 8 -5t2 -11q0 -10 -7 -17.5t-13.5 -16t-8 -19.5t9.5 -29z" />
    <glyph glyph-name="Y" unicode="Y" horiz-adv-x="675" 
d="M207 16q0 9 7 16t16 15t16 19t7 27v181l-169 316q-10 18 -23 29t-25 19.5t-20.5 16t-8.5 17.5q0 12 11 16q4 2 10 2h227q5 0 10 -2q3 -2 6 -5.5t3 -10.5q0 -10 -8.5 -17.5t-16 -16t-10.5 -19.5t7 -29l120 -225l117 209q16 27 14 41.5t-10.5 23.5t-18 15.5t-9.5 17.5
q0 8 3 11.5t7 5.5t9 2h172q4 0 8 -2l4.5 -4.5t2.5 -8.5q0 -9 -9 -15t-21 -13.5t-24.5 -17t-20.5 -24.5l-181 -323v-190q0 -16 7 -27t16 -19t16 -15t7 -16q0 -10 -6 -14q-3 -2 -6 -2h-224q-3 0 -6 2q-6 4 -6 14z" />
    <glyph glyph-name="Z" unicode="Z" horiz-adv-x="608" 
d="M522 690q16 -1 28 -5q11 -4 20 -11.5t9 -22.5q0 -9 -3.5 -20.5t-12.5 -25.5l-332 -517q-8 -11 -4.5 -19.5t20.5 -8.5h154q47 0 72 14.5t40.5 32t26.5 32t30 14.5q8 0 11 -3.5t4 -8.5q2 -5 1 -12l-15 -113q-1 -5 -4 -9q-2 -3 -6.5 -6t-11.5 -3q-6 0 -11 0.5t-10 0.5
t-12.5 0.5t-18.5 0.5h-413q-16 1 -28 5q-11 4 -19.5 12t-9.5 22q0 9 3.5 20.5t12.5 25.5l333 517q8 12 5 20t-20 8h-132q-47 0 -71.5 -14.5t-39.5 -32t-25.5 -32t-29.5 -14.5q-7 0 -10.5 3.5t-5.5 8.5q-1 5 -1 12l11 113q1 5 4 9q7 9 18 9q6 0 11 -0.5t10 -0.5t12.5 -0.5
t18.5 -0.5h391z" />
    <glyph glyph-name="bracketleft" unicode="[" horiz-adv-x="299" 
d="M183 -47q0 -13 15 -21t33 -15t33 -14.5t15 -18.5q0 -10 -6 -14q-3 -2 -6 -2h-182q-7 0 -12 3t-9 8t-4 16v818q0 10 4 15.5t9 7.5q5 3 12 3h182q3 0 6 -2q6 -4 6 -14q0 -11 -15 -18.5t-33 -14t-33 -15t-15 -21.5v-701z" />
    <glyph glyph-name="backslash" unicode="\" horiz-adv-x="409" 
d="M39 719q15 6 22 6q5 0 9 -2q1 -2 2 -3l324 -809q1 -4 -1 -8q-2 -3 -7 -7t-16 -9q-8 -3 -13 -4t-9 -1q-6 0 -10 2q-1 2 -2 3l-324 810q-1 3 2 7q4 8 23 15z" />
    <glyph glyph-name="bracketright" unicode="]" horiz-adv-x="299" 
d="M119 654q0 13 -15 21.5t-33 15t-33 14t-15 18.5q0 10 6 14q3 2 6 2h182q7 0 13 -3q5 -2 9 -7.5t4 -15.5v-818q0 -11 -4 -16t-9 -8q-6 -3 -13 -3h-182q-3 0 -6 2q-6 4 -6 14q0 11 15 18.5t33 14.5t33 15t15 21v701z" />
    <glyph glyph-name="asciicircum" unicode="^" horiz-adv-x="464" 
d="M446 365q1 -5 0 -10t-4 -9.5t-11 -8.5q-9 -3 -15 -3q-10 0 -15 5q-3 1 -5 4l-159 218l-158 -217q-2 -3 -6 -5q-3 -2 -7 -3.5t-10 -1.5t-14 3q-8 4 -10.5 8t-3.5 9t0 10l183 320q3 6 10.5 8.5t15.5 2.5q9 0 16.5 -3t10.5 -8z" />
    <glyph glyph-name="underscore" unicode="_" horiz-adv-x="409" 
d="M409 -134q4 -1 7 -5q2 -4 4 -12t2 -23q0 -14 -2 -21.5t-4 -10.5q-3 -4 -7 -5h-409q-4 1 -7 5q-2 3 -4 10.5t-2 21.5q0 15 2 23t4 12q3 4 7 5h409z" />
    <glyph glyph-name="grave" unicode="`" horiz-adv-x="241" 
d="M44 588q-22 11 -29.5 28t-3.5 33t16.5 27.5t30.5 11.5q20 0 40 -17q69 -59 95 -90.5t17 -45.5q-5 -8 -18 -8q-18 0 -54.5 14.5t-93.5 46.5z" />
    <glyph glyph-name="a" unicode="a" horiz-adv-x="512" 
d="M311 248q-1 0 -12 0.5t-28 -1t-36 -6.5t-35 -16t-27 -29t-11 -46q0 -36 20.5 -59.5t54.5 -23.5q33 0 51.5 20.5t22.5 45.5v115zM64 393q0 20 13.5 37.5t37 30.5t56 20.5t71.5 7.5q97 0 151.5 -43t54.5 -115v-238q0 -16 6.5 -27t15 -19t15 -15t6.5 -16q0 -6 -3 -9t-6 -5
q-5 -2 -10 -2h-143q-5 0 -9 3q-3 2 -6 7t-3 13v28q-22 -26 -55 -42.5t-87 -16.5q-65 0 -105.5 36.5t-40.5 103.5q0 51 26 86t67 55.5t92.5 27.5t102.5 3v30q0 43 -19 67t-50 24q-28 0 -42.5 -12.5t-25.5 -27.5t-23.5 -27.5t-36.5 -12.5q-22 0 -36 13t-14 35z" />
    <glyph glyph-name="b" unicode="b" horiz-adv-x="573" 
d="M551 236q0 -43 -12.5 -87t-39 -80t-69 -59t-102.5 -23q-39 0 -67.5 12.5t-48.5 34.5v-18q0 -10 -6 -14q-3 -2 -6 -2h-151q-5 0 -8 2q-9 4 -9 14q0 9 6.5 16t15 15t15 19t6.5 27v485q0 19 -7 28.5t-15 15t-15 10.5t-7 15q0 6 3.5 10.5t8.5 6.5q5 3 11 5l134 39q7 2 12 1
q5 -2 8.5 -7t3.5 -17v-248q20 20 51.5 33t71.5 13q58 0 99 -23t67 -58.5t38 -79.5t12 -86zM212 181q0 -53 24.5 -88.5t66.5 -35.5q51 0 77.5 48t26.5 131q0 82 -29 130t-74 48q-40 0 -66 -33.5t-26 -92.5v-107z" />
    <glyph glyph-name="c" unicode="c" horiz-adv-x="492" 
d="M400 360q-16 30 -42 45.5t-56 16.5q-24 0 -47 -11t-41 -34.5t-28.5 -58.5t-10.5 -82q0 -44 11 -77.5t29.5 -56t42.5 -34t51 -11.5q45 0 75 19.5t51 38.5q7 7 16 7q14 0 18.5 -16.5t-13.5 -36.5q-29 -32 -78 -57t-116 -25q-61 0 -105 22t-72.5 57t-41.5 80t-13 90
q0 44 15.5 88t47.5 79.5t81.5 57.5t117.5 22q27 0 57.5 -6t55.5 -16.5t41.5 -25t16.5 -30.5v-74q0 -6 -2 -10q-2 -5 -5.5 -8t-11.5 -3q-9 0 -16 5t-12 12.5t-8.5 16.5t-7.5 16z" />
    <glyph glyph-name="d" unicode="d" horiz-adv-x="577" 
d="M511 93q0 -16 6.5 -27t15 -19t15 -15t6.5 -16q0 -10 -6 -14q-3 -2 -6 -2h-156q-3 0 -6 2q-6 4 -6 14v18q-20 -22 -48.5 -34.5t-67.5 -12.5q-60 0 -102.5 23t-69 59t-39 80t-12.5 87q0 42 12.5 86t39 79.5t69 58.5t102.5 23q39 0 67.5 -12t48.5 -32v139q0 19 -6.5 28.5
t-15 15t-15 10.5t-6.5 15q0 6 3.5 10.5t7.5 6.5q5 3 11 5l134 39q7 2 12 1q5 -2 8.5 -7t3.5 -17v-592zM374 181v107q0 59 -26 92.5t-66 33.5q-45 0 -74 -48t-29 -130q0 -83 26.5 -131t77.5 -48q42 0 66.5 35.5t24.5 88.5z" />
    <glyph glyph-name="e" unicode="e" horiz-adv-x="518" 
d="M374 314q-1 23 -9 42.5t-20 34t-28 23t-34 8.5q-41 0 -69.5 -34t-36.5 -103h167q30 0 30 29zM175 226q1 -41 13 -72.5t30.5 -53t42.5 -32.5t50 -11q45 0 76.5 19.5t52.5 38.5q7 7 16 7q14 0 18.5 -16.5t-13.5 -36.5q-29 -32 -77 -57t-115 -25q-62 0 -107 22t-74.5 57
t-43.5 80t-14 90q0 44 15 88t46 79.5t78 57.5t111 22q36 0 74 -10t69.5 -33.5t51.5 -62t20 -95.5q0 -28 -10.5 -42t-39.5 -14h-270z" />
    <glyph glyph-name="f" unicode="f" horiz-adv-x="346" 
d="M225 93q0 -16 6.5 -27t14.5 -19t14.5 -15t6.5 -16q0 -10 -6 -14q-3 -2 -6 -2h-198q-3 0 -6 2q-6 4 -6 14q0 9 6.5 16t15 15t15 19t6.5 27v331h-34q-7 0 -12 3t-8.5 8.5t-3.5 15.5q0 11 3.5 16.5t8.5 8.5t12 3h34v67q0 40 14 69.5t36.5 48.5t50 28t55.5 9q24 0 47 -7
t40 -20t27.5 -31t10.5 -41q0 -17 -5 -28.5t-13 -18.5t-17 -10t-17 -3q-23 0 -40 14t-19 41q-2 18 -11.5 27t-20.5 9q-16 0 -27 -13.5t-11 -40.5v-12q0 -45 27.5 -66.5t61.5 -21.5h23q6 0 11 -3t8 -8.5t3 -16.5q0 -17 -11 -24q-5 -3 -11 -3h-75v-331z" />
    <glyph glyph-name="g" unicode="g" horiz-adv-x="553" 
d="M378 290q-2 58 -27.5 91t-64.5 33q-45 0 -74 -48t-29 -130q0 -83 26 -131t77 -48q42 0 66 34.5t26 85.5v113zM70 -109q0 20 13.5 33.5t32.5 13.5q27 0 40.5 -14.5t27 -32t33.5 -32t58 -14.5q18 0 36.5 6.5t33.5 20t24 35.5t9 52v68q-23 -18 -52 -29t-65 -11
q-60 0 -102 22t-68.5 57.5t-39 80t-12.5 89.5q0 44 14 88.5t42.5 79.5t72 57t102.5 22q48 0 82.5 -14.5t67.5 -43.5q17 15 27.5 26t18.5 17.5t14 9.5t12 3t11 -3q11 -4 11 -19v-471q0 -50 -19.5 -89t-52.5 -66t-75.5 -41.5t-87.5 -14.5q-47 0 -85.5 9.5t-66 25.5t-42.5 36.5
t-15 42.5z" />
    <glyph glyph-name="h" unicode="h" horiz-adv-x="580" 
d="M376 322q0 42 -21.5 59t-47.5 18q-21 0 -37.5 -7.5t-27.5 -19.5t-17 -26t-6 -26v-227q0 -16 6.5 -27t15 -19t15 -15t6.5 -16q0 -10 -6 -14q-3 -2 -6 -2h-198q-3 0 -6 2q-6 4 -6 14q0 9 6.5 16t14.5 15t14.5 19t6.5 27v485q0 19 -6.5 28.5t-15 15t-15 10.5t-6.5 15
q0 6 3.5 10.5t7.5 6.5q5 3 11 5l134 39q7 2 12 1q5 -2 8.5 -7t3.5 -17v-253q27 25 62.5 41t77.5 16q72 0 113.5 -44t41.5 -117v-235q0 -16 6.5 -27t14.5 -19t14.5 -15t6.5 -16q0 -10 -6 -14q-3 -2 -6 -2h-198q-3 0 -6 2q-6 4 -6 14q0 9 6.5 16t15 15t15 19t6.5 27z" />
    <glyph glyph-name="i" unicode="i" horiz-adv-x="289" 
d="M69 615q0 33 22 55.5t55 22.5t55.5 -22.5t22.5 -55.5t-22.5 -55t-55.5 -22t-55 22t-22 55zM219 93q0 -16 6.5 -27t15 -19t15 -15t6.5 -16q0 -10 -6 -14q-3 -2 -6 -2h-198q-3 0 -6 2q-6 4 -6 14q0 9 6.5 16t14.5 15t14.5 19t6.5 27v261q0 19 -6.5 28t-15 14.5t-15 10.5
t-6.5 15q0 7 3.5 11t7.5 6q5 3 11 5l134 39q7 2 12 1q5 -2 8.5 -7t3.5 -17v-367z" />
    <glyph glyph-name="j" unicode="j" horiz-adv-x="259" 
d="M219 -40q0 -39 -8 -69.5t-29 -52.5t-57 -37t-91 -23q-12 -2 -20 5.5t-9.5 17t4 19t20.5 12.5q22 4 37.5 23t15.5 60v439q0 19 -6.5 28t-15 14.5t-15 10.5t-6.5 15q0 7 3.5 11t7.5 6q5 3 11 5l134 39q7 2 12 1q5 -2 8.5 -7t3.5 -17v-500zM69 615q0 33 22 55.5t55 22.5
t55.5 -22.5t22.5 -55.5t-22.5 -55t-55.5 -22t-55 22t-22 55z" />
    <glyph glyph-name="k" unicode="k" horiz-adv-x="577" 
d="M241 205l-22 -21v-91q0 -16 6.5 -27t15 -19t15 -15t6.5 -16q0 -10 -6 -14q-3 -2 -6 -2h-198q-3 0 -6 2q-6 4 -6 14q0 9 6.5 16t14.5 15t14.5 19t6.5 27v485q0 19 -6.5 28.5t-15 15t-15 10.5t-6.5 15q0 6 3.5 10.5t7.5 6.5q5 3 11 5l134 39q7 2 12 1q5 -2 8.5 -7t3.5 -17
v-410l85 82q29 29 33 43.5t-3 23t-17.5 15.5t-10.5 21q0 8 3 11.5t7 5.5t10 2h174q4 0 8 -2l4.5 -4.5t2.5 -8.5q0 -10 -7 -15.5t-19.5 -11t-29 -15t-34.5 -27.5l-91 -93l156 -215q14 -20 27.5 -30.5t24 -16.5t17 -10.5t6.5 -11.5t-3.5 -10.5t-7.5 -5.5q-6 -2 -12 -2h-132
q-7 0 -14 3q-6 2 -12.5 7t-12.5 15z" />
    <glyph glyph-name="l" unicode="l" horiz-adv-x="290" 
d="M219 93q0 -16 6.5 -27t15 -19t15 -15t6.5 -16q0 -10 -6 -14q-3 -2 -6 -2h-198q-3 0 -6 2q-6 4 -6 14q0 9 6.5 16t14.5 15t14.5 19t6.5 27v485q0 19 -6.5 28.5t-15 15t-15 10.5t-6.5 15q0 6 3.5 10.5t7.5 6.5q5 3 11 5l134 39q7 2 12 1q5 -2 8.5 -7t3.5 -17v-592z" />
    <glyph glyph-name="m" unicode="m" horiz-adv-x="835" 
d="M598 16q0 9 5.5 16t12.5 15t12.5 19t5.5 27l-1 229q0 42 -18.5 59t-44.5 18q-19 0 -33.5 -7t-23.5 -18.5t-13.5 -26t-4.5 -29.5v-225q0 -16 5.5 -27t12.5 -19t12.5 -15t5.5 -16q0 -10 -6 -14q-3 -2 -6 -2h-185q-3 0 -6 2q-6 4 -6 14q0 9 5.5 16t12.5 15t12.5 19t5.5 27
v229q0 42 -19 59t-45 18q-21 0 -35 -7.5t-23 -19t-13 -24.5t-4 -25v-230q0 -16 5.5 -27t12.5 -19t12.5 -15t5.5 -16q0 -10 -6 -14q-3 -2 -6 -2h-191q-3 0 -6 2q-6 4 -6 14q0 9 6.5 16t14.5 15t14.5 19t6.5 27v261q0 19 -6.5 28t-15 14.5t-15 10.5t-6.5 15q0 7 3.5 11t7.5 6
q5 3 11 5l134 39q7 2 12 1q5 -2 8.5 -7t3.5 -17v-27q24 26 57.5 41t70.5 15q44 0 73.5 -17.5t49.5 -49.5q27 27 64 47t82 20q72 0 113.5 -44t41.5 -117v-235q0 -16 6.5 -27t14.5 -19t14.5 -15t6.5 -16q0 -10 -6 -14q-3 -2 -6 -2h-191q-3 0 -6 2q-6 4 -6 14z" />
    <glyph glyph-name="n" unicode="n" horiz-adv-x="580" 
d="M334 16q0 9 6.5 16t15 15t15 19t6.5 27l-1 229q0 42 -21.5 59t-47.5 18q-21 0 -37 -7.5t-27.5 -19t-17.5 -24.5t-6 -25v-230q0 -16 6.5 -27t15 -19t15 -15t6.5 -16q0 -10 -6 -14q-3 -2 -6 -2h-198q-3 0 -6 2q-6 4 -6 14q0 9 6.5 16t14.5 15t14.5 19t6.5 27v261
q0 19 -6.5 28t-15 14.5t-15 10.5t-6.5 15q0 7 3.5 11t7.5 6q5 3 11 5l134 39q7 2 12 1q5 -2 8.5 -7t3.5 -17v-28q27 25 62.5 41t77.5 16q72 0 113.5 -44t41.5 -117v-235q0 -16 6.5 -27t14.5 -19t14.5 -15t6.5 -16q0 -10 -6 -14q-3 -2 -6 -2h-198q-3 0 -6 2q-6 4 -6 14z" />
    <glyph glyph-name="o" unicode="o" horiz-adv-x="545" 
d="M173 236q0 -42 6 -77t18 -60.5t31.5 -40t46.5 -14.5t46.5 14.5t31.5 40t18 60.5t6 77q0 41 -6 75.5t-18 60t-31.5 40t-46.5 14.5t-46.5 -14.5t-31.5 -40t-18 -60t-6 -75.5zM520 236q0 -43 -12.5 -87t-41.5 -80t-76 -59t-116 -23q-68 0 -115 23t-75.5 59t-41 80t-12.5 87
q0 42 12.5 86t41 79.5t75.5 58.5t115 23q69 0 116 -23t76 -58.5t41.5 -79.5t12.5 -86z" />
    <glyph glyph-name="p" unicode="p" horiz-adv-x="580" 
d="M219 177q1 -51 25.5 -85.5t65.5 -34.5q51 0 77.5 48t26.5 131q0 82 -29 130t-74 48q-39 0 -65 -33t-27 -91v-113zM52 -203q-3 0 -6 2q-6 4 -6 15q0 9 6.5 16t14.5 15t14.5 18t6.5 27v464q0 19 -6.5 28t-15 14.5t-15 10.5t-6.5 15q0 7 3.5 11t7.5 6q5 3 11 5l134 39
q7 2 12 1q5 -2 8.5 -7t3.5 -17v-32q23 25 57.5 40t73.5 15q54 0 93.5 -23t65 -58.5t37.5 -79.5t12 -86q0 -43 -12.5 -87t-39 -80t-68.5 -59t-102 -23q-36 0 -65.5 11t-51.5 29v-137q0 -17 6.5 -27t15 -18t15 -15t6.5 -16q0 -11 -6 -15q-3 -2 -6 -2h-198z" />
    <glyph glyph-name="q" unicode="q" horiz-adv-x="561" 
d="M378 290q-2 58 -27.5 91t-64.5 33q-45 0 -74 -48t-29 -130q0 -83 26 -131t77 -48q42 0 66 34.5t26 85.5v113zM378 27q-23 -18 -52 -29t-65 -11q-60 0 -102 22t-68.5 57.5t-39 80t-12.5 89.5q0 44 14 88.5t42.5 79.5t72 57t102.5 22q48 0 82.5 -14.5t67.5 -43.5
q17 15 27.5 26t18.5 17.5t14 9.5t12 3t11 -3q11 -4 11 -19v-569q0 -17 6.5 -27t15 -18t15 -15t6.5 -16q0 -11 -6 -15q-3 -2 -6 -2h-198q-3 0 -6 2q-6 4 -6 15q0 9 6.5 16t15 15t15 18t6.5 27v137z" />
    <glyph glyph-name="r" unicode="r" horiz-adv-x="423" 
d="M320 367q-2 15 -13.5 22.5t-27.5 7.5q-26 0 -43 -25.5t-17 -57.5v-221q0 -16 6.5 -27t15 -19t15 -15t6.5 -16q0 -10 -6 -14q-3 -2 -6 -2h-198q-3 0 -6 2q-6 4 -6 14q0 9 6.5 16t14.5 15t14.5 19t6.5 27v261q0 19 -6.5 28t-15 14.5t-15 10.5t-6.5 15q0 7 3.5 11t7.5 6
q5 3 11 5l134 39q7 2 12 1q5 -2 8.5 -7t3.5 -17v-38q54 65 106 65q31 0 56.5 -19.5t25.5 -60.5q0 -31 -14 -52t-40 -21q-15 0 -23 9t-10 24z" />
    <glyph glyph-name="s" unicode="s" horiz-adv-x="433" 
d="M289 96q0 21 -19 35t-47.5 27t-62 27.5t-62 35t-47.5 50t-19 72.5q0 66 51.5 103t139.5 37q26 0 55 -4t54 -11.5t41.5 -19.5t16.5 -28v-73q0 -5 -2 -8q-4 -9 -14 -9q-14 0 -25 11t-29 32q-23 27 -49 38t-52 11q-32 0 -48 -14.5t-16 -31.5q0 -22 19 -37t47.5 -28t62 -27
t62 -34t47.5 -49t19 -72q0 -66 -52 -104t-140 -38q-27 0 -60.5 6t-63 16t-49.5 24t-20 30v69q0 6 2 11q4 10 15 10q12 0 19 -9l14 -18q28 -40 65.5 -59t75.5 -19q35 0 53 14t18 34z" />
    <glyph glyph-name="t" unicode="t" horiz-adv-x="325" 
d="M78 424h-39q-6 0 -10 3q-4 2 -7 6.5t-3 12.5q0 11 8 16.5t19 10.5q20 9 38.5 23.5t34.5 32t28.5 35t21.5 32.5q9 16 25 16q8 0 14 -5.5t6 -16.5v-111h70q6 0 11 -3t8 -8.5t3 -16.5q0 -17 -11 -24q-5 -3 -11 -3h-69v-318q0 -20 6.5 -32t17 -18t23 -6.5t24.5 1.5
q11 3 17.5 -1.5t8 -12t-2.5 -16t-14 -13.5q-15 -7 -36.5 -14t-56.5 -7q-27 0 -49.5 6.5t-39 21.5t-26 40t-9.5 61v308z" />
    <glyph glyph-name="u" unicode="u" horiz-adv-x="573" 
d="M504 93q0 -16 6.5 -27t14.5 -19t14.5 -15t6.5 -16q0 -10 -6 -14q-3 -2 -6 -2h-155q-3 0 -6 2q-6 4 -6 14v26q-27 -26 -62.5 -41.5t-77.5 -15.5q-36 0 -64.5 11.5t-48.5 32.5t-31 50.5t-11 65.5v209q0 19 -6.5 28t-15 14.5t-15 10.5t-6.5 15q0 7 3.5 11t7.5 6q5 3 11 5
l135 39q7 2 12 1q5 -2 8.5 -7t3.5 -17v-309q0 -41 21.5 -58.5t47.5 -17.5q21 0 37.5 6.5t27.5 16.5t17 22t6 22v212q0 19 -7 28t-15 14.5t-15 10.5t-7 15q0 7 3.5 11t8.5 6q5 3 11 5l134 39q7 2 12 1q5 -2 8.5 -7t3.5 -17v-367z" />
    <glyph glyph-name="v" unicode="v" horiz-adv-x="521" 
d="M221 0q-3 0 -9.5 3t-10.5 15l-135 368q-7 20 -16.5 31t-18 18t-14.5 13t-6 15q0 6 3 9t6 5q4 2 9 2h184q5 0 10 -2q3 -2 6 -5t3 -9q0 -9 -7.5 -15.5t-14.5 -14t-10 -19.5t4 -33l85 -243l90 242q8 21 4 33t-12 20t-16.5 14.5t-8.5 15.5q0 10 10 14q4 2 9 2h127q5 0 9 -2
q9 -4 9 -14q0 -9 -6.5 -15t-16.5 -13t-20 -18t-17 -31l-136 -372q-3 -8 -9.5 -11t-8.5 -3h-75z" />
    <glyph glyph-name="w" unicode="w" horiz-adv-x="779" 
d="M388 258l-89 -244q-3 -8 -9.5 -11t-8.5 -3h-62q-2 0 -8.5 3t-11.5 15l-134 368q-7 20 -16.5 31t-18.5 18t-14.5 13t-5.5 15q0 6 3 9t6 5q4 2 9 2h184q5 0 9 -2q9 -4 9 -14q0 -9 -7 -15.5t-14 -14t-10.5 -19.5t4.5 -33l78 -224l73 194l-13 35q-7 20 -15 31t-15.5 18
t-12.5 13t-5 15q0 6 3 9t6 5q4 2 9 2h171q5 0 9 -2q9 -4 9 -14q0 -9 -6 -15.5t-12 -14t-8 -19.5t6 -33l77 -221l81 220q8 21 4 33t-12 20t-16 14.5t-8 15.5q0 6 3 9t6 5q4 2 9 2h127q5 0 10 -2q3 -2 6 -5t3 -9q0 -9 -7 -15t-16.5 -13t-20 -18t-17.5 -31l-136 -372
q-3 -8 -9.5 -11t-8.5 -3h-59q-2 0 -8.5 3t-11.5 15z" />
    <glyph glyph-name="x" unicode="x" horiz-adv-x="555" 
d="M339 258l115 -165q11 -16 25.5 -27t27.5 -19t22 -15t9 -16q0 -10 -8 -14q-4 -2 -8 -2h-203q-5 0 -9 2q-9 4 -9 14q0 12 5.5 19t10 14.5t5 17.5t-10.5 26l-61 86l-46 -57q-23 -28 -25.5 -43t3.5 -24.5t15 -16.5t9 -19q0 -7 -3 -11t-6 -6q-5 -2 -10 -2h-157q-4 0 -7 2
q-8 4 -8 13q0 11 6 15.5t16.5 9.5t25 14.5t31.5 29.5l117 151l-105 151q-11 17 -25.5 27.5t-27 18.5t-21 15t-8.5 16q1 6 3.5 9t4.5 5q4 2 8 2h196q5 0 9 -2q9 -4 9 -14q0 -12 -5 -19t-9 -14t-3 -17t13 -27l50 -73l35 44q23 28 26.5 43t-1 24.5t-12.5 16.5t-8 19q0 8 3 11.5
t6 5.5q4 2 9 2h151q4 0 8 -2l4.5 -4.5t2.5 -8.5q0 -10 -6 -14.5t-16.5 -10t-25 -15t-31.5 -29.5z" />
    <glyph glyph-name="y" unicode="y" horiz-adv-x="517" 
d="M27 -143q0 18 11.5 31t28.5 13q13 0 21.5 -6t16.5 -13t18.5 -13t26.5 -6q19 0 36.5 15.5t29.5 44.5l28 77q-37 0 -49 32l-129 354q-7 20 -16.5 31t-18 18t-14.5 13t-6 15q0 6 3 9t6 5q4 2 9 2h184q5 0 10 -2q3 -2 6 -5t3 -9q0 -9 -7.5 -15.5t-14.5 -14t-10 -19.5t4 -33
l85 -243l90 242q8 21 4 33t-12 20t-16.5 14.5t-8.5 15.5q0 10 10 14q4 2 9 2h127q5 0 9 -2q9 -4 9 -14q0 -9 -6.5 -15t-16.5 -13t-20 -18t-17 -31l-174 -474q-9 -26 -22 -49.5t-30 -41t-40 -28t-53 -10.5q-18 0 -36.5 5t-33.5 15t-24.5 23.5t-9.5 30.5z" />
    <glyph glyph-name="z" unicode="z" horiz-adv-x="464" 
d="M444 460q0 -9 -6 -23l-224 -353q-5 -11 -3 -17.5t15 -6.5h51q42 0 63 15t33.5 33.5t22.5 33.5t28 15q8 0 11.5 -3.5t5.5 -8.5q2 -6 2 -13l-8 -114q-1 -5 -4 -9q-2 -3 -6 -6t-11 -3h-372q-7 0 -12 2q-11 6 -11 17q0 7 7 23l223 353q5 11 3 17.5t-15 6.5h-53q-33 0 -51 -15
t-30 -33.5t-23 -33.5t-29 -15q-8 0 -11.5 3.5t-5.5 8.5t-2 12l7 116q1 5 4 9q6 8 17 8h361q7 0 12 -2t8.5 -5.5t2.5 -11.5z" />
    <glyph glyph-name="braceleft" unicode="{" horiz-adv-x="330" 
d="M214 356q-1 -9 -3 -18.5t-7.5 -18.5t-15.5 -16t-28 -10q26 -4 40 -23t14 -41v-270q0 -26 7 -39t18 -18.5t23 -6.5t23 -3t18 -7.5t7 -20.5q0 -6 -2.5 -8.5t-6.5 -4.5t-9 -2h-84q-33 2 -58 14q-23 11 -41 33.5t-18 65.5v248q1 27 -11.5 45.5t-40.5 20.5q-6 0 -10 2
q-5 2 -8 5.5t-3 10.5q0 13 11 18q4 2 10 2q18 0 28.5 6.5t15.5 15t6.5 18.5t1.5 17v238q0 49 20.5 75.5t45.5 38.5q29 14 66 16h69q5 0 9 -2q9 -4 9 -14q0 -13 -7 -18t-18 -7.5t-23 -5.5t-23 -10.5t-18 -23.5t-7 -44v-258z" />
    <glyph glyph-name="bar" unicode="|" horiz-adv-x="208" 
d="M73 714q0 3 4 6q3 2 9.5 3.5t17.5 1.5q12 0 18.5 -1.5t9.5 -3.5q4 -3 4 -6v-806q0 -4 -4 -7q-3 -2 -9.5 -4t-18.5 -2q-11 0 -17.5 2t-9.5 4q-4 3 -4 7v806z" />
    <glyph glyph-name="braceright" unicode="}" horiz-adv-x="330" 
d="M114 614q0 29 -7 44.5t-18 23t-23 10.5t-23 5.5t-18 7.5t-7 18q0 10 10 14q4 2 9 2h69q37 -2 66 -16q25 -12 45.5 -38.5t20.5 -75.5v-238q0 -7 1.5 -17t6.5 -18.5t15.5 -15t28.5 -6.5q6 0 10 -2t7 -6t3 -12q0 -7 -3 -10.5t-7 -5.5t-10 -2q-29 -2 -41 -20.5t-11 -45.5
v-248q0 -43 -18 -65.5t-40 -33.5q-26 -12 -59 -14h-84q-5 0 -9 2t-7 4.5t-3 8.5q0 15 7 20.5t18 7.5t23 3t23 6.5t18 18.5t7 39v270q0 22 14 41t40 23q-18 3 -28 10t-15.5 16t-7.5 18.5t-3 18.5v258z" />
    <glyph glyph-name="asciitilde" unicode="~" horiz-adv-x="425" 
d="M397 382q-14 -38 -44.5 -63.5t-74.5 -25.5q-19 0 -37.5 7t-36 15t-33 15.5t-29.5 7.5q-19 0 -33.5 -5t-30.5 -22q-14 -15 -28 -15q-11 0 -16 8.5t0 21.5q14 37 44 63t72 26q21 0 41.5 -7t39.5 -15.5t36 -15.5t32 -7q29 2 54 27q13 14 25 14q11 0 17 -9t2 -20z" />
    <glyph glyph-name="exclamdown" unicode="&#xa1;" horiz-adv-x="207" 
d="M30.0107 -242.961q0 13.999 3 47.4971q3 33.4971 7.99902 76.4951q5 42.9971 11 89.9941q5.99902 46.9971 11.499 89.4951q5.5 42.4971 9.49902 74.4951q4 31.998 5 43.9971q1 9 6 14.999q4.99902 6 16.999 6q12.999 0 18.498 -6q5.5 -5.99902 6.5 -14.999
q1 -11.999 5 -43.9971q3.99902 -31.998 9.49902 -73.9961q5.5 -41.9971 10.999 -89.4941q5.5 -47.4971 10.5 -90.4941q4.99902 -42.998 7.99902 -76.4951q3 -33.498 3 -47.4971q0 -12 -4 -25.499q-3.99902 -13.499 -12.499 -23.998q-8.49902 -10.5 -21.999 -17.499
q-13.499 -7 -33.4971 -7q-19.999 0 -33.498 7q-13.499 6.99902 -21.999 17.499q-8.49902 10.499 -11.999 23.998t-3.5 25.499zM175.002 331.004q0 -31.998 -20.499 -52.9971t-51.4971 -20.999t-51.9961 20.999q-20.999 20.999 -20.999 52.9971q0 30.998 20.999 51.4961
q20.998 20.499 51.9961 20.499t51.4971 -20.499q20.499 -20.498 20.499 -51.4961z" />
    <glyph glyph-name="cent" unicode="&#xa2;" horiz-adv-x="490" 
d="M259 521q-35 -15 -59.5 -57.5t-24.5 -114.5q0 -63 23 -104.5t61 -56.5v333zM400 473q-15 29 -38.5 44.5t-52.5 17.5v-364q41 -1 71.5 17t54.5 40q8 7 16 7q14 0 18.5 -16.5t-13.5 -36.5q-24 -26 -60.5 -47.5t-86.5 -30.5v-93q0 -6 -7.5 -9t-17.5 -3q-9 0 -17 3t-8 9v89
q-59 1 -102.5 22t-71.5 56t-41.5 79.5t-13.5 91.5q0 41 13.5 83t41.5 76.5t71 58t103 28.5v100q0 6 8 8.5t17 2.5q10 0 17.5 -2.5t7.5 -8.5v-99q26 -2 53.5 -8.5t50 -17t36.5 -24t14 -28.5v-74q0 -6 -2 -10q-2 -5 -5.5 -8t-11.5 -3q-9 0 -16 5t-12 12.5t-8.5 16.5t-7.5 16z
" />
    <glyph glyph-name="sterling" unicode="&#xa3;" horiz-adv-x="565" 
d="M55 512q0 48 19 85t52 62t78 37.5t97 12.5q43 0 85 -8t74 -22.5t51 -33.5t17 -40l-10 -90q-1 -7 -5 -12q-2 -5 -7.5 -8.5t-13.5 -3.5q-20 0 -28.5 19.5t-16.5 48.5q-14 44 -46.5 68t-77.5 24q-22 0 -42 -7t-35 -21t-24 -34.5t-9 -47.5q0 -22 5 -44t12 -45t15.5 -46.5
t14.5 -48.5h132q4 0 8 -4q3 -2 6.5 -8t6.5 -17q2 -10 1.5 -15.5t-2.5 -8.5t-6 -3h-137q6 -51 -12 -96.5t-61 -90.5q-5 -5 -0.5 -9t10.5 -4h162q41 0 63.5 12t36.5 27t24.5 27t25.5 12q10 0 14 -5t6 -10q2 -7 2 -16l-13 -119q-2 -9 -6 -15q-3 -6 -10 -11t-18 -5q-6 0 -11 0.5
t-10 0.5t-12.5 0.5t-18.5 0.5h-350q-24 0 -35 16t-1 36q35 49 54.5 91t19.5 82q0 20 -3.5 39t-9.5 37h-88q-4 0 -6 3q-7 7 -7 24q0 20 7 25q2 4 6 4h68q-14 38 -27.5 76t-13.5 79z" />
    <glyph glyph-name="yen" unicode="&#xa5;" horiz-adv-x="675" 
d="M252 274l-168 316q-10 18 -23 29t-25 19.5t-20.5 16t-8.5 17.5q0 12 11 16q4 2 10 2h227q5 0 10 -2q3 -2 6 -5.5t3 -10.5q0 -10 -8.5 -17.5t-16 -16t-10.5 -19.5t7 -29l120 -225l117 209q16 27 14 41.5t-10.5 23.5t-18 15.5t-9.5 17.5q0 8 3 11.5t7 5.5t9 2h172q4 0 8 -2
l4.5 -4.5t2.5 -8.5q0 -9 -9 -15t-21 -13.5t-24.5 -17t-20.5 -24.5l-181 -323v-9h117q4 0 7 -3q2 -3 4 -8t2 -16q0 -10 -2 -15t-4 -8q-3 -3 -7 -3h-117v-58h117q4 0 7 -3q6 -6 6 -23q0 -10 -2 -15.5t-4 -8.5q-3 -3 -7 -3h-117v-17q0 -16 7 -27t16 -19t16 -15t7 -16
q0 -10 -6 -14q-3 -2 -6 -2h-224q-3 0 -6 2q-6 4 -6 14q0 9 7 16t16 15t16 19t7 27v17h-120q-3 0 -6 3q-2 3 -4 8.5t-2 15.5q0 17 6 23q3 3 6 3h120v58h-120q-3 0 -6 3q-2 3 -4 8t-2 15q0 11 2 16t4 8q3 3 6 3h119z" />
    <glyph glyph-name="brokenbar" unicode="&#xa6;" horiz-adv-x="208" 
d="M73 714q0 3 4 6q3 2 9.5 3.5t17.5 1.5q12 0 18.5 -1.5t9.5 -3.5q4 -3 4 -6v-349h-63v349zM136 -92q0 -4 -4 -7q-3 -2 -9.5 -4t-18.5 -2q-11 0 -17.5 2t-9.5 4q-4 3 -4 7v348h63v-348z" />
    <glyph glyph-name="section" unicode="&#xa7;" horiz-adv-x="558" 
d="M358 203q27 7 39 23t12 33q0 25 -20 44t-51 35.5t-68 32.5t-72 36q-28 -6 -40 -22.5t-12 -33.5q0 -25 20 -43.5t51 -35t68.5 -33t72.5 -36.5zM24 320q0 47 30 81.5t82 51.5q-20 20 -32 44t-12 56q0 69 51.5 106.5t139.5 37.5q26 0 55 -4t54 -11.5t41.5 -19.5t16.5 -28
v-73q0 -5 -2 -8q-4 -9 -14 -9q-14 0 -25 11t-29 32q-23 27 -49 38t-52 11q-32 0 -48 -14.5t-16 -31.5q0 -26 23.5 -45.5t58.5 -37t76.5 -36.5t76.5 -43.5t58.5 -57.5t23.5 -80q0 -46 -30.5 -80.5t-82.5 -51.5q20 -20 32 -44.5t12 -56.5q0 -68 -51.5 -105.5t-138.5 -37.5
q-25 0 -54.5 4t-55 11.5t-42 19.5t-16.5 28v73q0 5 2 9q4 8 14 8q14 0 25.5 -11t29.5 -32q23 -28 48.5 -38.5t51.5 -10.5q32 0 48.5 14.5t16.5 31.5q0 26 -23.5 45t-58.5 37t-76.5 36.5t-76.5 43t-58.5 58t-23.5 79.5z" />
    <glyph glyph-name="dieresis" unicode="&#xa8;" horiz-adv-x="334" 
d="M17 608q0 26 17.5 44.5t44.5 18.5q26 0 44.5 -18.5t18.5 -44.5q0 -27 -18.5 -44.5t-44.5 -17.5q-27 0 -44.5 17.5t-17.5 44.5zM197 608q0 26 18 44.5t44 18.5q27 0 45 -18.5t18 -44.5q0 -27 -18 -44.5t-45 -17.5q-26 0 -44 17.5t-18 44.5z" />
    <glyph glyph-name="guillemotleft" unicode="&#xab;" horiz-adv-x="394" 
d="M212 266q-14 14 -13.5 31t13.5 31q27 28 51 52.5t43 41.5t32 25.5t19 3.5q5 -4 0.5 -18t-15 -35t-24 -47t-27.5 -54q14 -28 27.5 -54t24 -46.5t15 -34.5t-0.5 -18q-6 -5 -19 3t-32 25t-43 41.5t-51 52.5zM54 266q-14 14 -13.5 31t13.5 31q27 28 51 52.5t43 41.5t32 25.5
t19 3.5q5 -4 0.5 -18t-15 -35t-24 -47t-27.5 -54q14 -28 27.5 -54t24 -46.5t15 -34.5t-0.5 -18q-6 -5 -19 3t-32 25t-43 41.5t-51 52.5z" />
    <glyph glyph-name="logicalnot" unicode="&#xac;" horiz-adv-x="456" 
d="M419 113q-1 -4 -5 -6q-5 -3 -13.5 -5t-25.5 -2q-16 0 -24 2t-13 5q-4 2 -5 6v141h-295q-4 1 -6 5q-3 5 -5 13t-2 24q0 17 2 25.5t5 13.5q2 4 6 5h368q4 0 7 -3q2 -2 4 -7t2 -14v-203z" />
    <glyph glyph-name="macron" unicode="&#xaf;" horiz-adv-x="270" 
d="M220 609q4 -1 7 -4q2 -3 4 -10t2 -20q0 -12 -2 -18.5t-4 -9.5q-3 -4 -7 -4h-169q-4 0 -6 4q-3 3 -5 9.5t-2 18.5q0 23 7 30q2 3 6 4h169z" />
    <glyph glyph-name="degree" unicode="&#xb0;" horiz-adv-x="312" 
d="M30 577q0 27 9.5 50t26.5 40t40 27t51 10q27 0 50 -10t40 -27t27 -40t10 -50q0 -28 -10 -51t-27 -40t-40 -26.5t-50 -9.5q-56 0 -91.5 35.5t-35.5 91.5zM87 577q0 -30 20 -50t50 -20t50 20t20 50t-20 50t-50 20t-50 -20t-20 -50z" />
    <glyph glyph-name="plusminus" unicode="&#xb1;" 
d="M219 554q17 0 26 -2t13 -4q5 -3 6 -7v-139h140q4 -1 7 -6q2 -4 4 -13t2 -26q0 -16 -2 -24t-4 -13q-3 -4 -7 -5h-140v-140q-1 -4 -6 -6q-4 -3 -13 -5t-26 -2q-16 0 -24 2t-13 5q-4 2 -5 6v140h-139q-4 1 -6 5q-3 5 -5 13t-2 24q0 17 2 26t5 13q2 5 6 6h139v139q1 4 5 7
q5 2 13 4t24 2zM417 42q0 -16 -2 -24t-4 -13q-3 -4 -7 -5h-366q-4 1 -6 5q-3 5 -5 13t-2 24q0 17 2 25.5t5 13.5q2 4 6 5h366q4 -1 7 -5q2 -5 4 -13.5t2 -25.5z" />
    <glyph glyph-name="acute" unicode="&#xb4;" horiz-adv-x="241" 
d="M226 588q-57 -32 -93.5 -46.5t-54.5 -14.5q-14 0 -19 8q-8 14 18 45.5t95 90.5q20 17 39 17q18 0 30.5 -11.5t16.5 -27.5t-3 -33t-29 -28z" />
    <glyph glyph-name="mu" unicode="&#xb5;" horiz-adv-x="573" 
d="M30 -186q0 9 6.5 16t14.5 15t14.5 18t6.5 27v464q0 19 -6.5 28t-15 14.5t-15 10.5t-6.5 15q0 7 3.5 11t7.5 6q5 3 11 5l135 39q7 2 12 1q5 -2 8.5 -7t3.5 -17v-309q0 -41 21.5 -58.5t47.5 -17.5q21 0 37.5 6.5t27.5 16.5t17 22t6 22v212q0 19 -7 28t-15 14.5t-15 10.5
t-7 15q0 7 3.5 11t8.5 6q5 3 11 5l134 39q7 2 12 1q5 -2 8.5 -7t3.5 -17v-367q0 -16 6.5 -27t14.5 -19t14.5 -15t6.5 -16q0 -10 -6 -14q-3 -2 -6 -2h-155q-3 0 -6 2q-6 4 -6 14v26q-24 -23 -46 -35.5t-45 -12.5q-41 0 -67 38v-142q0 -17 6.5 -27t15 -18t15 -15t6.5 -16
q0 -11 -6 -15q-3 -2 -6 -2h-198q-3 0 -6 2q-6 4 -6 15z" />
    <glyph glyph-name="paragraph" unicode="&#xb6;" horiz-adv-x="588" 
d="M276 295q-74 0 -122 17t-76 44.5t-39 63.5t-11 75t12 74.5t37 62t64 42.5t93 16h137q3 0 6 -1q2 -2 4 -3.5t2 -6.5v-668q0 -6 -6 -10q-3 -1 -6 -1h-92q-3 0 -6 1q-6 4 -6 10t7 11t16 10t16 12.5t7 18.5v203q0 29 -27 29h-10zM443 679q0 5 2 6.5t4 3.5q3 1 6 1h92
q3 0 6 -1q2 -2 4 -3.5t2 -6.5q0 -6 -7 -11t-16 -10t-16 -12.5t-7 -18.5v-564q0 -11 7 -18.5t16 -12.5t16 -10t7 -11t-6 -10q-3 -1 -6 -1h-92q-3 0 -6 1q-6 4 -6 10v668z" />
    <glyph glyph-name="periodcentered" unicode="&#xb7;" horiz-adv-x="200" 
d="M30 302q0 31 20.5 52t51.5 21q32 0 53 -21t21 -52t-21 -51.5t-53 -20.5q-31 0 -51.5 20.5t-20.5 51.5z" />
    <glyph glyph-name="cedilla" unicode="&#xb8;" horiz-adv-x="249" 
d="M115 16h60l-20 -53q16 -7 30.5 -18t23.5 -26t11.5 -34t-5.5 -40q-9 -23 -28.5 -38t-43 -24t-46.5 -12.5t-38 -3.5q-9 0 -15 2q-5 2 -7.5 8t-0.5 12q3 10 19 13q9 1 20 4t22.5 9t21 15t13.5 21q8 25 -6.5 42t-31.5 25q-10 5 -9.5 12t2.5 12z" />
    <glyph glyph-name="guillemotright" unicode="&#xbb;" horiz-adv-x="394" 
d="M192 266q-28 -28 -52 -52.5t-43 -41.5t-32 -25t-19 -3q-5 4 0 18t15.5 34.5t24.5 46.5t27 54q-13 28 -27 54t-24.5 47t-15.5 35t0 18q6 5 19 -3.5t32 -25.5t43 -41.5t52 -52.5q13 -14 13 -31t-13 -31zM350 266q-28 -28 -52 -52.5t-43 -41.5t-32 -25t-19 -3q-5 4 0 18
t15.5 34.5t24.5 46.5t27 54q-13 28 -27 54t-24.5 47t-15.5 35t0 18q6 5 19 -3.5t32 -25.5t43 -41.5t52 -52.5q13 -14 13 -31t-13 -31z" />
    <glyph glyph-name="questiondown" unicode="&#xbf;" horiz-adv-x="477" 
d="M251.014 -266.96q43.998 0 62.4961 24.498q18.499 24.499 15.5 56.4971q-4 41.9971 14.499 64.9961q18.498 22.998 50.4961 22.998q29.999 0 46.498 -21.498q16.499 -21.499 16.499 -49.4971q0 -30.998 -13.5 -58.9971q-13.499 -27.998 -40.9971 -48.9971
q-27.498 -20.998 -68.9961 -33.4971q-41.4971 -12.5 -96.4941 -12.5q-48.9971 0 -88.4941 11.5q-39.498 11.499 -67.4961 31.998q-27.998 20.498 -42.9971 48.9971q-14.999 28.498 -14.999 62.4961q0 39.9971 13.999 70.4951t34.998 54.4971q20.998 23.998 45.4971 43.4971
q24.498 19.499 45.4971 37.498q18.999 15.999 35.498 29.498t27.998 27.498t17.499 31.998q5.99902 17.999 4.99902 42.998q-1.99902 13.999 5.5 19.998q7.5 6 17.499 6q8.99902 0 16.499 -5t9.49902 -15.999q5 -45.9971 3.5 -75.4951t-7.99902 -49.9971
q-6.5 -20.499 -18.499 -34.998t-26.998 -29.498q-35.998 -35.998 -58.9971 -71.4951q-22.998 -35.498 -22.998 -86.4951q0 -23.999 6.99902 -41.4971q7 -17.499 18.999 -29.499q11.999 -11.999 27.498 -17.499q15.499 -5.49902 31.498 -5.49902zM343.009 328.004
q0 -31.998 -20.499 -52.9971t-51.4971 -20.999t-51.9971 20.999q-20.998 20.999 -20.998 52.9971q0 30.998 20.998 51.4961q20.999 20.499 51.9971 20.499t51.4971 -20.499q20.499 -20.498 20.499 -51.4961z" />
    <glyph glyph-name="Agrave" unicode="&#xc0;" horiz-adv-x="686" 
d="M302 529l-75 -217h148zM399 242h-195l-41 -120q-9 -28 -2.5 -42.5t18 -23.5t22.5 -16.5t11 -21.5q0 -7 -2.5 -10.5t-5.5 -5.5q-4 -2 -9 -2h-164q-6 0 -10 2t-7 5.5t-3 10.5q0 10 8.5 17.5t20 16t23 19.5t17.5 29q56 165 92 271.5t58 170.5t32 93.5t13 38.5q4 10 10 14
q4 2 7 2h101q3 0 7 -2l5 -5t5 -9l5.5 -16.5l11 -33t21 -60.5t34.5 -100t51 -151t72 -213q6 -18 17.5 -29t23 -19.5t20 -16t8.5 -17.5q0 -7 -3 -10.5t-7 -5.5t-10 -2h-237q-4 0 -8 2q-3 2 -5.5 5.5t-2.5 10.5q0 11 10 17.5t20.5 14t16.5 20.5t-2 37zM211 788q-22 11 -29.5 28
t-3.5 33t16.5 27.5t30.5 11.5q20 0 40 -17q69 -59 95 -90.5t17 -45.5q-5 -8 -18 -8q-18 0 -54.5 14.5t-93.5 46.5z" />
    <glyph glyph-name="Aacute" unicode="&#xc1;" horiz-adv-x="686" 
d="M302 529l-75 -217h148zM399 242h-195l-41 -120q-9 -28 -2.5 -42.5t18 -23.5t22.5 -16.5t11 -21.5q0 -7 -2.5 -10.5t-5.5 -5.5q-4 -2 -9 -2h-164q-6 0 -10 2t-7 5.5t-3 10.5q0 10 8.5 17.5t20 16t23 19.5t17.5 29q56 165 92 271.5t58 170.5t32 93.5t13 38.5q4 10 10 14
q4 2 7 2h101q3 0 7 -2l5 -5t5 -9l5.5 -16.5l11 -33t21 -60.5t34.5 -100t51 -151t72 -213q6 -18 17.5 -29t23 -19.5t20 -16t8.5 -17.5q0 -7 -3 -10.5t-7 -5.5t-10 -2h-237q-4 0 -8 2q-3 2 -5.5 5.5t-2.5 10.5q0 11 10 17.5t20.5 14t16.5 20.5t-2 37zM454 788
q-57 -32 -93.5 -46.5t-54.5 -14.5q-14 0 -19 8q-8 14 18 45.5t95 90.5q20 17 39 17q18 0 30.5 -11.5t16.5 -27.5t-3 -33t-29 -28z" />
    <glyph glyph-name="Acircumflex" unicode="&#xc2;" horiz-adv-x="686" 
d="M302 529l-75 -217h148zM399 242h-195l-41 -120q-9 -28 -2.5 -42.5t18 -23.5t22.5 -16.5t11 -21.5q0 -7 -2.5 -10.5t-5.5 -5.5q-4 -2 -9 -2h-164q-6 0 -10 2t-7 5.5t-3 10.5q0 10 8.5 17.5t20 16t23 19.5t17.5 29q56 165 92 271.5t58 170.5t32 93.5t13 38.5q4 10 10 14
q4 2 7 2h101q3 0 7 -2l5 -5t5 -9l5.5 -16.5l11 -33t21 -60.5t34.5 -100t51 -151t72 -213q6 -18 17.5 -29t23 -19.5t20 -16t8.5 -17.5q0 -7 -3 -10.5t-7 -5.5t-10 -2h-237q-4 0 -8 2q-3 2 -5.5 5.5t-2.5 10.5q0 11 10 17.5t20.5 14t16.5 20.5t-2 37zM313 877q13 13 30 13
q16 0 29 -13q54 -55 87 -91t25 -47q-3 -3 -8 -3q-8 0 -21.5 5.5t-31 14t-38 19.5t-43.5 23q-22 -12 -43 -23t-39 -19.5t-31 -14t-21 -5.5q-5 0 -7 3q-4 6 2.5 18t21.5 29.5t38 40.5z" />
    <glyph glyph-name="Atilde" unicode="&#xc3;" horiz-adv-x="686" 
d="M302 529l-75 -217h148zM399 242h-195l-41 -120q-9 -28 -2.5 -42.5t18 -23.5t22.5 -16.5t11 -21.5q0 -7 -2.5 -10.5t-5.5 -5.5q-4 -2 -9 -2h-164q-6 0 -10 2t-7 5.5t-3 10.5q0 10 8.5 17.5t20 16t23 19.5t17.5 29q56 165 92 271.5t58 170.5t32 93.5t13 38.5q4 10 10 14
q4 2 7 2h101q3 0 7 -2l5 -5t5 -9l5.5 -16.5l11 -33t21 -60.5t34.5 -100t51 -151t72 -213q6 -18 17.5 -29t23 -19.5t20 -16t8.5 -17.5q0 -7 -3 -10.5t-7 -5.5t-10 -2h-237q-4 0 -8 2q-3 2 -5.5 5.5t-2.5 10.5q0 11 10 17.5t20.5 14t16.5 20.5t-2 37zM524 845
q-14 -38 -44.5 -64t-74.5 -26q-19 0 -37.5 7t-36 15t-33 15.5t-29.5 7.5q-19 1 -33.5 -4.5t-30.5 -22.5q-15 -15 -28 -15q-11 0 -16 9t0 21q14 35 43 61.5t69 28.5q22 0 43 -7t40 -15.5t36.5 -15.5t32.5 -7q17 0 30.5 7.5t24.5 19.5q13 14 25 14q11 0 17 -9t2 -20z" />
    <glyph glyph-name="Adieresis" unicode="&#xc4;" horiz-adv-x="686" 
d="M302 529l-75 -217h148zM399 242h-195l-41 -120q-9 -28 -2.5 -42.5t18 -23.5t22.5 -16.5t11 -21.5q0 -7 -2.5 -10.5t-5.5 -5.5q-4 -2 -9 -2h-164q-6 0 -10 2t-7 5.5t-3 10.5q0 10 8.5 17.5t20 16t23 19.5t17.5 29q56 165 92 271.5t58 170.5t32 93.5t13 38.5q4 10 10 14
q4 2 7 2h101q3 0 7 -2l5 -5t5 -9l5.5 -16.5l11 -33t21 -60.5t34.5 -100t51 -151t72 -213q6 -18 17.5 -29t23 -19.5t20 -16t8.5 -17.5q0 -7 -3 -10.5t-7 -5.5t-10 -2h-237q-4 0 -8 2q-3 2 -5.5 5.5t-2.5 10.5q0 11 10 17.5t20.5 14t16.5 20.5t-2 37zM189 808q0 26 17.5 44.5
t44.5 18.5q26 0 44.5 -18.5t18.5 -44.5q0 -27 -18.5 -44.5t-44.5 -17.5q-27 0 -44.5 17.5t-17.5 44.5zM369 808q0 26 18 44.5t44 18.5q27 0 45 -18.5t18 -44.5q0 -27 -18 -44.5t-45 -17.5q-26 0 -44 17.5t-18 44.5z" />
    <glyph glyph-name="Aring" unicode="&#xc5;" horiz-adv-x="686" 
d="M302 529l-75 -217h148zM399 242h-195l-41 -120q-9 -28 -2.5 -42.5t18 -23.5t22.5 -16.5t11 -21.5q0 -7 -2.5 -10.5t-5.5 -5.5q-4 -2 -9 -2h-164q-6 0 -10 2t-7 5.5t-3 10.5q0 10 8.5 17.5t20 16t23 19.5t17.5 29q56 165 92 271.5t58 170.5t32 93.5t13 38.5q4 10 10 14
q4 2 7 2h101q3 0 7 -2l5 -5t5 -9l5.5 -16.5l11 -33t21 -60.5t34.5 -100t51 -151t72 -213q6 -18 17.5 -29t23 -19.5t20 -16t8.5 -17.5q0 -7 -3 -10.5t-7 -5.5t-10 -2h-237q-4 0 -8 2q-3 2 -5.5 5.5t-2.5 10.5q0 11 10 17.5t20.5 14t16.5 20.5t-2 37zM241 852q0 21 7.5 39.5
t21 32t32 21.5t40.5 8q21 0 39.5 -8t32 -21.5t21.5 -32t8 -39.5q0 -22 -8 -40.5t-21.5 -32t-32 -21t-39.5 -7.5q-44 0 -72.5 28.5t-28.5 72.5zM292 852q0 -22 14 -36t36 -14t36 14t14 36t-14 36t-36 14t-36 -14t-14 -36z" />
    <glyph glyph-name="AE" unicode="&#xc6;" horiz-adv-x="963" 
d="M302 312h157v258zM443 674q7 11 13.5 13.5t7.5 2.5h389q11 0 18.5 0.5t12.5 0.5t10 0.5t11 0.5q12 0 17 -9q2 -4 3 -9l5 -115q-1 -5 -4 -9q-2 -4 -7 -7t-15 -3q-18 0 -27 14t-20 31t-29 31t-54 14h-114q-20 0 -32.5 -12.5t-12.5 -31.5v-190h164q16 0 26.5 9.5t19 20.5
t15.5 20.5t16 9.5q11 0 14 -7q2 -3 2 -7v-157q0 -4 -2 -7q-2 -2 -5 -4.5t-9 -2.5q-9 0 -16 9.5t-15.5 20.5t-19 20.5t-26.5 9.5h-164v-196q0 -32 21 -53.5t63 -21.5h74q31 0 51 7t33 17t21 22.5t15 22.5t14.5 17t20.5 7q8 0 11 -3.5t5 -8.5q1 -5 0 -12l-14 -113q-1 -5 -4 -9
q-2 -3 -6.5 -6t-11.5 -3q-6 0 -11 0.5t-10 0.5t-12.5 0.5t-18.5 0.5h-431q-3 0 -6 2q-6 4 -6 14q0 9 7 16t16 15t16 19t7 27v149h-199l-73 -120q-16 -28 -13.5 -42.5t12 -23.5t19.5 -16.5t10 -21.5q0 -7 -2.5 -10.5t-5.5 -5.5q-4 -2 -8 -2h-164q-6 0 -10 2t-7 5.5t-3 10.5
q0 10 9.5 17.5t22.5 16t27 19.5t24 29z" />
    <glyph glyph-name="Ccedilla" unicode="&#xc7;" horiz-adv-x="687" 
d="M410 46q19 0 41 4.5t44 15t42 28.5t35 45q17 29 27.5 48t28.5 19q13 0 18 -11q2 -5 2 -11v-99q0 -19 -21.5 -36.5t-55.5 -31t-76 -21.5t-84 -8q-91 0 -161.5 29.5t-119 79.5t-74 115.5t-25.5 136.5t25.5 136t74 115t119 79.5t161.5 29.5q42 0 84 -8t76 -21.5t55.5 -31
t21.5 -36.5v-98q0 -6 -2 -11t-6 -8.5t-12 -3.5q-9 0 -16 5t-13 14t-12.5 21.5t-14.5 27.5q-15 27 -35 45t-42 28.5t-44.5 14.5t-42.5 4q-48 0 -87.5 -21t-68.5 -60t-45 -95t-16 -126t16 -126t45 -95.5t69.5 -60.5t88.5 -21zM336 11h60l-20 -53q16 -7 30.5 -18t23.5 -26
t11.5 -34t-5.5 -40q-9 -23 -28.5 -38t-43 -24t-46.5 -12.5t-38 -3.5q-9 0 -15 2q-5 2 -7.5 8t-0.5 12q3 10 19 13q9 1 20 4t22.5 9t21 15t13.5 21q8 25 -6.5 42t-31.5 25q-10 5 -9.5 12t2.5 12z" />
    <glyph glyph-name="Egrave" unicode="&#xc8;" horiz-adv-x="585" 
d="M233 331v-196q0 -32 20.5 -53.5t62.5 -21.5h74q47 0 70 14.5t36 32t22 32t27 14.5q8 0 11 -3.5t5 -8.5t1 -12l-15 -113q-1 -5 -4 -9q-2 -3 -6.5 -6t-11.5 -3q-6 0 -11 0.5t-10 0.5t-12.5 0.5t-18.5 0.5h-431q-3 0 -6 2q-6 4 -6 14q0 9 7 16t16 15t16 19t7 27v497
q0 18 -7 29t-16 19.5t-16 16t-7 17.5q0 12 6 16q3 2 6 2h428q11 0 18.5 0.5t12.5 0.5t10 0.5t11 0.5q12 0 17 -9q2 -4 3 -9l5 -115q0 -5 -3 -9q-2 -4 -7 -7t-15 -3q-18 0 -27.5 14t-20.5 31t-29 31t-53 14h-114q-21 0 -33 -12.5t-12 -31.5v-190h163q16 0 27 9.5t19.5 20.5
t15.5 20.5t16 9.5q10 0 13 -7q2 -3 2 -7v-157q0 -4 -2 -7l-4.5 -4.5t-8.5 -2.5q-9 0 -16 9.5t-15.5 20.5t-19.5 20.5t-27 9.5h-163zM240 788q-22 11 -29.5 28t-3.5 33t16.5 27.5t30.5 11.5q20 0 40 -17q69 -59 95 -90.5t17 -45.5q-5 -8 -18 -8q-18 0 -54.5 14.5t-93.5 46.5z
" />
    <glyph glyph-name="Eacute" unicode="&#xc9;" horiz-adv-x="585" 
d="M233 331v-196q0 -32 20.5 -53.5t62.5 -21.5h74q47 0 70 14.5t36 32t22 32t27 14.5q8 0 11 -3.5t5 -8.5t1 -12l-15 -113q-1 -5 -4 -9q-2 -3 -6.5 -6t-11.5 -3q-6 0 -11 0.5t-10 0.5t-12.5 0.5t-18.5 0.5h-431q-3 0 -6 2q-6 4 -6 14q0 9 7 16t16 15t16 19t7 27v497
q0 18 -7 29t-16 19.5t-16 16t-7 17.5q0 12 6 16q3 2 6 2h428q11 0 18.5 0.5t12.5 0.5t10 0.5t11 0.5q12 0 17 -9q2 -4 3 -9l5 -115q0 -5 -3 -9q-2 -4 -7 -7t-15 -3q-18 0 -27.5 14t-20.5 31t-29 31t-53 14h-114q-21 0 -33 -12.5t-12 -31.5v-190h163q16 0 27 9.5t19.5 20.5
t15.5 20.5t16 9.5q10 0 13 -7q2 -3 2 -7v-157q0 -4 -2 -7l-4.5 -4.5t-8.5 -2.5q-9 0 -16 9.5t-15.5 20.5t-19.5 20.5t-27 9.5h-163zM342 788q-57 -32 -93.5 -46.5t-54.5 -14.5q-14 0 -19 8q-8 14 18 45.5t95 90.5q20 17 39 17q18 0 30.5 -11.5t16.5 -27.5t-3 -33t-29 -28z
" />
    <glyph glyph-name="Ecircumflex" unicode="&#xca;" horiz-adv-x="585" 
d="M233 331v-196q0 -32 20.5 -53.5t62.5 -21.5h74q47 0 70 14.5t36 32t22 32t27 14.5q8 0 11 -3.5t5 -8.5t1 -12l-15 -113q-1 -5 -4 -9q-2 -3 -6.5 -6t-11.5 -3q-6 0 -11 0.5t-10 0.5t-12.5 0.5t-18.5 0.5h-431q-3 0 -6 2q-6 4 -6 14q0 9 7 16t16 15t16 19t7 27v497
q0 18 -7 29t-16 19.5t-16 16t-7 17.5q0 12 6 16q3 2 6 2h428q11 0 18.5 0.5t12.5 0.5t10 0.5t11 0.5q12 0 17 -9q2 -4 3 -9l5 -115q0 -5 -3 -9q-2 -4 -7 -7t-15 -3q-18 0 -27.5 14t-20.5 31t-29 31t-53 14h-114q-21 0 -33 -12.5t-12 -31.5v-190h163q16 0 27 9.5t19.5 20.5
t15.5 20.5t16 9.5q10 0 13 -7q2 -3 2 -7v-157q0 -4 -2 -7l-4.5 -4.5t-8.5 -2.5q-9 0 -16 9.5t-15.5 20.5t-19.5 20.5t-27 9.5h-163zM262 877q13 13 30 13q16 0 29 -13q54 -55 87 -91t25 -47q-3 -3 -8 -3q-8 0 -21.5 5.5t-31 14t-38 19.5t-43.5 23q-22 -12 -43 -23t-39 -19.5
t-31 -14t-21 -5.5q-5 0 -7 3q-4 6 2.5 18t21.5 29.5t38 40.5z" />
    <glyph glyph-name="Edieresis" unicode="&#xcb;" horiz-adv-x="585" 
d="M233 331v-196q0 -32 20.5 -53.5t62.5 -21.5h74q47 0 70 14.5t36 32t22 32t27 14.5q8 0 11 -3.5t5 -8.5t1 -12l-15 -113q-1 -5 -4 -9q-2 -3 -6.5 -6t-11.5 -3q-6 0 -11 0.5t-10 0.5t-12.5 0.5t-18.5 0.5h-431q-3 0 -6 2q-6 4 -6 14q0 9 7 16t16 15t16 19t7 27v497
q0 18 -7 29t-16 19.5t-16 16t-7 17.5q0 12 6 16q3 2 6 2h428q11 0 18.5 0.5t12.5 0.5t10 0.5t11 0.5q12 0 17 -9q2 -4 3 -9l5 -115q0 -5 -3 -9q-2 -4 -7 -7t-15 -3q-18 0 -27.5 14t-20.5 31t-29 31t-53 14h-114q-21 0 -33 -12.5t-12 -31.5v-190h163q16 0 27 9.5t19.5 20.5
t15.5 20.5t16 9.5q10 0 13 -7q2 -3 2 -7v-157q0 -4 -2 -7l-4.5 -4.5t-8.5 -2.5q-9 0 -16 9.5t-15.5 20.5t-19.5 20.5t-27 9.5h-163zM139 808q0 26 17.5 44.5t44.5 18.5q26 0 44.5 -18.5t18.5 -44.5q0 -27 -18.5 -44.5t-44.5 -17.5q-27 0 -44.5 17.5t-17.5 44.5zM319 808
q0 26 18 44.5t44 18.5q27 0 45 -18.5t18 -44.5q0 -27 -18 -44.5t-45 -17.5q-26 0 -44 17.5t-18 44.5z" />
    <glyph glyph-name="Igrave" unicode="&#xcc;" horiz-adv-x="311" 
d="M233 93q0 -16 7 -27t16 -19t16 -15t7 -16q0 -10 -6 -14q-3 -2 -6 -2h-225q-3 0 -6 2q-6 4 -6 14q0 9 7 16t16 15t16 19t7 27v497q0 18 -7 29t-16 19.5t-16 16t-7 17.5q0 12 6 16q3 2 6 2h225q3 0 6 -2q6 -4 6 -16q0 -10 -7 -17.5t-16 -16t-16 -19.5t-7 -29v-497zM103 788
q-22 11 -29.5 28t-3.5 33t16.5 27.5t30.5 11.5q20 0 40 -17q69 -59 95 -90.5t17 -45.5q-5 -8 -18 -8q-18 0 -54.5 14.5t-93.5 46.5z" />
    <glyph glyph-name="Iacute" unicode="&#xcd;" horiz-adv-x="311" 
d="M233 93q0 -16 7 -27t16 -19t16 -15t7 -16q0 -10 -6 -14q-3 -2 -6 -2h-225q-3 0 -6 2q-6 4 -6 14q0 9 7 16t16 15t16 19t7 27v497q0 18 -7 29t-16 19.5t-16 16t-7 17.5q0 12 6 16q3 2 6 2h225q3 0 6 -2q6 -4 6 -16q0 -10 -7 -17.5t-16 -16t-16 -19.5t-7 -29v-497zM206 788
q-57 -32 -93.5 -46.5t-54.5 -14.5q-14 0 -19 8q-8 14 18 45.5t95 90.5q20 17 39 17q18 0 30.5 -11.5t16.5 -27.5t-3 -33t-29 -28z" />
    <glyph glyph-name="Icircumflex" unicode="&#xce;" horiz-adv-x="311" 
d="M236 93q0 -16 7 -27t16 -19t16 -15t7 -16q0 -10 -6 -14q-3 -2 -6 -2h-225q-3 0 -6 2q-6 4 -6 14q0 9 7 16t16 15t16 19t7 27v497q0 18 -7 29t-16 19.5t-16 16t-7 17.5q0 12 6 16q3 2 6 2h225q3 0 6 -2q6 -4 6 -16q0 -10 -7 -17.5t-16 -16t-16 -19.5t-7 -29v-497zM129 877
q13 13 30 13q16 0 29 -13q54 -55 87 -91t25 -47q-3 -3 -8 -3q-8 0 -21.5 5.5t-31 14t-38 19.5t-43.5 23q-22 -12 -43 -23t-39 -19.5t-31 -14t-21 -5.5q-5 0 -7 3q-4 6 2.5 18t21.5 29.5t38 40.5z" />
    <glyph glyph-name="Idieresis" unicode="&#xcf;" horiz-adv-x="311" 
d="M233 93q0 -16 7 -27t16 -19t16 -15t7 -16q0 -10 -6 -14q-3 -2 -6 -2h-225q-3 0 -6 2q-6 4 -6 14q0 9 7 16t16 15t16 19t7 27v497q0 18 -7 29t-16 19.5t-16 16t-7 17.5q0 12 6 16q3 2 6 2h225q3 0 6 -2q6 -4 6 -16q0 -10 -7 -17.5t-16 -16t-16 -19.5t-7 -29v-497zM2 808
q0 26 17.5 44.5t44.5 18.5q26 0 44.5 -18.5t18.5 -44.5q0 -27 -18.5 -44.5t-44.5 -17.5q-27 0 -44.5 17.5t-17.5 44.5zM182 808q0 26 18 44.5t44 18.5q27 0 45 -18.5t18 -44.5q0 -27 -18 -44.5t-45 -17.5q-26 0 -44 17.5t-18 44.5z" />
    <glyph glyph-name="Eth" unicode="&#xd0;" horiz-adv-x="735" 
d="M257 110q0 -20 13.5 -38.5t40.5 -18.5h25q47 0 87 20t69 57.5t45 92.5t16 125q0 69 -16 123t-45 90.5t-69 56t-87 19.5h-44q-17 0 -26 -12t-9 -30v-213h131q4 0 7 -4q3 -3 5 -9.5t2 -19.5q0 -12 -2 -18.5t-5 -9.5q-3 -4 -7 -4h-131v-207zM66 0q-3 0 -6 2q-6 4 -6 14
q0 9 7 16t16 15t16 19t7 27v224h-69q-4 0 -7 4q-3 3 -5.5 9.5t-2.5 18.5q0 13 2.5 19.5t5.5 9.5q3 4 7 4h69v208q0 18 -7 29t-16 19.5t-16 16t-7 17.5q0 12 6 16q3 2 6 2h272q101 0 172.5 -30.5t116.5 -79.5t66 -110t21 -122q0 -62 -21 -124t-66 -112t-116.5 -81t-172.5 -31
h-272z" />
    <glyph glyph-name="Ntilde" unicode="&#xd1;" horiz-adv-x="694" 
d="M163 520v-427q0 -16 8 -27t18 -19t18 -15t8 -16q0 -10 -6 -14q-3 -2 -6 -2h-153q-3 0 -6 2q-6 4 -6 14q0 9 7 16t16 15t16 19t7 27v497q0 18 -7 29t-16 19.5t-16 16t-7 17.5q0 7 3.5 10.5t7.5 5.5q5 2 11 2h155q4 0 8 -2q3 -2 7 -5t9 -11l303 -411v337q0 17 -8.5 27
t-18 18t-18 15t-8.5 16q0 11 10 15q4 2 9 2h139q6 0 10 -2q10 -4 10 -15q0 -9 -7 -16t-16 -15t-16 -18t-7 -27v-580q0 -11 -11 -15q-5 -2 -11 -2h-41q-4 0 -9 2q-4 2 -8.5 5t-9.5 10zM528 845q-14 -38 -44.5 -64t-74.5 -26q-19 0 -37.5 7t-36 15t-33 15.5t-29.5 7.5
q-19 1 -33.5 -4.5t-30.5 -22.5q-15 -15 -28 -15q-11 0 -16 9t0 21q14 35 43 61.5t69 28.5q22 0 43 -7t40 -15.5t36.5 -15.5t32.5 -7q17 0 30.5 7.5t24.5 19.5q13 14 25 14q11 0 17 -9t2 -20z" />
    <glyph glyph-name="Ograve" unicode="&#xd2;" horiz-adv-x="763" 
d="M202 348q0 -66 11 -122t33 -96.5t56 -63.5t80 -23t79.5 23t55 63.5t32 96.5t10.5 122q0 65 -10.5 120t-32 95.5t-55 63.5t-79.5 23t-80 -23t-56 -63.5t-33 -95.5t-11 -120zM729 348q0 -62 -19.5 -126t-61 -116.5t-107.5 -85.5t-159 -33t-159 33t-108 85.5t-61.5 116.5
t-19.5 126q0 61 19.5 124.5t61.5 115.5t108 85t159 33t159 -33t107.5 -85t61 -115.5t19.5 -124.5zM329 788q-22 11 -29.5 28t-3.5 33t16.5 27.5t30.5 11.5q20 0 40 -17q69 -59 95 -90.5t17 -45.5q-5 -8 -18 -8q-18 0 -54.5 14.5t-93.5 46.5z" />
    <glyph glyph-name="Oacute" unicode="&#xd3;" horiz-adv-x="763" 
d="M202 348q0 -66 11 -122t33 -96.5t56 -63.5t80 -23t79.5 23t55 63.5t32 96.5t10.5 122q0 65 -10.5 120t-32 95.5t-55 63.5t-79.5 23t-80 -23t-56 -63.5t-33 -95.5t-11 -120zM729 348q0 -62 -19.5 -126t-61 -116.5t-107.5 -85.5t-159 -33t-159 33t-108 85.5t-61.5 116.5
t-19.5 126q0 61 19.5 124.5t61.5 115.5t108 85t159 33t159 -33t107.5 -85t61 -115.5t19.5 -124.5zM432 788q-57 -32 -93.5 -46.5t-54.5 -14.5q-14 0 -19 8q-8 14 18 45.5t95 90.5q20 17 39 17q18 0 30.5 -11.5t16.5 -27.5t-3 -33t-29 -28z" />
    <glyph glyph-name="Ocircumflex" unicode="&#xd4;" horiz-adv-x="763" 
d="M202 348q0 -66 11 -122t33 -96.5t56 -63.5t80 -23t79.5 23t55 63.5t32 96.5t10.5 122q0 65 -10.5 120t-32 95.5t-55 63.5t-79.5 23t-80 -23t-56 -63.5t-33 -95.5t-11 -120zM729 348q0 -62 -19.5 -126t-61 -116.5t-107.5 -85.5t-159 -33t-159 33t-108 85.5t-61.5 116.5
t-19.5 126q0 61 19.5 124.5t61.5 115.5t108 85t159 33t159 -33t107.5 -85t61 -115.5t19.5 -124.5zM351 877q13 13 30 13q16 0 29 -13q54 -55 87 -91t25 -47q-3 -3 -8 -3q-8 0 -21.5 5.5t-31 14t-38 19.5t-43.5 23q-22 -12 -43 -23t-39 -19.5t-31 -14t-21 -5.5q-5 0 -7 3
q-4 6 2.5 18t21.5 29.5t38 40.5z" />
    <glyph glyph-name="Otilde" unicode="&#xd5;" horiz-adv-x="763" 
d="M202 348q0 -66 11 -122t33 -96.5t56 -63.5t80 -23t79.5 23t55 63.5t32 96.5t10.5 122q0 65 -10.5 120t-32 95.5t-55 63.5t-79.5 23t-80 -23t-56 -63.5t-33 -95.5t-11 -120zM729 348q0 -62 -19.5 -126t-61 -116.5t-107.5 -85.5t-159 -33t-159 33t-108 85.5t-61.5 116.5
t-19.5 126q0 61 19.5 124.5t61.5 115.5t108 85t159 33t159 -33t107.5 -85t61 -115.5t19.5 -124.5zM562 845q-14 -38 -44.5 -64t-74.5 -26q-19 0 -37.5 7t-36 15t-33 15.5t-29.5 7.5q-19 1 -33.5 -4.5t-30.5 -22.5q-15 -15 -28 -15q-11 0 -16 9t0 21q14 35 43 61.5t69 28.5
q22 0 43 -7t40 -15.5t36.5 -15.5t32.5 -7q17 0 30.5 7.5t24.5 19.5q13 14 25 14q11 0 17 -9t2 -20z" />
    <glyph glyph-name="Odieresis" unicode="&#xd6;" horiz-adv-x="763" 
d="M202 348q0 -66 11 -122t33 -96.5t56 -63.5t80 -23t79.5 23t55 63.5t32 96.5t10.5 122q0 65 -10.5 120t-32 95.5t-55 63.5t-79.5 23t-80 -23t-56 -63.5t-33 -95.5t-11 -120zM729 348q0 -62 -19.5 -126t-61 -116.5t-107.5 -85.5t-159 -33t-159 33t-108 85.5t-61.5 116.5
t-19.5 126q0 61 19.5 124.5t61.5 115.5t108 85t159 33t159 -33t107.5 -85t61 -115.5t19.5 -124.5zM227 808q0 26 17.5 44.5t44.5 18.5q26 0 44.5 -18.5t18.5 -44.5q0 -27 -18.5 -44.5t-44.5 -17.5q-27 0 -44.5 17.5t-17.5 44.5zM407 808q0 26 18 44.5t44 18.5q27 0 45 -18.5
t18 -44.5q0 -27 -18 -44.5t-45 -17.5q-26 0 -44 17.5t-18 44.5z" />
    <glyph glyph-name="multiply" unicode="&#xd7;" 
d="M359 436q12 -11 16.5 -19t6.5 -13q1 -5 -1 -8l-99 -99l100 -99q2 -3 1 -8q-2 -5 -7 -13t-17 -20q-11 -11 -18 -15t-12 -6q-5 -1 -8 1l-100 99l-99 -99q-3 -2 -8 -1q-5 2 -13 7t-20 16q-11 11 -15 18.5t-6 12.5q-1 5 1 8l99 99l-98 99q-2 3 -1 8t5 12t15 18q12 12 20 17
t13 7q6 1 9 -1l98 -99l99 99q3 2 8 1q5 -2 12.5 -6.5t18.5 -15.5z" />
    <glyph glyph-name="Oslash" unicode="&#xd8;" horiz-adv-x="748" 
d="M203 348q0 -74 14 -138l300 355q-22 40 -55 62.5t-79 22.5t-80 -23t-56 -63.5t-33 -95.5t-11 -120zM241 141q23 -46 57.5 -72t84.5 -26q46 0 79.5 23t55 63.5t32 96.5t10.5 122q0 42 -4 79.5t-13 69.5zM730 348q0 -62 -19.5 -126t-61 -116.5t-107.5 -85.5t-159 -33
q-69 0 -121.5 18t-93.5 49l-49 -58l-3 -3q-4 -2 -9 -2q-10 0 -23 12q-10 8 -13 14t-4 11q0 5 3 9l52 61q-45 54 -66 120t-21 130q0 61 19.5 124.5t61.5 115.5t108 85t159 33q63 0 114 -16t90 -43l46 54l3 3q4 2 9 2q11 0 24 -12q9 -8 12 -13.5t3 -10.5t-3 -9l-47 -56
q51 -54 73.5 -122.5t22.5 -134.5z" />
    <glyph glyph-name="Ugrave" unicode="&#xd9;" horiz-adv-x="677" 
d="M608 225q0 -53 -21 -96.5t-57 -74.5t-84.5 -48t-104.5 -17q-55 0 -103.5 17t-84.5 48t-56.5 74.5t-20.5 96.5v365q0 18 -7 29t-16 19.5t-16 16t-7 17.5q0 12 6 16q3 2 6 2h225q3 0 6 -2q6 -4 6 -16q0 -10 -7 -17.5t-16 -16t-16 -19.5t-7 -29v-365q0 -37 11.5 -66
t31.5 -49.5t47 -31t57 -10.5q31 0 58 11t47.5 31.5t32 49.5t11.5 65v373q0 17 -8.5 27t-18 18t-18 15t-8.5 16q0 11 10 15q4 2 9 2h139q6 0 10 -2q10 -4 10 -15q0 -9 -7 -16t-16 -15t-16 -18t-7 -27v-373zM286 788q-22 11 -29.5 28t-3.5 33t16.5 27.5t30.5 11.5q20 0 40 -17
q69 -59 95 -90.5t17 -45.5q-5 -8 -18 -8q-18 0 -54.5 14.5t-93.5 46.5z" />
    <glyph glyph-name="Uacute" unicode="&#xda;" horiz-adv-x="677" 
d="M608 225q0 -53 -21 -96.5t-57 -74.5t-84.5 -48t-104.5 -17q-55 0 -103.5 17t-84.5 48t-56.5 74.5t-20.5 96.5v365q0 18 -7 29t-16 19.5t-16 16t-7 17.5q0 12 6 16q3 2 6 2h225q3 0 6 -2q6 -4 6 -16q0 -10 -7 -17.5t-16 -16t-16 -19.5t-7 -29v-365q0 -37 11.5 -66
t31.5 -49.5t47 -31t57 -10.5q31 0 58 11t47.5 31.5t32 49.5t11.5 65v373q0 17 -8.5 27t-18 18t-18 15t-8.5 16q0 11 10 15q4 2 9 2h139q6 0 10 -2q10 -4 10 -15q0 -9 -7 -16t-16 -15t-16 -18t-7 -27v-373zM389 788q-57 -32 -93.5 -46.5t-54.5 -14.5q-14 0 -19 8
q-8 14 18 45.5t95 90.5q20 17 39 17q18 0 30.5 -11.5t16.5 -27.5t-3 -33t-29 -28z" />
    <glyph glyph-name="Ucircumflex" unicode="&#xdb;" horiz-adv-x="677" 
d="M608 225q0 -53 -21 -96.5t-57 -74.5t-84.5 -48t-104.5 -17q-55 0 -103.5 17t-84.5 48t-56.5 74.5t-20.5 96.5v365q0 18 -7 29t-16 19.5t-16 16t-7 17.5q0 12 6 16q3 2 6 2h225q3 0 6 -2q6 -4 6 -16q0 -10 -7 -17.5t-16 -16t-16 -19.5t-7 -29v-365q0 -37 11.5 -66
t31.5 -49.5t47 -31t57 -10.5q31 0 58 11t47.5 31.5t32 49.5t11.5 65v373q0 17 -8.5 27t-18 18t-18 15t-8.5 16q0 11 10 15q4 2 9 2h139q6 0 10 -2q10 -4 10 -15q0 -9 -7 -16t-16 -15t-16 -18t-7 -27v-373zM308 877q13 13 30 13q16 0 29 -13q54 -55 87 -91t25 -47
q-3 -3 -8 -3q-8 0 -21.5 5.5t-31 14t-38 19.5t-43.5 23q-22 -12 -43 -23t-39 -19.5t-31 -14t-21 -5.5q-5 0 -7 3q-4 6 2.5 18t21.5 29.5t38 40.5z" />
    <glyph glyph-name="Udieresis" unicode="&#xdc;" horiz-adv-x="677" 
d="M608 225q0 -53 -21 -96.5t-57 -74.5t-84.5 -48t-104.5 -17q-55 0 -103.5 17t-84.5 48t-56.5 74.5t-20.5 96.5v365q0 18 -7 29t-16 19.5t-16 16t-7 17.5q0 12 6 16q3 2 6 2h225q3 0 6 -2q6 -4 6 -16q0 -10 -7 -17.5t-16 -16t-16 -19.5t-7 -29v-365q0 -37 11.5 -66
t31.5 -49.5t47 -31t57 -10.5q31 0 58 11t47.5 31.5t32 49.5t11.5 65v373q0 17 -8.5 27t-18 18t-18 15t-8.5 16q0 11 10 15q4 2 9 2h139q6 0 10 -2q10 -4 10 -15q0 -9 -7 -16t-16 -15t-16 -18t-7 -27v-373zM185 808q0 26 17.5 44.5t44.5 18.5q26 0 44.5 -18.5t18.5 -44.5
q0 -27 -18.5 -44.5t-44.5 -17.5q-27 0 -44.5 17.5t-17.5 44.5zM365 808q0 26 18 44.5t44 18.5q27 0 45 -18.5t18 -44.5q0 -27 -18 -44.5t-45 -17.5q-26 0 -44 17.5t-18 44.5z" />
    <glyph glyph-name="Yacute" unicode="&#xdd;" horiz-adv-x="675" 
d="M206 16q0 9 7 16t16 15t16 19t7 27v181l-169 316q-10 18 -23 29t-25 19.5t-20.5 16t-8.5 17.5q0 12 11 16q4 2 10 2h227q5 0 10 -2q3 -2 6 -5.5t3 -10.5q0 -10 -8.5 -17.5t-16 -16t-10.5 -19.5t7 -29l120 -225l117 209q16 27 14 41.5t-10.5 23.5t-18 15.5t-9.5 17.5
q0 8 3 11.5t7 5.5t9 2h172q4 0 8 -2l4.5 -4.5t2.5 -8.5q0 -9 -9 -15t-21 -13.5t-24.5 -17t-20.5 -24.5l-181 -323v-190q0 -16 7 -27t16 -19t16 -15t7 -16q0 -10 -6 -14q-3 -2 -6 -2h-224q-3 0 -6 2q-6 4 -6 14zM417 788q-57 -32 -93.5 -46.5t-54.5 -14.5q-14 0 -19 8
q-8 14 18 45.5t95 90.5q20 17 39 17q18 0 30.5 -11.5t16.5 -27.5t-3 -33t-29 -28z" />
    <glyph glyph-name="Thorn" unicode="&#xde;" horiz-adv-x="605" 
d="M252 497q-16 0 -19 -19v-256q3 -17 19 -17h33q39 0 66.5 12t44.5 32.5t24.5 47t7.5 54.5q0 29 -7.5 55.5t-24 46.5t-42.5 32t-61 12h-41zM233 573q2 -24 27 -24h71q68 0 116 -16.5t79 -43.5t45 -62.5t14 -74.5q1 -39 -13 -75t-46 -63.5t-83.5 -44.5t-125.5 -17h-57
q-24 0 -27 -23v-36q0 -16 7 -27t16 -19t16 -15t7 -16q0 -10 -6 -14q-3 -2 -6 -2h-225q-3 0 -6 2q-6 4 -6 14q0 9 7 16t16 15t16 19t7 27v507q0 17 -7 27.5t-16 18.5t-16 15t-7 16q0 10 6 14q3 2 6 2h225q3 0 6 -2q6 -4 6 -14q0 -9 -7 -16t-16 -15t-16 -18.5t-7 -27.5v-27z
" />
    <glyph glyph-name="germandbls" unicode="&#xdf;" horiz-adv-x="579" 
d="M204 16q0 -10 -6 -14q-3 -2 -6 -2h-155q-3 0 -6 2q-6 4 -6 14q0 9 6.5 16t14.5 15t14.5 19t6.5 27v398q0 46 14 85.5t42.5 69t70.5 46.5t99 17q46 0 87 -11.5t71.5 -33.5t48 -55t17.5 -75q0 -49 -27.5 -95.5t-95.5 -75.5q76 -17 120 -65t44 -113q0 -43 -20 -79
t-54.5 -62.5t-81.5 -41.5t-102 -15q-14 0 -22 7t-9.5 16t4 17t17.5 11q14 2 32 11t35 26t28.5 44t11.5 65q0 43 -10 72t-26.5 47t-37.5 26.5t-42 11.5q-17 3 -17 22q0 20 17 22q23 3 41.5 15.5t32.5 31.5t21.5 43.5t7.5 52.5q0 58 -28 88t-64 30q-47 0 -67.5 -35t-20.5 -86
v-509z" />
    <glyph glyph-name="agrave" unicode="&#xe0;" horiz-adv-x="512" 
d="M310 248q-1 0 -12 0.5t-28 -1t-36 -6.5t-35 -16t-27 -29t-11 -46q0 -36 20.5 -59.5t54.5 -23.5q33 0 51.5 20.5t22.5 45.5v115zM63 393q0 20 13.5 37.5t37 30.5t56 20.5t71.5 7.5q97 0 151.5 -43t54.5 -115v-238q0 -16 6.5 -27t15 -19t15 -15t6.5 -16q0 -6 -3 -9t-6 -5
q-5 -2 -10 -2h-143q-5 0 -9 3q-3 2 -6 7t-3 13v28q-22 -26 -55 -42.5t-87 -16.5q-65 0 -105.5 36.5t-40.5 103.5q0 51 26 86t67 55.5t92.5 27.5t102.5 3v30q0 43 -19 67t-50 24q-28 0 -42.5 -12.5t-25.5 -27.5t-23.5 -27.5t-36.5 -12.5q-22 0 -36 13t-14 35zM204 588
q-22 11 -29.5 28t-3.5 33t16.5 27.5t30.5 11.5q20 0 40 -17q69 -59 95 -90.5t17 -45.5q-5 -8 -18 -8q-18 0 -54.5 14.5t-93.5 46.5z" />
    <glyph glyph-name="aacute" unicode="&#xe1;" horiz-adv-x="512" 
d="M310 248q-1 0 -12 0.5t-28 -1t-36 -6.5t-35 -16t-27 -29t-11 -46q0 -36 20.5 -59.5t54.5 -23.5q33 0 51.5 20.5t22.5 45.5v115zM63 393q0 20 13.5 37.5t37 30.5t56 20.5t71.5 7.5q97 0 151.5 -43t54.5 -115v-238q0 -16 6.5 -27t15 -19t15 -15t6.5 -16q0 -6 -3 -9t-6 -5
q-5 -2 -10 -2h-143q-5 0 -9 3q-3 2 -6 7t-3 13v28q-22 -26 -55 -42.5t-87 -16.5q-65 0 -105.5 36.5t-40.5 103.5q0 51 26 86t67 55.5t92.5 27.5t102.5 3v30q0 43 -19 67t-50 24q-28 0 -42.5 -12.5t-25.5 -27.5t-23.5 -27.5t-36.5 -12.5q-22 0 -36 13t-14 35zM307 588
q-57 -32 -93.5 -46.5t-54.5 -14.5q-14 0 -19 8q-8 14 18 45.5t95 90.5q20 17 39 17q18 0 30.5 -11.5t16.5 -27.5t-3 -33t-29 -28z" />
    <glyph glyph-name="acircumflex" unicode="&#xe2;" horiz-adv-x="512" 
d="M310 248q-1 0 -12 0.5t-28 -1t-36 -6.5t-35 -16t-27 -29t-11 -46q0 -36 20.5 -59.5t54.5 -23.5q33 0 51.5 20.5t22.5 45.5v115zM63 393q0 20 13.5 37.5t37 30.5t56 20.5t71.5 7.5q97 0 151.5 -43t54.5 -115v-238q0 -16 6.5 -27t15 -19t15 -15t6.5 -16q0 -6 -3 -9t-6 -5
q-5 -2 -10 -2h-143q-5 0 -9 3q-3 2 -6 7t-3 13v28q-22 -26 -55 -42.5t-87 -16.5q-65 0 -105.5 36.5t-40.5 103.5q0 51 26 86t67 55.5t92.5 27.5t102.5 3v30q0 43 -19 67t-50 24q-28 0 -42.5 -12.5t-25.5 -27.5t-23.5 -27.5t-36.5 -12.5q-22 0 -36 13t-14 35zM226 677
q13 13 30 13q16 0 29 -13q54 -55 87 -91t25 -47q-3 -3 -8 -3q-8 0 -21.5 5.5t-31 14t-38 19.5t-43.5 23q-22 -12 -43 -23t-39 -19.5t-31 -14t-21 -5.5q-5 0 -7 3q-4 6 2.5 18t21.5 29.5t38 40.5z" />
    <glyph glyph-name="atilde" unicode="&#xe3;" horiz-adv-x="512" 
d="M310 248q-1 0 -12 0.5t-28 -1t-36 -6.5t-35 -16t-27 -29t-11 -46q0 -36 20.5 -59.5t54.5 -23.5q33 0 51.5 20.5t22.5 45.5v115zM63 393q0 20 13.5 37.5t37 30.5t56 20.5t71.5 7.5q97 0 151.5 -43t54.5 -115v-238q0 -16 6.5 -27t15 -19t15 -15t6.5 -16q0 -6 -3 -9t-6 -5
q-5 -2 -10 -2h-143q-5 0 -9 3q-3 2 -6 7t-3 13v28q-22 -26 -55 -42.5t-87 -16.5q-65 0 -105.5 36.5t-40.5 103.5q0 51 26 86t67 55.5t92.5 27.5t102.5 3v30q0 43 -19 67t-50 24q-28 0 -42.5 -12.5t-25.5 -27.5t-23.5 -27.5t-36.5 -12.5q-22 0 -36 13t-14 35zM437 645
q-14 -38 -44.5 -64t-74.5 -26q-19 0 -37.5 7t-36 15t-33 15.5t-29.5 7.5q-19 1 -33.5 -4.5t-30.5 -22.5q-15 -15 -28 -15q-11 0 -16 9t0 21q14 35 43 61.5t69 28.5q22 0 43 -7t40 -15.5t36.5 -15.5t32.5 -7q17 0 30.5 7.5t24.5 19.5q13 14 25 14q11 0 17 -9t2 -20z" />
    <glyph glyph-name="adieresis" unicode="&#xe4;" horiz-adv-x="512" 
d="M310 248q-1 0 -12 0.5t-28 -1t-36 -6.5t-35 -16t-27 -29t-11 -46q0 -36 20.5 -59.5t54.5 -23.5q33 0 51.5 20.5t22.5 45.5v115zM63 393q0 20 13.5 37.5t37 30.5t56 20.5t71.5 7.5q97 0 151.5 -43t54.5 -115v-238q0 -16 6.5 -27t15 -19t15 -15t6.5 -16q0 -6 -3 -9t-6 -5
q-5 -2 -10 -2h-143q-5 0 -9 3q-3 2 -6 7t-3 13v28q-22 -26 -55 -42.5t-87 -16.5q-65 0 -105.5 36.5t-40.5 103.5q0 51 26 86t67 55.5t92.5 27.5t102.5 3v30q0 43 -19 67t-50 24q-28 0 -42.5 -12.5t-25.5 -27.5t-23.5 -27.5t-36.5 -12.5q-22 0 -36 13t-14 35zM102 608
q0 26 17.5 44.5t44.5 18.5q26 0 44.5 -18.5t18.5 -44.5q0 -27 -18.5 -44.5t-44.5 -17.5q-27 0 -44.5 17.5t-17.5 44.5zM282 608q0 26 18 44.5t44 18.5q27 0 45 -18.5t18 -44.5q0 -27 -18 -44.5t-45 -17.5q-26 0 -44 17.5t-18 44.5z" />
    <glyph glyph-name="aring" unicode="&#xe5;" horiz-adv-x="512" 
d="M310 248q-1 0 -12 0.5t-28 -1t-36 -6.5t-35 -16t-27 -29t-11 -46q0 -36 20.5 -59.5t54.5 -23.5q33 0 51.5 20.5t22.5 45.5v115zM63 393q0 20 13.5 37.5t37 30.5t56 20.5t71.5 7.5q97 0 151.5 -43t54.5 -115v-238q0 -16 6.5 -27t15 -19t15 -15t6.5 -16q0 -6 -3 -9t-6 -5
q-5 -2 -10 -2h-143q-5 0 -9 3q-3 2 -6 7t-3 13v28q-22 -26 -55 -42.5t-87 -16.5q-65 0 -105.5 36.5t-40.5 103.5q0 51 26 86t67 55.5t92.5 27.5t102.5 3v30q0 43 -19 67t-50 24q-28 0 -42.5 -12.5t-25.5 -27.5t-23.5 -27.5t-36.5 -12.5q-22 0 -36 13t-14 35zM154 652
q0 21 7.5 39.5t21 32t32 21.5t40.5 8q21 0 39.5 -8t32 -21.5t21.5 -32t8 -39.5q0 -22 -8 -40.5t-21.5 -32t-32 -21t-39.5 -7.5q-44 0 -72.5 28.5t-28.5 72.5zM205 652q0 -22 14 -36t36 -14t36 14t14 36t-14 36t-36 14t-36 -14t-14 -36z" />
    <glyph glyph-name="ae" unicode="&#xe6;" horiz-adv-x="792" 
d="M311 248q-1 0 -12 0.5t-28 -1t-36 -6.5t-35 -16t-27 -29t-11 -46q0 -36 20.5 -59.5t54.5 -23.5q33 0 51.5 20.5t22.5 45.5v115zM566 422q-42 0 -70.5 -34t-36.5 -103h168q31 0 29 29q-1 23 -8.5 42.5t-19.5 34t-28 23t-34 8.5zM457 226q4 -82 43.5 -125.5t93.5 -43.5
q45 0 76.5 19.5t52.5 38.5q7 7 16 7q14 0 18.5 -16.5t-13.5 -36.5q-29 -32 -77.5 -57t-115.5 -25q-66 0 -113 25t-76 65q-38 -42 -83.5 -63.5t-109.5 -21.5q-65 0 -105.5 36.5t-40.5 103.5q0 51 26 86t67 55.5t92.5 27.5t102.5 3v30q0 43 -19 67t-50 24q-28 0 -42.5 -12.5
t-25.5 -27.5t-23.5 -27.5t-36.5 -12.5q-22 0 -36 13t-14 35q0 20 13.5 37.5t37 30.5t56 20.5t71.5 7.5q55 0 96.5 -15.5t67.5 -43.5q29 24 67.5 38.5t89.5 14.5q36 0 74 -10t69.5 -33.5t51.5 -62t20 -95.5q-1 -28 -11 -42t-39 -14h-271z" />
    <glyph glyph-name="ccedilla" unicode="&#xe7;" horiz-adv-x="492" 
d="M399 360q-16 30 -42 45.5t-56 16.5q-24 0 -47 -11t-41 -34.5t-28.5 -58.5t-10.5 -82q0 -44 11 -77.5t29.5 -56t42.5 -34t51 -11.5q45 0 75 19.5t51 38.5q7 7 16 7q14 0 18.5 -16.5t-13.5 -36.5q-29 -32 -78 -57t-116 -25q-61 0 -105 22t-72.5 57t-41.5 80t-13 90
q0 44 15.5 88t47.5 79.5t81.5 57.5t117.5 22q27 0 57.5 -6t55.5 -16.5t41.5 -25t16.5 -30.5v-74q0 -6 -2 -10q-2 -5 -5.5 -8t-11.5 -3q-9 0 -16 5t-12 12.5t-8.5 16.5t-7.5 16zM231 10h60l-20 -53q16 -7 30.5 -18t23.5 -26t11.5 -34t-5.5 -40q-9 -23 -28.5 -38t-43 -24
t-46.5 -12.5t-38 -3.5q-9 0 -15 2q-5 2 -7.5 8t-0.5 12q3 10 19 13q9 1 20 4t22.5 9t21 15t13.5 21q8 25 -6.5 42t-31.5 25q-10 5 -9.5 12t2.5 12z" />
    <glyph glyph-name="egrave" unicode="&#xe8;" horiz-adv-x="518" 
d="M373 314q-1 23 -9 42.5t-20 34t-28 23t-34 8.5q-41 0 -69.5 -34t-36.5 -103h167q30 0 30 29zM174 226q1 -41 13 -72.5t30.5 -53t42.5 -32.5t50 -11q45 0 76.5 19.5t52.5 38.5q7 7 16 7q14 0 18.5 -16.5t-13.5 -36.5q-29 -32 -77 -57t-115 -25q-62 0 -107 22t-74.5 57
t-43.5 80t-14 90q0 44 15 88t46 79.5t78 57.5t111 22q36 0 74 -10t69.5 -33.5t51.5 -62t20 -95.5q0 -28 -10.5 -42t-39.5 -14h-270zM207 588q-22 11 -29.5 28t-3.5 33t16.5 27.5t30.5 11.5q20 0 40 -17q69 -59 95 -90.5t17 -45.5q-5 -8 -18 -8q-18 0 -54.5 14.5t-93.5 46.5z
" />
    <glyph glyph-name="eacute" unicode="&#xe9;" horiz-adv-x="518" 
d="M373 314q-1 23 -9 42.5t-20 34t-28 23t-34 8.5q-41 0 -69.5 -34t-36.5 -103h167q30 0 30 29zM174 226q1 -41 13 -72.5t30.5 -53t42.5 -32.5t50 -11q45 0 76.5 19.5t52.5 38.5q7 7 16 7q14 0 18.5 -16.5t-13.5 -36.5q-29 -32 -77 -57t-115 -25q-62 0 -107 22t-74.5 57
t-43.5 80t-14 90q0 44 15 88t46 79.5t78 57.5t111 22q36 0 74 -10t69.5 -33.5t51.5 -62t20 -95.5q0 -28 -10.5 -42t-39.5 -14h-270zM309 588q-57 -32 -93.5 -46.5t-54.5 -14.5q-14 0 -19 8q-8 14 18 45.5t95 90.5q20 17 39 17q18 0 30.5 -11.5t16.5 -27.5t-3 -33t-29 -28z
" />
    <glyph glyph-name="ecircumflex" unicode="&#xea;" horiz-adv-x="518" 
d="M373 314q-1 23 -9 42.5t-20 34t-28 23t-34 8.5q-41 0 -69.5 -34t-36.5 -103h167q30 0 30 29zM174 226q1 -41 13 -72.5t30.5 -53t42.5 -32.5t50 -11q45 0 76.5 19.5t52.5 38.5q7 7 16 7q14 0 18.5 -16.5t-13.5 -36.5q-29 -32 -77 -57t-115 -25q-62 0 -107 22t-74.5 57
t-43.5 80t-14 90q0 44 15 88t46 79.5t78 57.5t111 22q36 0 74 -10t69.5 -33.5t51.5 -62t20 -95.5q0 -28 -10.5 -42t-39.5 -14h-270zM229 677q13 13 30 13q16 0 29 -13q54 -55 87 -91t25 -47q-3 -3 -8 -3q-8 0 -21.5 5.5t-31 14t-38 19.5t-43.5 23q-22 -12 -43 -23t-39 -19.5
t-31 -14t-21 -5.5q-5 0 -7 3q-4 6 2.5 18t21.5 29.5t38 40.5z" />
    <glyph glyph-name="edieresis" unicode="&#xeb;" horiz-adv-x="518" 
d="M373 314q-1 23 -9 42.5t-20 34t-28 23t-34 8.5q-41 0 -69.5 -34t-36.5 -103h167q30 0 30 29zM174 226q1 -41 13 -72.5t30.5 -53t42.5 -32.5t50 -11q45 0 76.5 19.5t52.5 38.5q7 7 16 7q14 0 18.5 -16.5t-13.5 -36.5q-29 -32 -77 -57t-115 -25q-62 0 -107 22t-74.5 57
t-43.5 80t-14 90q0 44 15 88t46 79.5t78 57.5t111 22q36 0 74 -10t69.5 -33.5t51.5 -62t20 -95.5q0 -28 -10.5 -42t-39.5 -14h-270zM106 608q0 26 17.5 44.5t44.5 18.5q26 0 44.5 -18.5t18.5 -44.5q0 -27 -18.5 -44.5t-44.5 -17.5q-27 0 -44.5 17.5t-17.5 44.5zM286 608
q0 26 18 44.5t44 18.5q27 0 45 -18.5t18 -44.5q0 -27 -18 -44.5t-45 -17.5q-26 0 -44 17.5t-18 44.5z" />
    <glyph glyph-name="igrave" unicode="&#xec;" horiz-adv-x="289" 
d="M218 93q0 -16 6.5 -27t15 -19t15 -15t6.5 -16q0 -10 -6 -14q-3 -2 -6 -2h-198q-3 0 -6 2q-6 4 -6 14q0 9 6.5 16t14.5 15t14.5 19t6.5 27v261q0 19 -6.5 28t-15 14.5t-15 10.5t-6.5 15q0 7 3.5 11t7.5 6q5 3 11 5l134 39q7 2 12 1q5 -2 8.5 -7t3.5 -17v-367zM92 588
q-22 11 -29.5 28t-3.5 33t16.5 27.5t30.5 11.5q20 0 40 -17q69 -59 95 -90.5t17 -45.5q-5 -8 -18 -8q-18 0 -54.5 14.5t-93.5 46.5z" />
    <glyph glyph-name="iacute" unicode="&#xed;" horiz-adv-x="289" 
d="M224 93q0 -16 6.5 -27t15 -19t15 -15t6.5 -16q0 -10 -6 -14q-3 -2 -6 -2h-198q-3 0 -6 2q-6 4 -6 14q0 9 6.5 16t14.5 15t14.5 19t6.5 27v261q0 19 -6.5 28t-15 14.5t-15 10.5t-6.5 15q0 7 3.5 11t7.5 6q5 3 11 5l134 39q7 2 12 1q5 -2 8.5 -7t3.5 -17v-367zM201 588
q-57 -32 -93.5 -46.5t-54.5 -14.5q-14 0 -19 8q-8 14 18 45.5t95 90.5q20 17 39 17q18 0 30.5 -11.5t16.5 -27.5t-3 -33t-29 -28z" />
    <glyph glyph-name="icircumflex" unicode="&#xee;" horiz-adv-x="289" 
d="M221 93q0 -16 6.5 -27t15 -19t15 -15t6.5 -16q0 -10 -6 -14q-3 -2 -6 -2h-198q-3 0 -6 2q-6 4 -6 14q0 9 6.5 16t14.5 15t14.5 19t6.5 27v261q0 19 -6.5 28t-15 14.5t-15 10.5t-6.5 15q0 7 3.5 11t7.5 6q5 3 11 5l134 39q7 2 12 1q5 -2 8.5 -7t3.5 -17v-367zM118 677
q13 13 30 13q16 0 29 -13q54 -55 87 -91t25 -47q-3 -3 -8 -3q-8 0 -21.5 5.5t-31 14t-38 19.5t-43.5 23q-22 -12 -43 -23t-39 -19.5t-31 -14t-21 -5.5q-5 0 -7 3q-4 6 2.5 18t21.5 29.5t38 40.5z" />
    <glyph glyph-name="idieresis" unicode="&#xef;" horiz-adv-x="289" 
d="M218 93q0 -16 6.5 -27t15 -19t15 -15t6.5 -16q0 -10 -6 -14q-3 -2 -6 -2h-198q-3 0 -6 2q-6 4 -6 14q0 9 6.5 16t14.5 15t14.5 19t6.5 27v261q0 19 -6.5 28t-15 14.5t-15 10.5t-6.5 15q0 7 3.5 11t7.5 6q5 3 11 5l134 39q7 2 12 1q5 -2 8.5 -7t3.5 -17v-367zM-9 608
q0 26 17.5 44.5t44.5 18.5q26 0 44.5 -18.5t18.5 -44.5q0 -27 -18.5 -44.5t-44.5 -17.5q-27 0 -44.5 17.5t-17.5 44.5zM171 608q0 26 18 44.5t44 18.5q27 0 45 -18.5t18 -44.5q0 -27 -18 -44.5t-45 -17.5q-26 0 -44 17.5t-18 44.5z" />
    <glyph glyph-name="eth" unicode="&#xf0;" horiz-adv-x="547" 
d="M173 236q0 -42 6 -77t18 -60.5t31.5 -40t46.5 -14.5t46.5 14.5t31.5 40t18 60.5t6 77q0 41 -6 75.5t-18 60t-31.5 40t-46.5 14.5t-46.5 -14.5t-31.5 -40t-18 -60t-6 -75.5zM442 687q7 -11 8 -18t-1 -12t-6 -8l-62 -36q66 -66 102 -151t37 -182q0 -59 -13 -112t-42 -93.5
t-76 -64t-115 -23.5t-115 23t-75.5 59t-41 80t-12.5 87q0 42 12.5 86t41 79.5t75.5 58.5t115 23q23 0 42 -4.5t36 -12.5q-6 26 -18 52t-29 52l-90 -52q-4 -2 -10 -1q-5 1 -10.5 5t-12.5 15t-8 18.5t1 12.5q2 6 6 9l82 47q-11 13 -23 23.5t-24 19.5q-9 6 -10 14.5t2 16
t10 12.5t14 5q6 0 19.5 -7t28.5 -16t28 -18t18 -13l82 47q5 2 11 1q5 -2 11 -6.5t12 -15.5z" />
    <glyph glyph-name="ntilde" unicode="&#xf1;" horiz-adv-x="580" 
d="M333 16q0 9 6.5 16t15 15t15 19t6.5 27l-1 229q0 42 -21.5 59t-47.5 18q-21 0 -37 -7.5t-27.5 -19t-17.5 -24.5t-6 -25v-230q0 -16 6.5 -27t15 -19t15 -15t6.5 -16q0 -10 -6 -14q-3 -2 -6 -2h-198q-3 0 -6 2q-6 4 -6 14q0 9 6.5 16t14.5 15t14.5 19t6.5 27v261
q0 19 -6.5 28t-15 14.5t-15 10.5t-6.5 15q0 7 3.5 11t7.5 6q5 3 11 5l134 39q7 2 12 1q5 -2 8.5 -7t3.5 -17v-28q27 25 62.5 41t77.5 16q72 0 113.5 -44t41.5 -117v-235q0 -16 6.5 -27t14.5 -19t14.5 -15t6.5 -16q0 -10 -6 -14q-3 -2 -6 -2h-198q-3 0 -6 2q-6 4 -6 14z
M471 645q-14 -38 -44.5 -64t-74.5 -26q-19 0 -37.5 7t-36 15t-33 15.5t-29.5 7.5q-19 1 -33.5 -4.5t-30.5 -22.5q-15 -15 -28 -15q-11 0 -16 9t0 21q14 35 43 61.5t69 28.5q22 0 43 -7t40 -15.5t36.5 -15.5t32.5 -7q17 0 30.5 7.5t24.5 19.5q13 14 25 14q11 0 17 -9t2 -20z
" />
    <glyph glyph-name="ograve" unicode="&#xf2;" horiz-adv-x="545" 
d="M172 236q0 -42 6 -77t18 -60.5t31.5 -40t46.5 -14.5t46.5 14.5t31.5 40t18 60.5t6 77q0 41 -6 75.5t-18 60t-31.5 40t-46.5 14.5t-46.5 -14.5t-31.5 -40t-18 -60t-6 -75.5zM519 236q0 -43 -12.5 -87t-41.5 -80t-76 -59t-116 -23q-68 0 -115 23t-75.5 59t-41 80t-12.5 87
q0 42 12.5 86t41 79.5t75.5 58.5t115 23q69 0 116 -23t76 -58.5t41.5 -79.5t12.5 -86zM220 588q-22 11 -29.5 28t-3.5 33t16.5 27.5t30.5 11.5q20 0 40 -17q69 -59 95 -90.5t17 -45.5q-5 -8 -18 -8q-18 0 -54.5 14.5t-93.5 46.5z" />
    <glyph glyph-name="oacute" unicode="&#xf3;" horiz-adv-x="545" 
d="M172 236q0 -42 6 -77t18 -60.5t31.5 -40t46.5 -14.5t46.5 14.5t31.5 40t18 60.5t6 77q0 41 -6 75.5t-18 60t-31.5 40t-46.5 14.5t-46.5 -14.5t-31.5 -40t-18 -60t-6 -75.5zM519 236q0 -43 -12.5 -87t-41.5 -80t-76 -59t-116 -23q-68 0 -115 23t-75.5 59t-41 80t-12.5 87
q0 42 12.5 86t41 79.5t75.5 58.5t115 23q69 0 116 -23t76 -58.5t41.5 -79.5t12.5 -86zM322 588q-57 -32 -93.5 -46.5t-54.5 -14.5q-14 0 -19 8q-8 14 18 45.5t95 90.5q20 17 39 17q18 0 30.5 -11.5t16.5 -27.5t-3 -33t-29 -28z" />
    <glyph glyph-name="ocircumflex" unicode="&#xf4;" horiz-adv-x="545" 
d="M172 236q0 -42 6 -77t18 -60.5t31.5 -40t46.5 -14.5t46.5 14.5t31.5 40t18 60.5t6 77q0 41 -6 75.5t-18 60t-31.5 40t-46.5 14.5t-46.5 -14.5t-31.5 -40t-18 -60t-6 -75.5zM519 236q0 -43 -12.5 -87t-41.5 -80t-76 -59t-116 -23q-68 0 -115 23t-75.5 59t-41 80t-12.5 87
q0 42 12.5 86t41 79.5t75.5 58.5t115 23q69 0 116 -23t76 -58.5t41.5 -79.5t12.5 -86zM242 677q13 13 30 13q16 0 29 -13q54 -55 87 -91t25 -47q-3 -3 -8 -3q-8 0 -21.5 5.5t-31 14t-38 19.5t-43.5 23q-22 -12 -43 -23t-39 -19.5t-31 -14t-21 -5.5q-5 0 -7 3q-4 6 2.5 18
t21.5 29.5t38 40.5z" />
    <glyph glyph-name="otilde" unicode="&#xf5;" horiz-adv-x="545" 
d="M172 236q0 -42 6 -77t18 -60.5t31.5 -40t46.5 -14.5t46.5 14.5t31.5 40t18 60.5t6 77q0 41 -6 75.5t-18 60t-31.5 40t-46.5 14.5t-46.5 -14.5t-31.5 -40t-18 -60t-6 -75.5zM519 236q0 -43 -12.5 -87t-41.5 -80t-76 -59t-116 -23q-68 0 -115 23t-75.5 59t-41 80t-12.5 87
q0 42 12.5 86t41 79.5t75.5 58.5t115 23q69 0 116 -23t76 -58.5t41.5 -79.5t12.5 -86zM454 645q-14 -38 -44.5 -64t-74.5 -26q-19 0 -37.5 7t-36 15t-33 15.5t-29.5 7.5q-19 1 -33.5 -4.5t-30.5 -22.5q-15 -15 -28 -15q-11 0 -16 9t0 21q14 35 43 61.5t69 28.5q22 0 43 -7
t40 -15.5t36.5 -15.5t32.5 -7q17 0 30.5 7.5t24.5 19.5q13 14 25 14q11 0 17 -9t2 -20z" />
    <glyph glyph-name="odieresis" unicode="&#xf6;" horiz-adv-x="545" 
d="M172 236q0 -42 6 -77t18 -60.5t31.5 -40t46.5 -14.5t46.5 14.5t31.5 40t18 60.5t6 77q0 41 -6 75.5t-18 60t-31.5 40t-46.5 14.5t-46.5 -14.5t-31.5 -40t-18 -60t-6 -75.5zM519 236q0 -43 -12.5 -87t-41.5 -80t-76 -59t-116 -23q-68 0 -115 23t-75.5 59t-41 80t-12.5 87
q0 42 12.5 86t41 79.5t75.5 58.5t115 23q69 0 116 -23t76 -58.5t41.5 -79.5t12.5 -86zM119 608q0 26 17.5 44.5t44.5 18.5q26 0 44.5 -18.5t18.5 -44.5q0 -27 -18.5 -44.5t-44.5 -17.5q-27 0 -44.5 17.5t-17.5 44.5zM299 608q0 26 18 44.5t44 18.5q27 0 45 -18.5t18 -44.5
q0 -27 -18 -44.5t-45 -17.5q-26 0 -44 17.5t-18 44.5z" />
    <glyph glyph-name="divide" unicode="&#xf7;" horiz-adv-x="519" 
d="M482 308q5 0 9 -4q3 -3 5.5 -9.5t2.5 -18.5q0 -11 -2.5 -17.5t-5.5 -9.5q-4 -4 -9 -4h-442q-5 0 -8 4q-9 7 -9 27q0 12 2.5 18.5t6.5 9.5q3 4 8 4h442zM335 126q0 -31 -20.5 -51.5t-52.5 -20.5q-31 0 -51.5 20.5t-20.5 51.5t20.5 52t51.5 21q32 0 52.5 -21t20.5 -52z
M335 426q0 -31 -20.5 -51.5t-52.5 -20.5q-31 0 -51.5 20.5t-20.5 51.5t20.5 52t51.5 21q32 0 52.5 -21t20.5 -52z" />
    <glyph glyph-name="oslash" unicode="&#xf8;" horiz-adv-x="545" 
d="M520 236q0 -43 -12.5 -87t-41.5 -80t-76 -59t-116 -23q-45 0 -80 10t-62 28l-26 -31l-2 -2q-4 -2 -8 -2q-9 0 -21 11q-9 7 -12 12.5t-3 9.5q-1 4 2 8l27 32q-32 37 -45.5 82.5t-13.5 90.5q0 42 12.5 86t41 79.5t75.5 58.5t115 23q44 0 78.5 -9.5t60.5 -26.5l28 32
q1 1 3 2q4 2 8 2t9 -2t12 -8q8 -7 11 -12.5t3 -9.5q0 -5 -2 -9l-27 -31q33 -37 47.5 -83.5t14.5 -91.5zM173 236q0 -17 2.5 -33t6.5 -30l169 200q-12 25 -31 39t-45 14q-27 0 -46.5 -14.5t-31.5 -40t-18 -60t-6 -75.5zM197 102q12 -27 31 -42.5t47 -15.5q27 0 46.5 14.5
t31.5 40t18 60.5t6 77q0 38 -9 68z" />
    <glyph glyph-name="ugrave" unicode="&#xf9;" horiz-adv-x="573" 
d="M503 93q0 -16 6.5 -27t14.5 -19t14.5 -15t6.5 -16q0 -10 -6 -14q-3 -2 -6 -2h-155q-3 0 -6 2q-6 4 -6 14v26q-27 -26 -62.5 -41.5t-77.5 -15.5q-36 0 -64.5 11.5t-48.5 32.5t-31 50.5t-11 65.5v209q0 19 -6.5 28t-15 14.5t-15 10.5t-6.5 15q0 7 3.5 11t7.5 6q5 3 11 5
l135 39q7 2 12 1q5 -2 8.5 -7t3.5 -17v-309q0 -41 21.5 -58.5t47.5 -17.5q21 0 37.5 6.5t27.5 16.5t17 22t6 22v212q0 19 -7 28t-15 14.5t-15 10.5t-7 15q0 7 3.5 11t8.5 6q5 3 11 5l134 39q7 2 12 1q5 -2 8.5 -7t3.5 -17v-367zM234 588q-22 11 -29.5 28t-3.5 33t16.5 27.5
t30.5 11.5q20 0 40 -17q69 -59 95 -90.5t17 -45.5q-5 -8 -18 -8q-18 0 -54.5 14.5t-93.5 46.5z" />
    <glyph glyph-name="uacute" unicode="&#xfa;" horiz-adv-x="573" 
d="M503 93q0 -16 6.5 -27t14.5 -19t14.5 -15t6.5 -16q0 -10 -6 -14q-3 -2 -6 -2h-155q-3 0 -6 2q-6 4 -6 14v26q-27 -26 -62.5 -41.5t-77.5 -15.5q-36 0 -64.5 11.5t-48.5 32.5t-31 50.5t-11 65.5v209q0 19 -6.5 28t-15 14.5t-15 10.5t-6.5 15q0 7 3.5 11t7.5 6q5 3 11 5
l135 39q7 2 12 1q5 -2 8.5 -7t3.5 -17v-309q0 -41 21.5 -58.5t47.5 -17.5q21 0 37.5 6.5t27.5 16.5t17 22t6 22v212q0 19 -7 28t-15 14.5t-15 10.5t-7 15q0 7 3.5 11t8.5 6q5 3 11 5l134 39q7 2 12 1q5 -2 8.5 -7t3.5 -17v-367zM337 588q-57 -32 -93.5 -46.5t-54.5 -14.5
q-14 0 -19 8q-8 14 18 45.5t95 90.5q20 17 39 17q18 0 30.5 -11.5t16.5 -27.5t-3 -33t-29 -28z" />
    <glyph glyph-name="ucircumflex" unicode="&#xfb;" horiz-adv-x="573" 
d="M503 93q0 -16 6.5 -27t14.5 -19t14.5 -15t6.5 -16q0 -10 -6 -14q-3 -2 -6 -2h-155q-3 0 -6 2q-6 4 -6 14v26q-27 -26 -62.5 -41.5t-77.5 -15.5q-36 0 -64.5 11.5t-48.5 32.5t-31 50.5t-11 65.5v209q0 19 -6.5 28t-15 14.5t-15 10.5t-6.5 15q0 7 3.5 11t7.5 6q5 3 11 5
l135 39q7 2 12 1q5 -2 8.5 -7t3.5 -17v-309q0 -41 21.5 -58.5t47.5 -17.5q21 0 37.5 6.5t27.5 16.5t17 22t6 22v212q0 19 -7 28t-15 14.5t-15 10.5t-7 15q0 7 3.5 11t8.5 6q5 3 11 5l134 39q7 2 12 1q5 -2 8.5 -7t3.5 -17v-367zM256 677q13 13 30 13q16 0 29 -13
q54 -55 87 -91t25 -47q-3 -3 -8 -3q-8 0 -21.5 5.5t-31 14t-38 19.5t-43.5 23q-22 -12 -43 -23t-39 -19.5t-31 -14t-21 -5.5q-5 0 -7 3q-4 6 2.5 18t21.5 29.5t38 40.5z" />
    <glyph glyph-name="udieresis" unicode="&#xfc;" horiz-adv-x="573" 
d="M503 93q0 -16 6.5 -27t14.5 -19t14.5 -15t6.5 -16q0 -10 -6 -14q-3 -2 -6 -2h-155q-3 0 -6 2q-6 4 -6 14v26q-27 -26 -62.5 -41.5t-77.5 -15.5q-36 0 -64.5 11.5t-48.5 32.5t-31 50.5t-11 65.5v209q0 19 -6.5 28t-15 14.5t-15 10.5t-6.5 15q0 7 3.5 11t7.5 6q5 3 11 5
l135 39q7 2 12 1q5 -2 8.5 -7t3.5 -17v-309q0 -41 21.5 -58.5t47.5 -17.5q21 0 37.5 6.5t27.5 16.5t17 22t6 22v212q0 19 -7 28t-15 14.5t-15 10.5t-7 15q0 7 3.5 11t8.5 6q5 3 11 5l134 39q7 2 12 1q5 -2 8.5 -7t3.5 -17v-367zM132 608q0 26 17.5 44.5t44.5 18.5
q26 0 44.5 -18.5t18.5 -44.5q0 -27 -18.5 -44.5t-44.5 -17.5q-27 0 -44.5 17.5t-17.5 44.5zM312 608q0 26 18 44.5t44 18.5q27 0 45 -18.5t18 -44.5q0 -27 -18 -44.5t-45 -17.5q-26 0 -44 17.5t-18 44.5z" />
    <glyph glyph-name="yacute" unicode="&#xfd;" horiz-adv-x="517" 
d="M26 -143q0 18 11.5 31t28.5 13q13 0 21.5 -6t16.5 -13t18.5 -13t26.5 -6q19 0 36.5 15.5t29.5 44.5l28 77q-37 0 -49 32l-129 354q-7 20 -16.5 31t-18 18t-14.5 13t-6 15q0 6 3 9t6 5q4 2 9 2h184q5 0 10 -2q3 -2 6 -5t3 -9q0 -9 -7.5 -15.5t-14.5 -14t-10 -19.5t4 -33
l85 -243l90 242q8 21 4 33t-12 20t-16.5 14.5t-8.5 15.5q0 10 10 14q4 2 9 2h127q5 0 9 -2q9 -4 9 -14q0 -9 -6.5 -15t-16.5 -13t-20 -18t-17 -31l-174 -474q-9 -26 -22 -49.5t-30 -41t-40 -28t-53 -10.5q-18 0 -36.5 5t-33.5 15t-24.5 23.5t-9.5 30.5zM338 588
q-57 -32 -93.5 -46.5t-54.5 -14.5q-14 0 -19 8q-8 14 18 45.5t95 90.5q20 17 39 17q18 0 30.5 -11.5t16.5 -27.5t-3 -33t-29 -28z" />
    <glyph glyph-name="thorn" unicode="&#xfe;" horiz-adv-x="580" 
d="M219 177q1 -51 25.5 -85.5t65.5 -34.5q51 0 77.5 48t26.5 131q0 82 -29 130t-74 48q-39 0 -65 -33t-27 -91v-113zM219 -110q0 -17 6.5 -27t15 -18t15 -15t6.5 -16q0 -11 -6 -15q-3 -2 -6 -2h-198q-3 0 -6 2q-6 4 -6 15q0 9 6.5 16t14.5 15t14.5 18t6.5 27v634
q0 19 -6.5 28t-15 15t-15 10.5t-6.5 14.5q0 7 3.5 11t7.5 7q5 3 11 5l134 39q7 2 12 1q5 -2 8.5 -7t3.5 -17v-203q23 25 57.5 40t73.5 15q54 0 93.5 -23t65 -58.5t37.5 -79.5t12 -86q0 -43 -12.5 -87t-39 -80t-68.5 -59t-102 -23q-36 0 -65.5 11t-51.5 29v-137z" />
    <glyph glyph-name="ydieresis" unicode="&#xff;" horiz-adv-x="517" 
d="M26 -143q0 18 11.5 31t28.5 13q13 0 21.5 -6t16.5 -13t18.5 -13t26.5 -6q19 0 36.5 15.5t29.5 44.5l28 77q-37 0 -49 32l-129 354q-7 20 -16.5 31t-18 18t-14.5 13t-6 15q0 6 3 9t6 5q4 2 9 2h184q5 0 10 -2q3 -2 6 -5t3 -9q0 -9 -7.5 -15.5t-14.5 -14t-10 -19.5t4 -33
l85 -243l90 242q8 21 4 33t-12 20t-16.5 14.5t-8.5 15.5q0 10 10 14q4 2 9 2h127q5 0 9 -2q9 -4 9 -14q0 -9 -6.5 -15t-16.5 -13t-20 -18t-17 -31l-174 -474q-9 -26 -22 -49.5t-30 -41t-40 -28t-53 -10.5q-18 0 -36.5 5t-33.5 15t-24.5 23.5t-9.5 30.5zM105 608
q0 26 17.5 44.5t44.5 18.5q26 0 44.5 -18.5t18.5 -44.5q0 -27 -18.5 -44.5t-44.5 -17.5q-27 0 -44.5 17.5t-17.5 44.5zM285 608q0 26 18 44.5t44 18.5q27 0 45 -18.5t18 -44.5q0 -27 -18 -44.5t-45 -17.5q-26 0 -44 17.5t-18 44.5z" />
    <glyph glyph-name="dotlessi" unicode="&#x131;" horiz-adv-x="289" 
d="M219 93q0 -16 6.5 -27t15 -19t15 -15t6.5 -16q0 -10 -6 -14q-3 -2 -6 -2h-198q-3 0 -6 2q-6 4 -6 14q0 9 6.5 16t14.5 15t14.5 19t6.5 27v261q0 19 -6.5 28t-15 14.5t-15 10.5t-6.5 15q0 7 3.5 11t7.5 6q5 3 11 5l134 39q7 2 12 1q5 -2 8.5 -7t3.5 -17v-367z" />
    <glyph glyph-name="Lslash" unicode="&#x141;" horiz-adv-x="632" 
d="M89 0q-3 0 -6 2q-6 4 -6 14q0 9 7 16t16 15t16 19t7 27v153l-66 -38q-5 -3 -10 -2t-11 5.5t-13 15.5q-6 11 -7 18.5t1 12.5q1 6 6 9l100 58v265q0 18 -7 29t-16 19.5t-16 16t-7 17.5q0 12 6 16q3 2 6 2h225q3 0 6 -2q6 -4 6 -16q0 -10 -7 -17.5t-16 -16t-16 -19.5t-7 -29
v-175l91 53q5 2 11 0q5 -1 11 -6t12 -16q7 -11 8 -18t-1 -12t-6 -8l-126 -72v-201q0 -32 18 -53t62 -21h62q33 0 54 9.5t35 23t23 30t17.5 30t18 23t25.5 9.5q10 0 14 -5t5 -11q2 -7 1 -16l-21 -138q-1 -5 -4 -9q-2 -3 -6.5 -6t-11.5 -3q-6 0 -11 0.5t-10 0.5t-12.5 0.5
t-18.5 0.5h-431z" />
    <glyph glyph-name="lslash" unicode="&#x142;" horiz-adv-x="368" 
d="M253 334v-241q0 -16 6.5 -27t15 -19t15 -15t6.5 -16q0 -10 -6 -14q-3 -2 -6 -2h-198q-3 0 -6 2q-6 4 -6 14q0 9 6.5 16t14.5 15t14.5 19t6.5 27v162l-60 -34q-4 -2 -10 -1q-5 1 -10.5 5t-12.5 15t-8 19t1 13t7 9l93 54v243q0 19 -6.5 28.5t-15 15t-15 10.5t-6.5 15
q0 6 3.5 10.5t7.5 6.5q5 3 11 5l134 39q7 2 12 1q5 -2 8.5 -7t3.5 -17v-271l60 34q5 2 11 1q5 -2 11 -6.5t12 -15.5q7 -11 8 -18t-1 -12t-6 -8z" />
    <glyph glyph-name="OE" unicode="&#x152;" horiz-adv-x="1031" 
d="M203 348q0 -66 11 -122t33 -96.5t56 -63.5t80 -23q30 0 52.5 12.5t39 35t28 54t18.5 69.5v258q-6 39 -17 72t-27.5 56.5t-39.5 36.5t-54 13q-46 0 -80 -23t-56 -63.5t-33 -95.5t-11 -120zM677 331v-196q0 -32 21 -53.5t63 -21.5h74q31 0 51 7t33 17t21 22.5t15 22.5
t15 17t20 7q8 0 11 -3.5t5 -8.5q1 -5 0 -12l-14 -113q-1 -5 -4 -9q-2 -3 -6.5 -6t-11.5 -3q-6 0 -11 0.5t-10 0.5t-12.5 0.5t-18.5 0.5h-406q-28 -3 -60.5 -8t-68.5 -5q-93 0 -159 33t-108 85.5t-61.5 116.5t-19.5 126q0 61 19.5 124.5t61.5 115.5t108 85t159 33q32 0 60 -4
t54 -12h418q11 0 18.5 0.5t12.5 0.5t10 0.5t11 0.5q12 0 17 -9q2 -4 3 -9l5 -115q-1 -5 -4 -9q-2 -4 -7 -7t-15 -3q-18 0 -27 14t-20 31t-29 31t-54 14h-114q-20 0 -32.5 -12.5t-12.5 -31.5v-190h164q16 0 26.5 9.5t19 20.5t15.5 20.5t16 9.5q11 0 14 -7q2 -3 2 -7v-157
q0 -4 -2 -7q-2 -2 -5 -4.5t-9 -2.5q-9 0 -16 9.5t-15.5 20.5t-19 20.5t-26.5 9.5h-164z" />
    <glyph glyph-name="oe" unicode="&#x153;" horiz-adv-x="858" 
d="M660 57q45 0 76.5 19.5t52.5 38.5q7 7 16 7q14 0 18.5 -16.5t-13.5 -36.5q-29 -32 -77.5 -57t-115.5 -25q-57 0 -97.5 19t-69.5 50q-29 -31 -72 -50t-104 -19q-68 0 -115 23t-75.5 59t-41 80t-12.5 87q0 42 12.5 86t41 79.5t75.5 58.5t115 23q63 0 106 -20t72 -52
q30 32 73.5 52t103.5 20q36 0 74 -10t69.5 -33.5t51.5 -62t20 -95.5q-1 -28 -11 -42t-39 -14h-271q4 -77 41.5 -123t95.5 -46zM173 236q0 -42 6 -77t18 -60.5t31.5 -40t46.5 -14.5t46.5 14.5t31.5 40t18 60.5t6 77q0 41 -6 75.5t-18 60t-31.5 40t-46.5 14.5t-46.5 -14.5
t-31.5 -40t-18 -60t-6 -75.5zM722 314q-1 23 -8.5 42.5t-19.5 34t-28 23t-34 8.5q-42 0 -70.5 -34t-36.5 -103h168q31 0 29 29z" />
    <glyph glyph-name="Scaron" unicode="&#x160;" horiz-adv-x="549" 
d="M387 131q0 39 -26 66.5t-65.5 51t-85.5 47t-85.5 53.5t-65.5 71t-26 99q0 44 18 79.5t50 60t76 37.5t96 13q43 0 83 -8t71.5 -21.5t50.5 -31t19 -36.5l1 -97q-1 -7 -3 -12t-7 -8.5t-13 -3.5q-20 0 -30.5 19.5t-22.5 48.5q-18 44 -56.5 68t-83.5 24q-21 0 -41 -5
t-35.5 -15.5t-25 -26t-9.5 -37.5q0 -37 26 -64.5t65.5 -51t85 -47.5t85 -55t65.5 -71.5t26 -98.5q0 -45 -18 -80t-50.5 -60t-76.5 -38t-96 -13q-45 0 -90 9.5t-81 25t-58 36.5t-22 45v99q0 6 3 11t8 8t15 3q20 0 28.5 -17.5t14.5 -36.5q12 -31 30.5 -54t41.5 -39t47.5 -24
t48.5 -8q22 0 43 5t37.5 15.5t27 26.5t10.5 38zM244 756q-55 56 -88 91.5t-24 47.5q2 3 7 3q15 0 51.5 -20t82.5 -43q46 23 82 43t52 20q5 0 8 -3q8 -12 -25 -47.5t-87 -91.5q-13 -13 -29 -13q-17 0 -30 13z" />
    <glyph glyph-name="scaron" unicode="&#x161;" horiz-adv-x="433" 
d="M288 96q0 21 -19 35t-47.5 27t-62 27.5t-62 35t-47.5 50t-19 72.5q0 66 51.5 103t139.5 37q26 0 55 -4t54 -11.5t41.5 -19.5t16.5 -28v-73q0 -5 -2 -8q-4 -9 -14 -9q-14 0 -25 11t-29 32q-23 27 -49 38t-52 11q-32 0 -48 -14.5t-16 -31.5q0 -22 19 -37t47.5 -28t62 -27
t62 -34t47.5 -49t19 -72q0 -66 -52 -104t-140 -38q-27 0 -60.5 6t-63 16t-49.5 24t-20 30v69q0 6 2 11q4 10 15 10q12 0 19 -9l14 -18q28 -40 65.5 -59t75.5 -19q35 0 53 14t18 34zM186 556q-55 56 -88 91.5t-24 47.5q2 3 7 3q15 0 51.5 -20t82.5 -43q46 23 82 43t52 20
q5 0 8 -3q8 -12 -25 -47.5t-87 -91.5q-13 -13 -29 -13q-17 0 -30 13z" />
    <glyph glyph-name="Ydieresis" unicode="&#x178;" horiz-adv-x="675" 
d="M206 16q0 9 7 16t16 15t16 19t7 27v181l-169 316q-10 18 -23 29t-25 19.5t-20.5 16t-8.5 17.5q0 12 11 16q4 2 10 2h227q5 0 10 -2q3 -2 6 -5.5t3 -10.5q0 -10 -8.5 -17.5t-16 -16t-10.5 -19.5t7 -29l120 -225l117 209q16 27 14 41.5t-10.5 23.5t-18 15.5t-9.5 17.5
q0 8 3 11.5t7 5.5t9 2h172q4 0 8 -2l4.5 -4.5t2.5 -8.5q0 -9 -9 -15t-21 -13.5t-24.5 -17t-20.5 -24.5l-181 -323v-190q0 -16 7 -27t16 -19t16 -15t7 -16q0 -10 -6 -14q-3 -2 -6 -2h-224q-3 0 -6 2q-6 4 -6 14zM183 808q0 26 17.5 44.5t44.5 18.5q26 0 44.5 -18.5
t18.5 -44.5q0 -27 -18.5 -44.5t-44.5 -17.5q-27 0 -44.5 17.5t-17.5 44.5zM363 808q0 26 18 44.5t44 18.5q27 0 45 -18.5t18 -44.5q0 -27 -18 -44.5t-45 -17.5q-26 0 -44 17.5t-18 44.5z" />
    <glyph glyph-name="Zcaron" unicode="&#x17d;" horiz-adv-x="608" 
d="M521 690q16 -1 28 -5q11 -4 20 -11.5t9 -22.5q0 -9 -3.5 -20.5t-12.5 -25.5l-332 -517q-8 -11 -4.5 -19.5t20.5 -8.5h154q47 0 72 14.5t40.5 32t26.5 32t30 14.5q8 0 11 -3.5t4 -8.5q2 -5 1 -12l-15 -113q-1 -5 -4 -9q-2 -3 -6.5 -6t-11.5 -3q-6 0 -11 0.5t-10 0.5
t-12.5 0.5t-18.5 0.5h-413q-16 1 -28 5q-11 4 -19.5 12t-9.5 22q0 9 3.5 20.5t12.5 25.5l333 517q8 12 5 20t-20 8h-132q-47 0 -71.5 -14.5t-39.5 -32t-25.5 -32t-29.5 -14.5q-7 0 -10.5 3.5t-5.5 8.5q-1 5 -1 12l11 113q1 5 4 9q7 9 18 9q6 0 11 -0.5t10 -0.5t12.5 -0.5
t18.5 -0.5h391zM273 756q-55 56 -88 91.5t-24 47.5q2 3 7 3q15 0 51.5 -20t82.5 -43q46 23 82 43t52 20q5 0 8 -3q8 -12 -25 -47.5t-87 -91.5q-13 -13 -29 -13q-17 0 -30 13z" />
    <glyph glyph-name="zcaron" unicode="&#x17e;" horiz-adv-x="464" 
d="M443 460q0 -9 -6 -23l-224 -353q-5 -11 -3 -17.5t15 -6.5h51q42 0 63 15t33.5 33.5t22.5 33.5t28 15q8 0 11.5 -3.5t5.5 -8.5q2 -6 2 -13l-8 -114q-1 -5 -4 -9q-2 -3 -6 -6t-11 -3h-372q-7 0 -12 2q-11 6 -11 17q0 7 7 23l223 353q5 11 3 17.5t-15 6.5h-53q-33 0 -51 -15
t-30 -33.5t-23 -33.5t-29 -15q-8 0 -11.5 3.5t-5.5 8.5t-2 12l7 116q1 5 4 9q6 8 17 8h361q7 0 12 -2t8.5 -5.5t2.5 -11.5zM201 556q-55 56 -88 91.5t-24 47.5q2 3 7 3q15 0 51.5 -20t82.5 -43q46 23 82 43t52 20q5 0 8 -3q8 -12 -25 -47.5t-87 -91.5q-13 -13 -29 -13
q-17 0 -30 13z" />
    <glyph glyph-name="florin" unicode="&#x192;" horiz-adv-x="682" 
d="M315 392h-68q-5 0 -9 4q-4 3 -7 10t-3 19q0 14 3 20.5t7 10.5q4 3 9 4h84l19 83q10 44 31 74t48.5 48.5t58.5 27t61 8.5q33 0 57 -8.5t39 -22t21.5 -31.5t4.5 -37q-1 -7 -3.5 -15t-8 -15.5t-14 -12.5t-20.5 -5q-14 0 -23 5.5t-14 13t-6.5 15t-1.5 13.5q3 28 -10 40
t-26 12q-25 0 -42 -18t-24 -51l-29 -124h77q5 -1 10 -4q3 -4 6 -10.5t3 -20.5q0 -12 -3 -19t-6 -10q-5 -4 -10 -4h-92l-100 -448q-9 -38 -28.5 -68t-46 -51t-59 -32.5t-66.5 -11.5q-33 0 -56.5 8.5t-39 22t-22 31.5t-4.5 37q1 7 4 15t8.5 15.5t14 12.5t21.5 5t21.5 -5.5
t13 -12.5t6 -14.5t1.5 -13.5q-2 -28 11 -40.5t26 -12.5q25 0 41.5 18t24.5 51z" />
    <glyph glyph-name="circumflex" unicode="&#x2c6;" horiz-adv-x="342" 
d="M147 677q13 13 30 13q16 0 29 -13q54 -55 87 -91t25 -47q-3 -3 -8 -3q-8 0 -21.5 5.5t-31 14t-38 19.5t-43.5 23q-22 -12 -43 -23t-39 -19.5t-31 -14t-21 -5.5q-5 0 -7 3q-4 6 2.5 18t21.5 29.5t38 40.5z" />
    <glyph glyph-name="caron" unicode="&#x2c7;" horiz-adv-x="342" 
d="M147 556q-55 56 -88 91.5t-24 47.5q2 3 7 3q15 0 51.5 -20t82.5 -43q46 23 82 43t52 20q5 0 8 -3q8 -12 -25 -47.5t-87 -91.5q-13 -13 -29 -13q-17 0 -30 13z" />
    <glyph glyph-name="breve" unicode="&#x2d8;" horiz-adv-x="278" 
d="M22 629q-7 16 -2.5 26t13.5 10t18 -10q14 -14 40.5 -21.5t54.5 -7.5q25 0 47 7t36 22q9 10 18 10t13.5 -10t-2.5 -26q-15 -37 -48 -55t-70 -18t-70 18t-48 55z" />
    <glyph glyph-name="dotaccent" unicode="&#x2d9;" horiz-adv-x="161" 
d="M17 608q0 26 17.5 44.5t44.5 18.5q26 0 44.5 -18.5t18.5 -44.5q0 -27 -18.5 -44.5t-44.5 -17.5q-27 0 -44.5 17.5t-17.5 44.5z" />
    <glyph glyph-name="ring" unicode="&#x2da;" horiz-adv-x="257" 
d="M30 652q0 21 7.5 39.5t21 32t32 21.5t40.5 8q21 0 39.5 -8t32 -21.5t21.5 -32t8 -39.5q0 -22 -8 -40.5t-21.5 -32t-32 -21t-39.5 -7.5q-44 0 -72.5 28.5t-28.5 72.5zM81 652q0 -22 14 -36t36 -14t36 14t14 36t-14 36t-36 14t-36 -14t-14 -36z" />
    <glyph glyph-name="ogonek" unicode="&#x2db;" horiz-adv-x="168" 
d="M143 12q0 -7 -11 -14q-13 -8 -29 -27t-16 -43q0 -27 20.5 -38.5t45.5 -13.5q7 0 8.5 -10t-4.5 -21t-19 -20.5t-36 -9.5q-16 0 -31.5 5.5t-28 16t-20.5 26.5t-8 38q0 28 14.5 50.5t32.5 38t35 23.5t23 8q5 0 14.5 -2t9.5 -7z" />
    <glyph glyph-name="tilde" unicode="&#x2dc;" horiz-adv-x="426" 
d="M397 645q-14 -38 -44.5 -64t-74.5 -26q-19 0 -37.5 7t-36 15t-33 15.5t-29.5 7.5q-19 1 -33.5 -4.5t-30.5 -22.5q-15 -15 -28 -15q-11 0 -16 9t0 21q14 35 43 61.5t69 28.5q22 0 43 -7t40 -15.5t36.5 -15.5t32.5 -7q17 0 30.5 7.5t24.5 19.5q13 14 25 14q11 0 17 -9
t2 -20z" />
    <glyph glyph-name="hungarumlaut" unicode="&#x2dd;" horiz-adv-x="448" 
d="M226 588q-57 -32 -93.5 -46.5t-54.5 -14.5q-14 0 -19 8q-8 14 18 45.5t95 90.5q20 17 39 17q18 0 30.5 -11.5t16.5 -27.5t-3 -33t-29 -28zM414 588q-58 -32 -94 -46.5t-55 -14.5q-13 0 -18 8q-9 14 17 45.5t96 90.5q20 17 39 17q18 0 30.5 -11.5t16.5 -27.5t-3 -33
t-29 -28z" />
    <glyph glyph-name="pi" unicode="&#x3c0;" horiz-adv-x="649" 
d="M401 419h-129v-326q0 -16 6.5 -27t15 -19t15 -15t6.5 -16q0 -10 -6 -14q-3 -2 -6 -2h-198q-3 0 -6 2q-6 4 -6 14q0 9 6.5 16t15 15t15 19t6.5 27v326h-6q-20 0 -32.5 -8.5t-22 -19t-17.5 -19t-19 -8.5q-7 0 -10.5 3.5t-5.5 8.5t-2 12l4 74q1 5 4 9q6 8 17 8h546
q6 0 12 -2q4 -2 7.5 -5.5t3.5 -11.5q0 -24 -4 -32.5t-18 -8.5h-55v-313q0 -20 6.5 -32t17 -18t23 -6.5t24.5 1.5q11 3 17.5 -1.5t8 -12t-2.5 -16t-14 -13.5q-15 -7 -36.5 -14t-56.5 -7q-27 0 -49.5 6.5t-39 21.5t-26 40t-9.5 61v303z" />
    <glyph glyph-name="endash" unicode="&#x2013;" horiz-adv-x="545" 
d="M519 296q0 -16 -2 -24t-4 -13q-3 -4 -7 -5h-468q-4 1 -6 5q-3 5 -5 13t-2 24q0 17 2 25.5t5 13.5q2 4 6 5h468q4 -1 7 -5q2 -5 4 -13.5t2 -25.5z" />
    <glyph glyph-name="emdash" unicode="&#x2014;" horiz-adv-x="846" 
d="M828 296q0 -16 -2 -24t-4 -13q-3 -4 -7 -5h-777q-4 1 -6 5q-3 5 -5 13t-2 24q0 17 2 25.5t5 13.5q2 4 6 5h777q4 -1 7 -5q2 -5 4 -13.5t2 -25.5z" />
    <glyph glyph-name="quoteleft" unicode="&#x2018;" horiz-adv-x="184" 
d="M190 677q0 -12 -18 -24q-16 -10 -30 -26.5t-14 -38.5q0 -13 6.5 -21.5t14.5 -17.5t14.5 -21t6.5 -32q0 -29 -20.5 -47.5t-50.5 -18.5q-31 0 -51.5 20.5t-20.5 61.5q0 42 19.5 76t44 58t48.5 37t33 13q8 0 13 -6t5 -13z" />
    <glyph glyph-name="quoteright" unicode="&#x2019;" horiz-adv-x="193" 
d="M27 450q0 11 18 23q16 11 30 27.5t14 38.5q0 12 -6.5 20.5t-14.5 17.5t-14.5 21t-6.5 32q0 29 20.5 47.5t50.5 18.5q31 0 51.5 -20.5t20.5 -61.5q0 -42 -19.5 -76t-44 -58t-48.5 -37t-33 -13q-8 0 -13 6t-5 14z" />
    <glyph glyph-name="quotesinglbase" unicode="&#x201a;" horiz-adv-x="193" 
d="M11 -115q0 12 18 24q16 10 30 26.5t14 38.5q0 13 -6.5 21.5t-14.5 17.5t-14.5 21t-6.5 32q0 29 20.5 47.5t50.5 18.5q31 0 51.5 -20.5t20.5 -61.5q0 -42 -19.5 -76t-44 -58t-48.5 -37t-33 -13q-8 0 -13 6t-5 13z" />
    <glyph glyph-name="quotedblleft" unicode="&#x201c;" horiz-adv-x="364" 
d="M189 677q0 -12 -18 -24q-16 -10 -30.5 -26.5t-14.5 -38.5q0 -13 6.5 -21.5t14.5 -17.5t14.5 -21t6.5 -32q0 -29 -20 -47.5t-51 -18.5q-30 0 -51 20.5t-21 61.5q0 42 19.5 76t44.5 58t49 37t33 13q8 0 13 -6t5 -13zM366 677q0 -12 -18 -24q-16 -10 -30 -26.5t-14 -38.5
q0 -13 6.5 -21.5t14.5 -17.5t14.5 -21t6.5 -32q0 -29 -20.5 -47.5t-50.5 -18.5q-31 0 -51.5 20.5t-20.5 61.5q0 42 19.5 76t44 58t48.5 37t33 13q8 0 13 -6t5 -13z" />
    <glyph glyph-name="quotedblright" unicode="&#x201d;" horiz-adv-x="365" 
d="M197 450q0 11 19 23q16 11 30 27.5t14 38.5q0 12 -6.5 20.5t-14.5 17.5t-14.5 21t-6.5 32q0 29 20 47.5t51 18.5t51.5 -20.5t20.5 -61.5q0 -42 -19.5 -76t-44 -58t-48.5 -37t-33 -13q-8 0 -13.5 6t-5.5 14zM27 450q0 11 18 23q16 11 30 27.5t14 38.5q0 12 -6.5 20.5
t-14.5 17.5t-14.5 21t-6.5 32q0 29 20.5 47.5t50.5 18.5q31 0 51.5 -20.5t20.5 -61.5q0 -42 -19.5 -76t-44 -58t-48.5 -37t-33 -13q-8 0 -13 6t-5 14z" />
    <glyph glyph-name="quotedblbase" unicode="&#x201e;" horiz-adv-x="365" 
d="M11 -115q0 12 18 24q16 10 30 26.5t14 38.5q0 13 -6.5 21.5t-14.5 17.5t-14.5 21t-6.5 32q0 29 20.5 47.5t50.5 18.5q31 0 51.5 -20.5t20.5 -61.5q0 -42 -19.5 -76t-44 -58t-48.5 -37t-33 -13q-8 0 -13 6t-5 13zM181 -115q0 12 18 24q16 10 30 26.5t14 38.5
q0 13 -6.5 21.5t-14.5 17.5t-14.5 21t-6.5 32q0 29 20.5 47.5t50.5 18.5q31 0 51.5 -20.5t20.5 -61.5q0 -42 -19.5 -76t-44 -58t-48.5 -37t-33 -13q-8 0 -13 6t-5 13z" />
    <glyph glyph-name="dagger" unicode="&#x2020;" 
d="M221 674q17 0 25.5 -2t13.5 -4q4 -3 5 -7v-140h141q4 -1 7 -5q2 -5 4 -13.5t2 -25.5q0 -16 -2 -24t-4 -13q-3 -4 -7 -5h-141v-392q-1 -4 -5 -6q-5 -3 -13.5 -5t-25.5 -2q-16 0 -24 2t-13 5q-4 2 -5 6v392h-140q-4 1 -6 5q-3 5 -5 13t-2 24q0 17 2 25.5t5 13.5q2 4 6 5
h140v140q1 4 5 7q5 2 13 4t24 2z" />
    <glyph glyph-name="daggerdbl" unicode="&#x2021;" 
d="M419 477q0 -16 -2 -24t-4 -13q-3 -4 -7 -5h-141v-85h141q4 -1 7 -5q2 -4 4 -12t2 -24q0 -17 -2 -26t-4 -13q-3 -5 -7 -6h-141v-221q-1 -4 -5 -6q-5 -3 -13.5 -5t-25.5 -2q-16 0 -24 2t-13 5q-4 2 -5 6v221h-140q-4 1 -6 6q-3 4 -5 13t-2 26q0 16 2 24t5 12q2 4 6 5h140
v85h-140q-4 1 -6 5q-3 5 -5 13t-2 24q0 17 2 25.5t5 13.5q2 4 6 5h140v140q1 4 5 7q5 2 13 4t24 2q17 0 25.5 -2t13.5 -4q4 -3 5 -7v-140h141q4 -1 7 -5q2 -5 4 -13.5t2 -25.5z" />
    <glyph glyph-name="bullet" unicode="&#x2022;" horiz-adv-x="297" 
d="M30 300q0 26 9 48t25.5 38.5t38.5 26t48 9.5t48 -9.5t38.5 -26t26 -38.5t9.5 -48t-9.5 -48t-26 -38.5t-38.5 -25.5t-48 -9t-48 9t-38.5 25.5t-25.5 38.5t-9 48z" />
    <glyph glyph-name="ellipsis" unicode="&#x2026;" horiz-adv-x="600" 
d="M30 58q0 32 20.5 53t51.5 21q32 0 53 -21t21 -53q0 -31 -21 -51.5t-53 -20.5q-31 0 -51.5 20.5t-20.5 51.5zM230 58q0 32 20.5 53t51.5 21q32 0 53 -21t21 -53q0 -31 -21 -51.5t-53 -20.5q-31 0 -51.5 20.5t-20.5 51.5zM430 58q0 32 20.5 53t51.5 21q32 0 53 -21t21 -53
q0 -31 -21 -51.5t-53 -20.5q-31 0 -51.5 20.5t-20.5 51.5z" />
    <glyph glyph-name="perthousand" unicode="&#x2030;" horiz-adv-x="1113" 
d="M551 679l-276 -679q-1 -1 -2 -3q-4 -2 -10 -2q-9 0 -22 5q-11 5 -16 9t-7 8q-2 3 -1 7l276 679l2 2q4 2 9 2q4 0 9 -1t13 -4q11 -4 16 -8t7 -8q3 -3 2 -7zM327 511q0 -33 -8 -68t-25.5 -63t-46 -46t-69.5 -18t-69.5 18t-46.5 46t-26 63t-8 68t8 68t26 63t46.5 46t69.5 18
t69.5 -18t46 -46t25.5 -63t8 -68zM115 511q0 -69 13.5 -111t49.5 -42q35 0 48 42t13 111t-13 111t-48 42q-36 0 -49.5 -42t-13.5 -111zM743 189q0 -34 -8 -68.5t-26 -63t-46.5 -46.5t-69.5 -18t-69.5 18t-46.5 46.5t-26 63t-8 68.5q0 33 8 67.5t26 62.5t46.5 46t69.5 18
t69.5 -18t46.5 -46t26 -62.5t8 -67.5zM1078 189q0 -34 -8 -68.5t-26 -63t-46.5 -46.5t-69.5 -18t-69.5 18t-46.5 46.5t-26 63t-8 68.5q0 33 8 67.5t26 62.5t46.5 46t69.5 18t69.5 -18t46.5 -46t26 -62.5t8 -67.5zM531 189q0 -69 13 -111.5t49 -42.5q35 0 48.5 42.5
t13.5 111.5q0 68 -13.5 110t-48.5 42q-36 0 -49 -42t-13 -110zM866 189q0 -69 13 -111.5t49 -42.5q35 0 48.5 42.5t13.5 111.5q0 68 -13.5 110t-48.5 42q-36 0 -49 -42t-13 -110z" />
    <glyph glyph-name="guilsinglleft" unicode="&#x2039;" horiz-adv-x="228" 
d="M57 266q-13 14 -13 31t13 31q28 28 52 52.5t43 41.5t32 25.5t19 3.5q5 -4 0 -18t-15.5 -35t-24 -47t-27.5 -54q14 -28 27.5 -54t24 -46.5t15.5 -34.5t0 -18q-6 -5 -19 3t-32 25t-43 41.5t-52 52.5z" />
    <glyph glyph-name="guilsinglright" unicode="&#x203a;" horiz-adv-x="228" 
d="M180 266q-28 -28 -52 -52.5t-43 -41.5t-32 -25t-19 -3q-5 4 0 18t15.5 34.5t24.5 46.5t27 54q-13 28 -27 54t-24.5 47t-15.5 35t0 18q6 5 19 -3.5t32 -25.5t43 -41.5t52 -52.5q13 -14 13 -31t-13 -31z" />
    <glyph glyph-name="Euro" unicode="&#x20ac;" horiz-adv-x="699" 
d="M670 514q0 -6 -2 -11t-6 -8.5t-12 -3.5q-9 0 -16 5t-13 14t-12.5 21.5t-14.5 27.5q-30 54 -70 73t-81 19q-70 0 -118 -55.5t-65 -155.5h219q4 0 7 -4q6 -6 6 -26q0 -19 -6 -25q-3 -4 -7 -4h-225q-1 -8 -1 -16v-16q0 -11 0.5 -20t0.5 -19h225q4 0 7 -4q6 -6 6 -26
q0 -19 -6 -25q-3 -4 -7 -4h-218q17 -97 65.5 -151t119.5 -54q38 0 78 19.5t70 73.5q17 29 27.5 48t28.5 19q13 0 18 -11q2 -5 2 -11v-99q0 -19 -21.5 -36.5t-55.5 -31t-76 -21.5t-84 -8q-68 0 -123 20.5t-96.5 56t-69 83.5t-40.5 103h-70q-4 0 -6 4q-7 5 -7 25q0 21 7 26
q2 4 6 4h61q-1 10 -1.5 19.5t-0.5 19.5q0 8 0.5 16t1.5 16h-61q-4 0 -6 4q-7 5 -7 25q0 21 7 26q2 4 6 4h69q12 56 39 105t68.5 85.5t97.5 57.5t125 21q42 0 84 -8t76 -21.5t55.5 -31t21.5 -36.5v-98z" />
    <glyph glyph-name="Omega" unicode="&#x2126;" horiz-adv-x="766" 
d="M115 0q-11 0 -18.5 -0.5t-12.5 -0.5t-10 -0.5t-11 -0.5q-7 0 -11 3t-7 6q-3 4 -4 9l-16 99q0 4 1 8q2 2 5 4.5t10 2.5q19 0 30.5 -12t25.5 -26.5t36.5 -26.5t62.5 -12q34 0 47 6.5t13 20.5q0 15 -11.5 23.5t-18.5 11.5q-48 20 -82.5 51.5t-56 69.5t-32 79.5t-10.5 81.5
q0 53 19 107.5t59.5 99.5t104.5 73.5t154 28.5t154 -28.5t104.5 -73.5t59.5 -99.5t19 -107.5q0 -40 -10.5 -81.5t-32 -79.5t-56 -69.5t-82.5 -51.5q-7 -3 -18.5 -11.5t-11.5 -23.5q0 -14 12 -20.5t41 -6.5q44 0 68 12t39 26.5t26 26.5t29 12q12 0 14 -7q2 -4 2 -8l-16 -99
q-1 -5 -4 -9q-2 -3 -6.5 -6t-11.5 -3q-6 0 -11 0.5t-10 0.5t-12.5 0.5t-18.5 0.5h-196q-3 0 -6 1q-6 4 -6 10v98q-1 17 7 27t18 15q24 14 42.5 40.5t31 61t19.5 74t7 78.5q0 56 -13 102.5t-37 79.5t-58 51t-76 18t-76 -18t-58 -51t-37 -79.5t-13 -102.5q0 -39 7 -78.5
t20 -74t31.5 -61.5t40.5 -41q10 -6 18.5 -15t7.5 -26v-98q0 -6 -6 -10q-3 -1 -6 -1h-196z" />
    <glyph glyph-name="partialdiff" unicode="&#x2202;" horiz-adv-x="542" 
d="M173 236q0 -42 6 -77t18 -60.5t31.5 -40t46.5 -14.5t46.5 14.5t31.5 40t18 60.5t6 77q0 41 -6 75.5t-18 60t-31.5 40t-46.5 14.5t-46.5 -14.5t-31.5 -40t-18 -60t-6 -75.5zM241 713q64 -31 115 -76.5t87.5 -101.5t56 -120.5t20.5 -134.5q0 -59 -13 -112t-42 -93.5
t-76 -64t-115 -23.5t-115 23t-75.5 59t-41 80t-12.5 87q0 42 12.5 86t41 79.5t75.5 58.5t115 23q23 0 42 -4.5t36 -12.5q-6 27 -19.5 56t-32 56t-40.5 50t-44 39q-10 7 -10.5 16.5t4.5 17.5t13.5 12t17.5 0z" />
    <glyph glyph-name="Delta" unicode="&#x2206;" horiz-adv-x="690" 
d="M304 529l-143 -420q-8 -20 -0.5 -35.5t27.5 -15.5h239q17 0 21.5 15.5t-1.5 33.5zM33 0q-6 0 -10 2t-7 5.5t-3 10.5q0 10 8.5 17.5t20 16t23 19.5t17.5 29l195 574q4 10 10 14q3 2 6 2h101q4 0 7 -2t6 -5t5 -9q1 -4 17.5 -53.5t43.5 -128.5t62 -181t72 -211
q6 -18 17.5 -29t23 -19.5t20 -16t8.5 -17.5q0 -7 -3 -10.5t-7 -5.5t-10 -2h-623z" />
    <glyph glyph-name="product" unicode="&#x220f;" horiz-adv-x="737" 
d="M660 93q0 -16 7 -27t16 -19t16 -15t7 -16q0 -10 -6 -14q-3 -2 -6 -2h-224q-3 0 -6 2q-6 4 -6 14q0 9 7 16t16 15t16 19t7 27v521h-270v-521q0 -16 7 -27t16 -19t16 -15t7 -16q0 -10 -6 -14q-3 -2 -6 -2h-225q-3 0 -6 2q-6 4 -6 14q0 9 7 16t16 15t16 19t7 27v497
q0 18 -7 29t-16 19.5t-16 16t-7 17.5q0 12 6 16q3 2 6 2h651q3 0 6 -2q6 -4 6 -16q0 -10 -7 -17.5t-16 -16t-16 -19.5t-7 -29v-497z" />
    <glyph glyph-name="summation" unicode="&#x2211;" horiz-adv-x="610" 
d="M246 630q-17 0 -20 -8t5 -20l151 -235q13 -22 0 -44l-151 -235q-7 -11 -4 -19.5t20 -8.5h154q47 0 72 14.5t40.5 32t26.5 32t30 14.5q8 0 11 -3.5t4 -8.5q2 -5 1 -12l-15 -113q-1 -5 -4 -9q-2 -3 -6.5 -6t-11.5 -3q-6 0 -11 0.5t-10 0.5t-12.5 0.5t-18.5 0.5h-413
q-16 1 -28 5q-11 4 -19.5 12t-9.5 22q0 9 3.5 20.5t12.5 25.5l168 260l-167 260q-9 14 -12.5 25.5t-3.5 20.5q1 15 9.5 22.5t19.5 11.5q12 4 28 5h391q11 0 18.5 0.5t12.5 0.5t10 0.5t11 0.5q13 0 18 -9q3 -4 4 -9l11 -113q0 -7 -1 -12q-2 -5 -5 -8.5t-11 -3.5
q-19 0 -29.5 14.5t-25.5 32t-39.5 32t-71.5 14.5h-132z" />
    <glyph glyph-name="minus" unicode="&#x2212;" 
d="M404 340q4 -1 7 -5q2 -5 4 -13.5t2 -25.5q0 -16 -2 -24t-4 -13q-3 -4 -7 -5h-366q-4 1 -6 5q-3 5 -5 13t-2 24q0 17 2 25.5t5 13.5q2 4 6 5h366z" />
    <glyph glyph-name="radical" unicode="&#x221a;" horiz-adv-x="684" 
d="M158 253h-123q-4 0 -6 3q-7 5 -7 20q0 16 7 21q2 3 6 3h150q2 0 3 -1q4 0 5 -4l141 -334l285 664q1 2 3 3q3 3 10 3q5 0 14 -3q8 -3 11.5 -7t4.5 -7q2 -4 1 -8l-307 -712q-9 -16 -23 -16q-13 0 -20 16z" />
    <glyph glyph-name="infinity" unicode="&#x221e;" horiz-adv-x="550" 
d="M247 352q-14 19 -38 34t-59 15q-38 0 -58.5 -17.5t-21.5 -38.5t17 -38.5t56 -17.5q42 0 65 19.5t39 43.5zM306 338q13 -19 38 -34t59 -15q38 0 58.5 17.5t21.5 38.5t-17 38.5t-57 17.5q-21 0 -36.5 -5.5t-27.5 -14t-21.5 -20t-17.5 -23.5zM142 464q45 0 76.5 -21
t56.5 -56q12 15 25 29t28 24.5t34 17t44 6.5q40 0 67 -17.5t40.5 -44t13.5 -57.5t-12.5 -57.5t-38.5 -44t-65 -17.5q-45 0 -76.5 20t-56.5 55q-12 -15 -25 -28.5t-28.5 -24t-34.5 -16.5t-43 -6q-40 0 -67 17.5t-40.5 44t-13.5 57.5t12.5 57.5t38.5 44t65 17.5z" />
    <glyph glyph-name="integral" unicode="&#x222b;" horiz-adv-x="506" 
d="M196 503q0 51 14.5 88.5t38.5 62t54 36t60 11.5q33 0 58.5 -8t43 -21.5t26.5 -31t9 -36.5q0 -7 -2 -15.5t-6.5 -16t-13 -13t-21.5 -5.5t-22 5t-14.5 12t-7.5 14.5t-2 13.5q-2 29 -16 41.5t-27 12.5q-25 0 -39.5 -18t-14.5 -51l1 -605q0 -51 -15 -88.5t-38.5 -61.5
t-53.5 -36t-60 -12q-67 0 -102.5 29.5t-35.5 68.5q0 6 2 14.5t6.5 16t13 13t21.5 5.5q14 0 22.5 -5t14 -12t8 -14.5t2.5 -13.5q1 -28 15 -41t27 -13q25 0 39.5 18t14.5 51v605z" />
    <glyph glyph-name="approxequal" unicode="&#x2248;" horiz-adv-x="427" 
d="M399 268q-14 -38 -44.5 -63.5t-74.5 -25.5q-19 0 -37.5 7t-36 15t-33 15.5t-29.5 7.5q-19 0 -33.5 -5t-30.5 -22q-14 -15 -28 -15q-11 0 -16 8.5t0 21.5q14 37 44 63t72 26q21 0 41.5 -7t39.5 -15.5t36 -15.5t32 -7q29 2 54 27q13 14 25 14q11 0 17 -9t2 -20zM400 412
q-14 -38 -44.5 -63.5t-74.5 -25.5q-19 0 -37.5 7t-36 15t-33 15.5t-29.5 7.5q-19 0 -33.5 -5t-30.5 -22q-14 -15 -28 -15q-11 0 -16 8.5t0 21.5q14 37 44 63t72 26q21 0 41.5 -7t39.5 -15.5t36 -15.5t32 -7q29 2 54 27q13 14 25 14q11 0 17 -9t2 -20z" />
    <glyph glyph-name="notequal" unicode="&#x2260;" 
d="M153 190h-102q-3 1 -6 4q-2 4 -4 11t-2 20q0 14 2 21t4 11q3 3 6 4h123l22 73h-145q-3 1 -6 4q-2 4 -4 11t-2 20q0 14 2 21t4 11q3 3 6 4h165l20 63q1 2 3 3q3 3 12 3q10 0 23 -4t19.5 -7.5t8.5 -6.5q3 -4 2 -7l-14 -44h103q3 -1 6 -4q2 -4 4 -11t2 -21q0 -13 -2 -20
t-4 -11q-3 -3 -6 -4h-123l-22 -73h145q3 -1 6 -4q2 -4 4 -11t2 -21q0 -13 -2 -20t-4 -11q-3 -3 -6 -4h-165l-21 -70q-1 -2 -3 -3t-4.5 -2t-7.5 -1q-9 0 -22 4t-19.5 8t-9.5 7t-2 7z" />
    <glyph glyph-name="lessequal" unicode="&#x2264;" horiz-adv-x="435" 
d="M363 559q5 1 10 0t9.5 -4t8.5 -11t3.5 -14.5t-2.5 -10.5q-3 -5 -7 -8l-218 -155l217 -153q5 -4 7 -9t3 -11.5t-3 -14.5q-3 -8 -7.5 -10.5t-9.5 -3.5t-10 0l-321 178q-6 3 -8.5 9.5t-2.5 14.5q0 20 11 26zM412 42q0 -16 -2 -24t-4 -13q-3 -4 -7 -5h-367q-4 1 -6 5
q-3 5 -5 13t-2 24q0 17 2 25.5t5 13.5q2 4 6 5h367q4 -1 7 -5q2 -5 4 -13.5t2 -25.5z" />
    <glyph glyph-name="greaterequal" unicode="&#x2265;" horiz-adv-x="435" 
d="M398 356q0 -8 -2.5 -14.5t-7.5 -9.5l-321 -178q-5 -1 -10 0t-9 3.5t-8 10.5t-3 14.5t3 11.5t7 9l217 153l-218 155q-5 3 -7 8q-2 4 -2.5 10.5t3.5 14.5t8.5 11t9.5 4t10 0l320 -177q10 -7 10 -26zM412 42q0 -16 -2 -24t-4 -13q-3 -4 -7 -5h-367q-4 1 -6 5q-3 5 -5 13
t-2 24q0 17 2 25.5t5 13.5q2 4 6 5h367q4 -1 7 -5q2 -5 4 -13.5t2 -25.5z" />
    <glyph glyph-name="lozenge" unicode="&#x25ca;" horiz-adv-x="508" 
d="M90 350l163 -281l160 281l-160 283zM225 689q8 11 28 11q8 0 15.5 -2.5t11.5 -8.5l189 -329q1 -1 1 -3q1 -1 1 -7q0 -4 -1 -6q0 -1 -1 -2l-189 -329q-4 -6 -11.5 -8.5t-15.5 -2.5q-20 0 -28 11l-188 327q-1 1 -1 3q-2 4 -2 7q0 4 2 8q0 2 1 3z" />
    </font>
</defs>
</svg>
